<svg id="Layer_1" data-name="Layer 1" xmlns="http://www.w3.org/2000/svg" viewBox="0 0 11.5345 23.836"><defs><style>.cls-1{fill:none;stroke:#b1b1b1;stroke-miterlimit:10;stroke-width:2px}</style></defs><title>Facebook</title><path class="cls-1" d="M6.619 23.001H4.282a.984.984 0 0 1-.953-1.012v-9.897H2.17a.986.986 0 0 1-.955-1.015V9.34a.986.986 0 0 1 .955-1.014h1.159V6.063c0-3.074 1.192-4.898 4.592-4.898h1.874a.986.986 0 0 1 .955 1.015v1.737a.986.986 0 0 1-.955 1.015h-.809c-1.319 0-1.414.523-1.414 1.502V8.31h2.147a.993.993 0 0 1 .949 1.123l-.176 1.737a.978.978 0 0 1-.949.906H7.572v9.914A.984.984 0 0 1 6.619 23z" transform="translate(-.215 -.165)"/></svg>