<svg xmlns="http://www.w3.org/2000/svg" viewBox="0 0 693.26 162"><defs><style>.cls-1{fill:#648a1f}.cls-2{fill:#a1bc00}</style></defs><title>CP-02</title><g id="Layer_2" data-name="Layer 2"><g id="Layer_1-2" data-name="Layer 1"><path class="cls-1" d="M238.42 17.14h-8.27v47.74h-29.39V17.14h-8.27v55.7h44.74l-.08 12.71h7.97V64.89h-6.7V17.14zM291.56 69.93a14.24 14.24 0 0 0 5.32-4.82 14.5 14.5 0 0 0 2.14-8 13.94 13.94 0 0 0-4-10.24 16 16 0 0 0-5.17-3.38 12.7 12.7 0 0 0 4.07-3.21 13.3 13.3 0 0 0 2.93-8.65 12.78 12.78 0 0 0-5.41-11c-3.42-2.42-8.19-3.57-13.81-3.57h-23v55.7h23.61c4 0 9.11-.64 13.31-2.91M277.1 25.1c3.74 0 6.67.51 8.55 1.67a5.56 5.56 0 0 1 2.11 2.23 7.76 7.76 0 0 1 .75 3.6 7.59 7.59 0 0 1-.76 3.5 6.56 6.56 0 0 1-3.43 3 14.11 14.11 0 0 1-5.46 1h-16v-15zm1.62 22.95a18.48 18.48 0 0 1 8 1.42 6.93 6.93 0 0 1 2.81 2.53 8.23 8.23 0 0 1 1.15 4.52 8.38 8.38 0 0 1-1.19 4.7 6.27 6.27 0 0 1-2.13 2c-2.59 1.54-6.62 1.74-10.41 1.73h-14v-16.9zM348.3 64.89h-30.34V48.74h27.56v-7.96h-27.56V25.1h29.87v-7.96h-38.14v55.7h38.61v-7.95zM371.98 72.84h8.27V25.1h18.94v-7.96h-46.15v7.96h18.94v47.74zM430.1 73.77c9.65 0 17-3.59 21.84-9A29.59 29.59 0 0 0 459.18 45a29.59 29.59 0 0 0-7.25-19.77c-4.85-5.42-12.18-9-21.84-9s-17 3.59-21.84 9A29.6 29.6 0 0 0 401 45a29.6 29.6 0 0 0 7.25 19.77c4.85 5.42 12.18 9 21.84 9m0-49.59c7.1 0 12.22 2.55 15.63 6.4A21.66 21.66 0 0 1 450.83 45a21.66 21.66 0 0 1-5.1 14.42c-3.42 3.85-8.53 6.39-15.63 6.4s-12.22-2.55-15.63-6.4A21.66 21.66 0 0 1 409.36 45a21.66 21.66 0 0 1 5.1-14.42c3.41-3.85 8.53-6.39 15.63-6.4M501.81 72.85h8.27V17.14h-8.27v26.91a38.58 38.58 0 0 1-13.34 2.43c-4.41 0-8-.84-10.33-2.55a8.24 8.24 0 0 1-2.73-3.3 12.07 12.07 0 0 1-1-5.1V17.14h-8.27v18.08c0 6.26 2 11.11 5.62 14.34s8.84 4.81 15.14 4.89a49.81 49.81 0 0 0 14.89-2.37zM562.64 17.14v23.8h-30.16v-23.8h-8.27v55.7h8.27V48.9h30.16v23.94h8.27v-55.7h-8.27zM632.25 72.84h8.27v-55.7h-8.27v55.7zM617.39 38.3a37.27 37.27 0 0 0-13-2h-11V17.14H585v55.7h19.31c6.33 0 12.2-1 16.6-3.79a14.73 14.73 0 0 0 5.25-5.7 19 19 0 0 0 1.92-8.82 18.9 18.9 0 0 0-1.92-8.81 15.78 15.78 0 0 0-8.81-7.43m1.24 21.43a8.83 8.83 0 0 1-5.29 4.06 28.26 28.26 0 0 1-8.67 1.1h-11.32v-20.6h11.34c4.32 0 8.19.53 10.85 2.06a7.9 7.9 0 0 1 3.11 3.07 10.43 10.43 0 0 1 1.16 5.14 10.66 10.66 0 0 1-1.15 5.19M662.92 64.89V48.74h27.57v-7.96h-27.57V25.1h29.88v-7.96h-38.15v55.7h38.61v-7.95h-30.34zM192.21 147.79h8.23v-47.55h29.11v47.55h8.24V92.31h-45.58v55.48zM277.23 91.39c-9.62 0-16.92 3.58-21.75 9a30.46 30.46 0 0 0 0 39.37c4.83 5.4 12.13 9 21.75 9s16.92-3.58 21.75-9a30.45 30.45 0 0 0 0-39.37c-4.83-5.4-12.13-9-21.75-9m0 49.39c-7.07 0-12.17-2.54-15.57-6.37a22.82 22.82 0 0 1 0-28.72c3.4-3.83 8.5-6.36 15.57-6.37s12.17 2.54 15.57 6.37a22.82 22.82 0 0 1 0 28.72c-3.4 3.83-8.5 6.36-15.57 6.37M325 92.31l-.06.83c-.94 11.86-1.75 23.86-3.56 32.78a36.49 36.49 0 0 1-3.52 10.68 9 9 0 0 1-2.37 2.8 4.56 4.56 0 0 1-2.76.92 8.91 8.91 0 0 1-3.38-.48l-1.2-.43v8l.59.21a14.71 14.71 0 0 0 5.06.9 11.6 11.6 0 0 0 9.2-4.42c3.47-4.17 5.49-10.74 6.92-18.57 1.38-7.6 2.15-16.39 2.93-25.28h18.76v47.55h8.23V92.31H325zM378 96.54a16.11 16.11 0 0 0-6.71 13.7 16.45 16.45 0 0 0 4.15 11.46 19.1 19.1 0 0 0 8.79 5.24L368 147.79h10.09l15.18-19.63h12.54v19.63h8.24V92.31H393c-5.55 0-10.92 1.31-15 4.22m2.75 9.17a9 9 0 0 1 4.59-4.11 18.62 18.62 0 0 1 7.4-1.35h13.14v20h-13.16a16.29 16.29 0 0 1-9.3-2.41 8.34 8.34 0 0 1-2.69-3.06 10.83 10.83 0 0 1 0-9.06M466.44 92.31v23.7h-30.03v-23.7h-8.23v55.48h8.23v-23.85h30.03v23.85h8.24V92.31h-8.24zM521 113.39a37.1 37.1 0 0 0-13-2h-11V92.31h-8.23v55.48H508c6.3 0 12.15-1 16.53-3.78a14.68 14.68 0 0 0 5.23-5.67 21.1 21.1 0 0 0 0-17.55 15.72 15.72 0 0 0-8.78-7.4m1.23 21.34a8.79 8.79 0 0 1-5.27 4 28.12 28.12 0 0 1-8.64 1.09H497v-20.48h11.3c4.3 0 8.16.53 10.81 2a7.87 7.87 0 0 1 3.09 3.05 10.39 10.39 0 0 1 1.15 5.12 10.63 10.63 0 0 1-1.14 5.17M535.77 147.79h8.24V92.31h-8.24v55.48z"/><path class="cls-2" d="M34.93 37.15c5.39-18.43-21.24-21.24-21.24-21.24s2.78 26.67 21.21 21.28zM122.14 37.19c18.43 5.39 21.24-21.24 21.24-21.24s-26.63 2.82-21.24 21.24zM121.65 124.85c-5.39 18.43 21.24 21.24 21.24 21.24s-2.81-26.63-21.24-21.24zM34.45 124.81C16 119.42 13.2 146.06 13.2 146.06s26.63-2.81 21.24-21.24z"/><path class="cls-1" d="M82.58 74.51a7.85 7.85 0 0 0-3-1.16V61.4a1.36 1.36 0 0 0-1.3-1.4 1.38 1.38 0 0 0-1.35 1.36v11.99a7.88 7.88 0 0 0-2.87 1.14C40 41.52 78.28 0 78.28 0h.13s37.08 42.07 4.17 74.51M78.22 162h-.14S41 119.88 74 87.41a6.81 6.81 0 0 0 3 1.25V99.6a1.38 1.38 0 0 0 1.36 1.35 1.36 1.36 0 0 0 1.35-1.35V88.65a7.11 7.11 0 0 0 2.84-1.16c34 33-4.25 74.51-4.25 74.51M156.58 81.2v.11s-40.93 36.05-73.19 5.5a7.55 7.55 0 0 0 2.6-5h8.86a1.35 1.35 0 1 0 0-2.71h-9a7.86 7.86 0 0 0-2.17-3.76c32.75-31.23 72.92 5.82 72.92 5.82M73.1 86.73C40.33 118.34 0 81.12 0 81.12V81s40.74-35.92 73-5.66a7.9 7.9 0 0 0-2.22 3.82h-9.4a1.35 1.35 0 0 0 0 2.71h9.24a7.52 7.52 0 0 0 2.52 4.88"/></g></g></svg>