<svg version="1" id="Layer_1" xmlns="http://www.w3.org/2000/svg" viewBox="0 0 640 145"><style>.st0{fill:#f37c20}</style><path class="st0" d="M223.1 60.7h21v17.2h6.7v-41h-6.7v17.5h-21V36.9h-6.6v41h6.6zM256.4 57.6c0 10.2 6.7 21 21.4 21s21.4-10.9 21.4-21-6.7-21-21.4-21c-14.8-.4-21.4 10.8-21.4 21zm36 0c0 7.4-4.6 14.7-14.7 14.7-10.2 0-14.7-7.4-14.7-14.7s4.6-14.7 14.7-14.7c10.2 0 14.7 7.3 14.7 14.7zM337.3 66.4c0-5.6-3.5-8.4-6.3-9.8 2.5-1.4 4.6-4.2 4.6-8.4 0-6.7-5.3-10.9-14.4-10.9h-16.8v41h17.5c3.5-.4 15.4-1.1 15.4-11.9zM311 43.6h9.8c7 0 8.1 2.5 8.1 5.3 0 4.6-4.2 5.3-6.7 5.3H311V43.6zm0 28V60h11.2c5.6 0 8.4 1.8 8.4 5.6 0 4.9-3.5 5.6-9.5 5.6H311v.4zM362.1 36.2c-14.7 0-21.4 10.9-21.4 21s6.7 21 21.4 21 21.4-10.9 21.4-21c0-9.8-6.7-21-21.4-21zm0 36.1c-10.2 0-14.7-7.4-14.7-14.7s4.6-14.7 14.7-14.7c10.2 0 14.7 7.4 14.7 14.7 0 7.4-4.5 14.7-14.7 14.7zM416.4 36.9h-27.7v41h6.7V43.6h21zM427.2 64.3h7.7c14.4 0 17.5-7.4 17.5-13.7 0-11.2-9.5-13.7-17.5-13.7h-14.4v41h6.7V64.3zm0-20.7h7.7c7.4 0 10.5 2.1 10.5 7s-3.2 7-10.5 7h-7.7v-14zM484.3 77.9h7l-17.9-41h-6.3l-17.9 41h7.4l3.9-9.5h19.6l4.2 9.5zm-21-15.7l7-16.8 7.4 16.8h-14.4zM530.2 71.6V36.9h-25.9V38c0 14.7-2.1 25.9-6 33.6H493v15.8h6.3v-9.1h29.1v9.1h6.3V71.6h-4.5zm-6.7 0h-17.9c2.8-6.3 4.6-15.4 5.3-28h12.6v28zM223.1 99.3h20.3v34.3h6.7v-41h-33.6v41h6.6zM271.4 92.6l-17.9 41h7.4l3.9-9.5h19.6l3.9 9.5h7l-17.9-41h-6zm-3.8 25.2l7-16.8 7.4 16.8h-14.4zM332.4 122c0-5.6-3.5-8.4-6.3-9.8 2.5-1.4 4.6-4.2 4.6-8.4 0-6.7-5.3-10.9-14.4-10.9h-16.8v41H317c3.5-.3 15.4-1 15.4-11.9zm-26.3-22.7h9.8c7 0 8.1 2.5 8.1 5.3 0 4.6-4.2 5.3-6.7 5.3h-11.2V99.3zm9.8 28h-9.8v-11.6h11.2c5.6 0 8.4 1.8 8.4 5.6-.3 4.9-3.5 6-9.8 6zM346.4 95.4c-1.1 15.1-2.5 32.2-8.4 32.2-1.1 0-1.8 0-2.5-.4l-1.4-.4v6.7l.7.4c1.4.4 2.5.7 3.9.7 10.9 0 12.6-17.2 14-35h13v34.7h6.7V92.6h-25.9l-.1 2.8zM414.6 133.6v-41H409L387 122V92.6h-6.7v41h6l21.7-29.1v29.1zM450.4 109.8h-21.1V92.6h-6.6v41h6.6v-17.2h21.1v17.2h6.6v-41h-6.6zM484 91.9c-14.7 0-21.4 10.9-21.4 21s6.7 21 21.4 21 21.4-10.9 21.4-21c-.1-9.8-7.1-21-21.4-21zm0 36.1c-10.2 0-14.7-7.4-14.7-14.7 0-7.4 4.6-14.7 14.7-14.7s14.7 7.4 14.7 14.7c-.4 7.3-4.9 14.7-14.7 14.7zM93.5 72.5c0-12.9 9.1-23.5 21.5-26V9.2H51.9v125.9H115V98.5c-12.4-2.5-21.5-13.1-21.5-26zM125.1 9.2v37.3c12.1 2.3 21.5 13.1 21.5 26s-9.1 23.5-21.5 26v36.8h63.1V9.2h-63.1z"/></svg>