<svg id="Layer_1" xmlns="http://www.w3.org/2000/svg" width="543.6" height="346.3" viewBox="-25 247.6 543.6 346.3"><style>.st0{fill:#4ead33}.st1{fill:#db0d15}.st2{fill-rule:evenodd;clip-rule:evenodd;fill:#4ead33}</style><path class="st0" d="M214.3 480.3v-23.9h-11.1v58.8h21.1c9.5 0 15.5-7.7 15.5-17.2 0-9.7-6.1-17.7-15.6-17.7h-9.9zm0 26.2v-17.4h5.6c5.6 0 8.4 3.2 8.4 8.8 0 5.5-2.8 8.6-8.4 8.6h-5.6zM315.3 515.3h12l3.5-15.3h12.6l2.8 15.3h12.1l-13-58.8h-15l-15 58.8zm16.9-24l5.4-27.4 4.5 27.4h-9.9zM450 456.5v58.8h29.5v-9h-19v-18.2h17.4v-9h-17.4v-13.6h19v-9H450zM129 456.5v58.8h29.5v-9h-19.1v-18.2h17.4v-9h-17.4v-13.6h19.1v-9H129zM260.5 456.5v58.8H290v-9h-19.1v-18.2h17.4v-9h-17.4v-13.6H290v-9h-29.5zM50.6 456.5v58.8h29.5v-9h-19v-18.2h17.3v-9H61.1v-13.6h19v-9H50.6zM369.8 456.5v27.7c0 20.9-1.3 22.7-4.4 22.7-1.2 0-2.6-.2-3.3-.4v8.1c1.9.6 3.8.7 6.2.7 8.6 0 11.6-8.6 11.6-27.8v-22.1h11v48.9h10.3v-57.7h-31.4v-.1zM413.8 456.5v27.7c0 20.9-1.3 22.7-4.4 22.7-1.2 0-2.6-.2-3.3-.4v8.1c2 .6 3.8.7 6.2.7 8.6 0 11.6-8.6 11.6-27.8v-22.1h11v48.9h10.3v-57.7h-31.4v-.1zM92.8 456.5v27.7c0 20.9-1.3 22.7-4.4 22.7-1.2 0-2.6-.2-3.3-.4v8.1c2 .6 3.8.7 6.2.7 8.6 0 11.6-8.6 11.6-27.8v-22.1h11v48.9h10.3v-57.7H92.8v-.1zM484.4 456.5v57.7h11.1l15-41.9h.1c-1.1 5.2-1.3 11.3-1.3 20.1v21.8h9.6v-57.7h-11.1l-15 42h-.1c1-4.8 1.3-13.5 1.3-20.4v-21.6h-9.6zM173.9 456.5h-10.5v58.8h10.5v-27.2h13.8v27.2h10.5v-58.8h-10.5v22.6h-13.8v-22.6zM10.7 473.4c0-10 6.3-17.5 17-17.5 7.7 0 17.1 3.6 17.1 15.2 0 5.9-3.6 11.1-8.8 12.4 5.7 1.4 9.6 6.1 9.6 14.7 0 11.5-6.3 17.2-17.6 17.2-9.4 0-18.2-4.3-18.2-16.6h10.5c0 4 1.6 7.8 7.1 7.8 5.2 0 7.1-3.6 7.1-9.5 0-6.7-3.4-9.2-7.9-9.2h-2.3v-8.2h2.3c4 0 7.1-2.2 7.1-7.3 0-3.8-1.4-8-6-8-4.3 0-6.5 3.7-6.5 8.8H10.7v.2zM245 515.3h10.5v-58.8H245v58.8z"/><path class="st1" d="M20.7 421.9v7.1l-5.3-7.1h-2.6l4.7 5.9-4.8 9.3h2.5l3.8-7.6 1.7 2.2v5.4h2.2v-5.4l1.6-2.2 3.8 7.6h2.5l-4.8-9.3 4.7-5.9h-2.6l-5.3 7.1v-7.1h-2.1zm19.1 0v15.2h2.6l5-11.5c.1-.2.4-1.4.5-1.9-.1.5-.2 1.5-.2 1.9v11.5h2.2v-15.2h-2.6l-5 11.6c-.1.3-.3 1.1-.5 1.8.1-.5.2-1.3.2-1.8v-11.6h-2.2zm21.6 0v7.7c0 4.9-.4 5.8-1.6 5.8-.4 0-.7 0-.9-.1v1.7c.5.2.7.2 1.3.2 2.7 0 3.3-3.1 3.3-7.5v-6h4.7v13.4h2.2v-15.2h-9zm24.5-.4c-3.8 0-5.4 2.9-5.4 7.9 0 6.2 2.2 8.1 5.4 8.1 3.3 0 5.4-1.8 5.4-8 0-5.1-1.7-8-5.4-8zm0 1.9c2.3 0 3.2 1.7 3.2 6.3 0 3.6-.6 6-3.2 6-2.5 0-3.2-2.4-3.2-6 0-4.6.9-6.3 3.2-6.3zm15.5-1.5v15.2h2.6l5-11.5c.1-.2.4-1.4.5-1.9-.1.5-.2 1.5-.2 1.9v11.5h2.2v-15.2h-2.6l-5 11.6c-.1.3-.3 1.1-.5 1.8.1-.5.2-1.3.2-1.8v-11.6h-2.2zm1.7-4.9c.1 2.4 1.6 3.4 3.4 3.4 2 0 3.4-1 3.6-3.4H109c-.3 1.4-1.1 1.9-2.3 1.9-1.2 0-2.1-.5-2.4-1.9h-1.2zm35 4.9h-2.2v15.2h2.2v-5.4l1.6-2.2 3.8 7.6h2.5l-4.8-9.3 4.7-5.9h-2.6L138 429v-7.1h.1zm19.2 1.9h2.4c1.6 0 2.3.7 2.3 2.2 0 1.7-.7 2.3-2.4 2.3h-2.3v-4.5zm0 6.2h2.5c1.6 0 2.5.9 2.5 2.6 0 1.8-.5 2.6-2.5 2.6h-2.5V430zm-2.2 7.1h5.6c2 0 3.8-1.5 3.8-4.1 0-2.1-1.1-3.4-2.7-3.8v-.1c1.4-.4 2.4-1.6 2.4-3.6 0-2.2-1.8-3.6-4.1-3.6h-4.9v15.2h-.1zm25.7-8.3v3.7c0 1.6-.5 3.1-2.8 3.1-1.5 0-2-1-2-2.3 0-3 2.6-3.1 4.8-4.5zm-4.5-2.8c0-1.8.6-2.7 2.2-2.7 1.7 0 2.3.6 2.3 2.4 0 .8 0 1.5-.6 1.8-.2.1-1.7.8-2.7 1.1-2.6 1-3.8 2-3.8 4.7 0 2.8 1.3 4.2 3.9 4.2 1.5 0 2.8-1.1 3.4-2.4h.1c.3 2 1 2.2 2.3 2.2.4 0 .7-.1.9-.2v-1.6c-.1 0-.3.1-.5.1-.6 0-.8-.5-.8-1.2v-9c0-2-1.2-3.9-4.2-3.9-2.8 0-4.4 1.4-4.4 4.5h1.9zm22.4-2.6c2.8 0 3 3.9 3 5.9 0 4.1-.7 6.4-3 6.4-2.7 0-2.9-3.3-2.9-6.2 0-2.6.3-6.1 2.9-6.1zm-2.9-1.5h-2.2v20.5h2.2v-6.9c.8 1.2 1.7 2 3.3 2 3.8 0 4.8-3.6 4.8-8.3 0-4.2-1.1-7.7-5-7.7-1.1 0-2.4.7-3.1 2.1v-1.7zm22.8 15.2v-13.4h4v-1.8h-10.1v1.8h4v13.4h2.1zm19.2-8.3v3.7c0 1.6-.5 3.1-2.8 3.1-1.5 0-2-1-2-2.3 0-3 2.6-3.1 4.8-4.5zm-4.5-2.8c0-1.8.6-2.7 2.2-2.7 1.7 0 2.3.6 2.3 2.4 0 .8 0 1.5-.6 1.8-.2.1-1.7.8-2.7 1.1-2.6 1-3.8 2-3.8 4.7 0 2.8 1.2 4.2 3.9 4.2 1.5 0 2.8-1.1 3.4-2.4h.1c.3 2 1 2.2 2.3 2.2.4 0 .7-.1.9-.2v-1.6c-.1 0-.3.1-.5.1-.6 0-.8-.5-.8-1.2v-9c0-2-1.2-3.9-4.2-3.9-2.8 0-4.4 1.4-4.4 4.5h1.9zm18.2-4.1v7.7c0 4.9-.4 5.8-1.6 5.8-.4 0-.7 0-.9-.1v1.7c.5.2.7.2 1.3.2 2.7 0 3.3-3.1 3.3-7.5v-6h4.7v13.4h2.2v-15.2h-9zM243.6 332.7c-.3-.3-.5-.7-.5-1.2v-21.9h-12v45.7c0 .4-.2.8-.5 1.2-.3.3-.7.5-1.2.5H224c-.4 0-.9-.2-1.2-.5-.3-.3-.5-.7-.5-1.2v-9.7h-10.8c-.4 0-.8-.2-1.1-.5-.3-.3-.5-.7-.5-1.2v-49.5H186v41.9h7.6c.4 0 .9.2 1.2.5.3.3.5.7.5 1.2v24.5c0 .4-.2.8-.5 1.1-.3.3-.7.5-1.2.5h-9.2c-.4 0-.8-.2-1.2-.5-.3-.3-.5-.7-.5-1.1v-22.9h-4.6v4.8c0 .4-.2.8-.5 1.2-.3.3-.7.5-1.2.5h-8.3c-.4 0-.8-.2-1.1-.5-.3-.3-.5-.7-.5-1.2V338c0-.4.2-.8.5-1.2.3-.3.7-.5 1.1-.5h6.7v-9.2h-29.5v12.2c0 .4-.2.8-.5 1.2-.3.3-.7.5-1.2.5h-6.7l1.4 33.7 124.5 6.6v-30.1h-8.1c-.4 0-.8-.2-1.2-.5-.3-.3-.5-.7-.5-1.1V343c0-.4.2-.8.5-1.2.3-.3.7-.5 1.2-.5h8.1V333h-18.2c-.2.1-.7 0-1-.3zm-49.9-14.8c0 .9-.7 1.6-1.6 1.6-.9 0-1.6-.7-1.6-1.6v-3.8c0-.9.7-1.6 1.6-1.6.9 0 1.6.7 1.6 1.6v3.8zm0-12.6c0 .9-.7 1.6-1.6 1.6-.9 0-1.6-.7-1.6-1.6v-3.8c0-.9.7-1.6 1.6-1.6.9 0 1.6.7 1.6 1.6v3.8zm-18.8 37.5v-3.2h-5v3.2h5zm81.7 5.1h6.4v-3.2h-6.4v3.2zm-70.6-8.3v21.2h6v-21.2h-6zm-51.9-70.7l2.8 68.8h5.2v-12.2c0-.4.2-.9.5-1.2.3-.3.7-.5 1.2-.5h32.7c.4 0 .8.2 1.2.5.3.3.5.7.5 1.2v10.8h4.6v-43.5c0-.4.2-.9.5-1.2.3-.3.7-.5 1.2-.5h27.2c.4 0 .9.2 1.2.5.3.3.5.7.5 1.2v49.5H224c.4 0 .8.2 1.1.5.3.3.5.7.5 1.1v9.7h2.3V308c0-.4.2-.9.5-1.2.3-.3.7-.5 1.2-.5h15.2c.4 0 .9.2 1.2.5.3.3.5.7.5 1.2v21.9H263v-58.7l41.4 5.1v-28.5l-170.3 21.1z"/><path class="st0" d="M304.4 276.3l-41.4-5.1v58.7h1.6c.4 0 .9.2 1.2.5.3.3.5.7.5 1.2v9.9h7.3v-38.9c0-.4.2-.8.5-1.2.3-.3.7-.5 1.2-.5H299v-8.1c0-.4.2-.9.5-1.2.3-.3.7-.5 1.2-.5h13.4c.4 0 .8.2 1.1.5.3.3.5.7.5 1.2v37.4L330 317c.6-.6 1.6-.6 2.2 0l14.7 14.5V302c0-.4.2-.8.5-1.1.3-.3.7-.5 1.2-.5h31.3c.4 0 .9.2 1.2.5.3.3.5.7.5 1.1v29.3h11.3c.4 0 .8.2 1.2.5.3.3.5.7.5 1.2v8.5h14.8l12-50.7-117-14.5zm86.7 81.7v-13.3h-5V358h5zm-78.8-20.4l-7.1 6.6h7.1v-6.6zm37.8 1.7v21.6h6.9V346l-6.9-6.7zm44.3 20.3c0 .4-.2.8-.5 1.2-.3.3-.7.5-1.2.5h-8.3c-.4 0-.9-.2-1.2-.5-.3-.3-.5-.7-.5-1.2V343c0-.4.2-.8.5-1.2.3-.3.7-.5 1.2-.5h6.7v-6.9h-11.3c-.4 0-.8-.2-1.2-.5-.3-.3-.5-.7-.5-1.1v-29.3H350v31l9.6 9.5c.3.3.5.7.5 1.2v17.1c0 .4-.2.8-.5 1.1-.3.3-.7.5-1.1.5h-10.1c-.4 0-.8-.2-1.2-.5-.3-.3-.5-.7-.5-1.1v-26.4L331 320.4l-15.4 14.2v11.2c0 .4-.2.8-.5 1.2-.3.3-.7.5-1.1.5h-13c-.7 0-1.3-.4-1.5-1-.2-.6-.1-1.3.4-1.8l4.4-4 8-7.4v-38.8h-10.1v8.1c0 .4-.2.8-.5 1.2-.3.3-.7.5-1.2.5h-23.7V343c0 .4-.2.8-.5 1.2-.3.3-.7.5-1.2.5h-9v4.8c0 .4-.2.8-.5 1.1-.3.3-.7.5-1.2.5H263v46.7l133-.7 12.4-52.4h-14v14.9zm-112-43.6c0 .9-.7 1.6-1.6 1.6-.9 0-1.6-.7-1.6-1.6v-3.8c0-.9.7-1.6 1.6-1.6.9 0 1.6.7 1.6 1.6v3.8zm7.1 0c0 .9-.7 1.6-1.6 1.6-.9 0-1.6-.7-1.6-1.6v-3.8c0-.9.7-1.6 1.6-1.6.9 0 1.6.7 1.6 1.6v3.8zm7.1 9.5c0 .9-.7 1.6-1.6 1.6-.9 0-1.6-.7-1.6-1.6v-3.8c0-.9.7-1.6 1.6-1.6.9 0 1.6.7 1.6 1.6v3.8zm0-9.5c0 .9-.7 1.6-1.6 1.6-.9 0-1.6-.7-1.6-1.6v-3.8c0-.9.7-1.6 1.6-1.6.9 0 1.6.7 1.6 1.6v3.8z"/><path class="st2" d="M69.1 404.9s-.1-.7-.3-2c-.3-1.3-.6-3.2-.9-5.8-1.2-8.9.6-23.4 6.7-35.2 5-9.8 16.1-28.7 27.3-30.5 1.3-.2 2.2-.2 2.9.1.7.2 1.1.8 1.3 1.7 3.6 10.9-3.9 30.7-11.8 46 .7-3.7 1.3-7.4 1.5-9.9.2-2.9.4-5.3.3-7.7-.1-2.1-.6-7.7-1.9-9.4-2.6 4.8-2.7 4.3-2.6 4.6 1.5 3.3 1.3 18.8-5.8 35l1.3.1c-.6 1-1.2 1.9-1.7 2.7-1.2 1.9-2.2 3.5-2.8 4.7l3.2-.9c.4-.4.7-.7 1.1-1.2 14-14.6 37-61.3 19.7-73.5-.6-.4-.9-.9-1-1.3 0-.1 0-.2.1-.3.1-.1.2-.1.3-.2.4-.1 1.3.2 2.6.7 3.8 1.6 10.2-.7 12.2 2.6 2.7 4.6 8.3 21.8 7.3 39.4-2.1 37.8-12.9 45-50.9 43.4-5.2-.1-6.6.4-8.1-3.1zM51.1 391.7c0-7.2-.5-14.1-1.7-19.9-1.3-6.3-3.5-11.4-6.7-14.4l.1 2.9c5.7 6.3 5.6 27.8 5 35.5l3.3-4.1zm2 14.2c-19.9-2.3-29.2-1.4-38.2-20.4-18.6-39.6 6.9-22 20.4-4.8l.5.6c-1.1-.9-2.3-1.8-3.6-2.6-2.5-1.6-9.4-6.1-14-3.7l2.7 1.3c2.8 0 7.6 2.9 10 4.4 4.9 3.3 9.4 7.2 9.4 8.1h1c2.5 3.5 4.3 6.3 4.3 6.3l-.2-4.6c-1.9-2.9-5.2-8.8-13.5-19-.7-7.2-.7-11.5-9-19.5l.9 3.5c2.6 1.7 5 7.4 5.3 12.6-11.1-9.5-11.1-9-24.3-16-1.2-2.9-2.6-5.1-3.8-6.5-2.5-3.1 3.4-2.5 8.1-1.2 21.1.5 50.9-7.7 52.4 25.3.6 13-2.7 28.3-.5 36.2-.8 1.5-6.1.2-7.9 0zM14.1 413.6c-17 7.3-28.8 25.3-33.8 22.4-3-1.7-4.5-6.3-4.5-11.6 0-7.7 3.4-17 10.5-21.3 4.5-4.1 19.5 2.1 25.7 6.6-10.8-2.9-17-1.4-27.8 12.2l2.3-.2c10-12 16.6-12.2 28.2-8.6-.2.2-.3.4-.6.5zM417.2 396.8s.5 0 1.4-.2c.9-.2 20.7 2.7 22.3 2.2 8.9-2.5 39.2.7 37.9 26.2 0 .9.7 1.7.6 2.3 0 .5-.3.8-.9 1-7.3 2.5-21.6-3.3-34.4-9.8 5 1.1 10.9 1.3 17.8-.1l-1.9-1.9c-.2-.4-11.4 4.2-28.6-6.5l-.1 1.7c-1.8-1-3.4-2-4.9-2.8l.6 2.4c14 11.5 53.7 31.1 58.5 17.8.2-.5.4-.7.8-.7.1 0 .1 0 .2.1l.2.2c.1.3.2 1 .1 2-1.6 19.6-42.7 13.5-51.4 8.3-10.9-6.6-16.2-26.2-18.6-35.8-1-4.2-1.7-5.3.4-6.4zM431.2 379.5c7.2.4 14.1.3 19.9-.7 6.3-1.1 11.5-3.2 14.6-6.5l-2.9-.1c-6.4 5.9-28 4.6-35.6 3.5l4 3.8zm-14.3 1.3c2.7-21.7 1.9-32 21.1-40.8 40-18.1 21.9 8.9 4.4 22.7l-.6.5c.9-1.2 1.8-2.5 2.7-3.8 1.7-2.6 6.2-9.9 4-15.2l-1.4 2.9c0 3.1-3 8.2-4.6 10.7-3.4 5.2-7.3 10-8.3 9.9v1.1c-3.6 2.5-6.4 4.3-6.4 4.4h4.6c2.9-2 8.9-5.2 19.2-13.8 7.2-.4 11.5-.1 19.7-8.8l-3.5.8c-1.8 2.7-7.5 5.1-12.7 5.1 9.8-11.7 9.3-11.7 16.5-25.8 2.9-1.2 5.2-2.6 6.6-3.8 3.2-2.6 2.5 3.9 1.1 9-.9 23.2 6.8 56.4-26.3 56.1-13-.1-28.3-4.6-36.2-2.6-1.6-.9-.2-6.7.1-8.6zM403.8 412c0 4.8-.4 9.3-1.5 13.2-1.1 4.2-3 7.5-5.7 9.4l.1-1.9c4.8-4 4.8-18.4 4.3-23.4l2.8 2.7zm1.6-9.4c-16.9.9-24.8 0-32.4 12.4-15.8 25.8 5.9 14.8 17.3 3.8l.4-.4c-1 .6-2 1.1-3 1.6-2.1 1-8 3.8-11.9 2l2.3-.8c2.4.1 6.5-1.7 8.5-2.6 4.2-2 8-4.5 8-5.1h.9c2.1-2.3 3.6-4 3.7-4.1l-.2 3c-1.6 1.8-4.4 5.7-11.5 12.2-.6 4.7-.6 7.6-7.7 12.7l.7-2.3c2.2-1.1 4.2-4.8 4.5-8.2-9.5 6.1-9.4 5.7-20.6 10-1 1.9-2.2 3.3-3.2 4.2-2.1 2 14.9 1.9 17.6 2.1 17 1.4 36.9 1 38-17 .5-8.6-6.5-18.2-4.6-23.5-.8-.8-5.3-.1-6.8 0z"/><path class="st1" d="M512 541.4v-1.5c0-.6.2-1 .5-1.3.3-.3.8-.4 1.3-.4.6 0 1 .1 1.3.4.3.3.5.7.5 1.2v1.5H512v.1zm7.1 6v-1h-3.4v.9c0 .5-.2.9-.5 1.2-.3.3-.8.4-1.3.4-.6 0-1-.1-1.3-.4-.3-.3-.5-.7-.5-1.3v-3.3h7.1v-4.1c0-.6-.2-1.2-.4-1.6-.3-.6-.6-1.1-1.1-1.5-.5-.4-1-.7-1.7-.9-.6-.2-1.3-.3-2.1-.3s-1.5.1-2.1.3c-.6.2-1.2.5-1.7.9s-.8.9-1.1 1.5c-.3.6-.4 1.3-.4 2.2v6.4c0 .9.1 1.6.4 2.2.3.6.6 1.1 1.1 1.5.5.4 1 .7 1.7.9.6.2 1.3.3 2.1.3s1.5-.1 2.1-.3c.6-.2 1.2-.5 1.7-.9s.8-.9 1.1-1.5c.1-.5.2-1 .3-1.6zm-25.5-9.1c.4 0 .7 0 1 .2.3.1.5.3.6.6.1.3.2.6.2 1.1v7.1c0 .5-.1.8-.2 1.1-.1.3-.4.5-.6.6-.3.1-.6.2-1 .2s-.7-.1-1-.2c-.3-.1-.5-.3-.7-.6-.2-.3-.2-.6-.2-1.1v-7.1c0-.5.1-.8.2-1.1.2-.3.4-.5.7-.6.4-.2.7-.2 1-.2zm0-2.8c-1 0-1.9.1-2.6.4-.7.3-1.3.6-1.7 1.1-.4.5-.7 1-.9 1.6-.2.6-.3 1.2-.3 1.9v6.1c0 .7.1 1.3.3 1.9.2.6.5 1.1.9 1.6s1 .8 1.7 1.1c.7.3 1.5.4 2.6.4 1 0 1.8-.1 2.5-.4.7-.3 1.2-.6 1.7-1.1.4-.5.7-1 .9-1.6.2-.6.3-1.2.3-1.9v-6.1c0-.7-.1-1.3-.3-1.9-.2-.6-.5-1.1-.9-1.6s-1-.8-1.7-1.1c-.6-.2-1.5-.4-2.5-.4zm-21.8.4h-3.4v15.3h3.4v-6.7h3.3v6.7h3.4v-15.3h-3.4v5.8h-3.3v-5.8zm-17.2 12.6h-3.9c.2-.4.3-.8.5-1.2.1-.4.3-.8.4-1.3.1-.5.2-1 .2-1.6.1-.6.1-1.4.1-2.3v-3.5h2.8v9.9h-.1zm-7.4 0h-1v6.4h3.2v-3.7h6.6v3.7h3.2v-6.4H458v-12.6h-9.5v5.1c0 1 0 1.9-.1 2.7-.1.8-.1 1.4-.2 2-.1.6-.2 1.1-.4 1.5-.2.4-.4.8-.6 1.3zm-20.5-12.6v15.3h3.4l3.7-9v9h3.4v-15.3h-3.3l-3.7 9.1v-9.1h-3.5zm-19.9 15.3h5.8c.5 0 1.1-.1 1.6-.2.5-.2 1-.4 1.4-.7.4-.3.8-.8 1-1.3.3-.6.4-1.2.4-2 0-.6-.1-1.1-.2-1.6-.1-.4-.3-.8-.6-1.1-.2-.3-.5-.5-.8-.7-.3-.2-.6-.3-.9-.5.3-.1.6-.3.8-.5.3-.2.5-.4.7-.7.2-.3.4-.6.5-1 .1-.4.2-.8.2-1.3 0-.6-.1-1.1-.4-1.6-.2-.5-.6-.8-1-1.1-.4-.3-.9-.5-1.4-.7-.5-.1-1-.2-1.6-.2h-5.7v15.2h.2zm3.4-6.9h1.1c.4 0 .7.1 1.1.2.3.2.6.4.8.7.2.3.3.8.3 1.3 0 .6-.1 1-.3 1.3-.2.3-.5.5-.8.6-.3.1-.7.2-1.1.2h-1.1v-4.3zm0-5.9h.9c.6 0 1.2.1 1.5.4.4.3.5.7.5 1.4 0 .6-.2 1.1-.5 1.3-.4.3-.9.4-1.5.4h-.9v-3.5zm-18.9-2.5h-3.4v15.3h3.4v-4.4l.8-1.6 2.1 5.9h3.8l-3.6-9.1 3.6-6.1h-3.6l-3.2 5.7v-5.7h.1zm-23.6 0v15.3h3.4l3.7-9v9h3.4v-15.3h-3.3l-3.7 9.1v-9.1h-3.5zm-19.4 0v9c0 .9-.1 1.5-.1 2-.1.5-.1.9-.2 1.1-.1.3-.2.4-.4.5-.2.1-.4.1-.6.1h-.3c-.1 0-.3 0-.4-.1v2.5c.2.1.5.1.7.2.2 0 .4.1.6.1h.7c.5 0 1-.1 1.4-.3.4-.2.8-.5 1.1-1 .3-.5.6-1.2.7-2 .2-.9.3-2 .3-3.3v-6.1h2.8v12.6h3.4v-15.3h-9.7zm-17.8 6.9v2.5h7.1v-2.5h-7.1zm-16.3-1.4v-1.5c0-.6.2-1 .5-1.3.3-.3.8-.4 1.3-.4.6 0 1 .1 1.3.4.3.3.5.7.5 1.2v1.5h-3.6v.1zm7.1 2.5v-3.5c0-.9-.1-1.6-.4-2.2-.3-.6-.6-1.1-1.1-1.5-.5-.4-1-.7-1.7-.9-.6-.2-1.3-.3-2.1-.3s-1.5.1-2.1.3c-.6.2-1.2.5-1.7.9s-.8.9-1.1 1.5c-.3.6-.4 1.3-.4 2.2v6.4c0 .9.1 1.6.4 2.2.3.6.6 1.1 1.1 1.5.5.4 1 .7 1.7.9.6.2 1.3.3 2.1.3s1.5-.1 2.1-.3c.6-.2 1.2-.5 1.7-.9s.8-.9 1.1-1.5c.3-.6.4-1.4.4-2.2v-.4h-3.4v.9c0 .5-.2.9-.5 1.2-.3.3-.8.4-1.3.4-.6 0-1-.1-1.3-.4-.3-.3-.5-.7-.5-1.3v-3.3h7zm-25.5-5.6c.4 0 .7 0 1 .2.3.1.5.3.6.6.2.3.2.6.2 1.1v7.1c0 .5-.1.8-.2 1.1-.1.3-.4.5-.6.6-.3.1-.6.2-1 .2s-.7-.1-.9-.2c-.3-.1-.5-.3-.7-.6-.2-.3-.2-.6-.2-1.1v-7.1c0-.5.1-.8.2-1.1.2-.3.4-.5.7-.6.2-.2.6-.2.9-.2zm0-2.8c-1 0-1.9.1-2.6.4-.7.3-1.3.6-1.7 1.1-.4.5-.7 1-.9 1.6-.2.6-.3 1.2-.3 1.9v6.1c0 .7.1 1.3.3 1.9.2.6.5 1.1.9 1.6s1 .8 1.7 1.1c.7.3 1.5.4 2.6.4 1 0 1.8-.1 2.5-.4.7-.3 1.2-.6 1.7-1.1.4-.5.7-1 .9-1.6.2-.6.3-1.2.3-1.9v-6.1c0-.7-.1-1.3-.3-1.9-.2-.6-.5-1.1-.9-1.6s-1-.8-1.7-1.1c-.6-.2-1.5-.4-2.5-.4zm-21.8.4h-3.4v15.3h3.4v-6.7h3.3v6.7h3.4v-15.3h-3.4v5.8H274v-5.8zm-17.3 12.6h-3.9c.2-.4.3-.8.5-1.2.1-.4.3-.8.4-1.3.1-.5.2-1 .2-1.6.1-.6.1-1.4.1-2.3v-3.5h2.8v9.9h-.1zm-7.3 0h-1v6.4h3.2v-3.7h6.6v3.7h3.2v-6.4h-1.3v-12.6h-9.5v5.1c0 1 0 1.9-.1 2.7-.1.8-.1 1.4-.2 2-.1.6-.2 1.1-.4 1.5-.1.4-.3.8-.5 1.3zm-20.5-12.6v15.3h3.4l3.7-9v9h3.4v-15.3h-3.3l-3.7 9.1v-9.1h-3.5zm-20 15.3h5.8c.6 0 1.1-.1 1.6-.2.5-.2 1-.4 1.4-.7.4-.3.8-.8 1-1.3.3-.6.4-1.2.4-2 0-.6-.1-1.1-.2-1.6-.1-.4-.3-.8-.6-1.1-.2-.3-.5-.5-.8-.7-.3-.2-.6-.3-.9-.5.3-.1.5-.3.8-.5.3-.2.5-.4.7-.7.2-.3.4-.6.5-1 .1-.4.2-.8.2-1.3 0-.6-.1-1.1-.4-1.6-.2-.5-.6-.8-1-1.1-.4-.3-.9-.5-1.4-.7-.5-.1-1-.2-1.6-.2h-5.7v15.2h.2zm3.5-6.9h1.1c.4 0 .7.1 1.1.2.3.2.6.4.8.7.2.3.3.8.3 1.3 0 .6-.1 1-.3 1.3-.2.3-.5.5-.8.6-.3.1-.7.2-1.1.2h-1.1v-4.3zm0-5.9h1c.6 0 1.2.1 1.5.4.4.3.5.7.5 1.4 0 .6-.2 1.1-.5 1.3-.4.3-.9.4-1.5.4h-1v-3.5z"/><path class="st0" d="M147.6 453.1h8.6v-8.7h-8.6v8.7zM131.7 453.1h8.6v-8.7h-8.6v8.7z"/></svg>