<svg id="Layer_1" xmlns="http://www.w3.org/2000/svg" viewBox="0 0 566.9 566.9"><style>.st0{fill:#eb6209}</style><path class="st0" d="M157.7 337.1h20.5v16.8h6.5v-39.7h-6.5v16.7h-20.5v-16.7h-6.4v39.7h6.4zM189.9 334.1c0 9.9 6.5 20.5 20.7 20.5s20.7-10.6 20.7-20.5-6.5-20.5-20.7-20.5-20.7 10.6-20.7 20.5zm35 0c0 7.1-4.4 14.3-14.2 14.3s-14.2-7.2-14.2-14.3 4.4-14.3 14.2-14.3 14.2 7.2 14.2 14.3zM268.5 342.6c0-5.6-3.3-8.3-6-9.6 2.4-1.5 4.5-4.1 4.5-8.3 0-6.6-5.2-10.5-13.8-10.5h-16.4v39.7h16.9c3.4 0 14.8-.8 14.8-11.3zm-25.4-22.2h9.6c6.8 0 7.7 2.4 7.7 4.9 0 4.3-4 4.9-6.4 4.9h-10.9v-9.8zm0 27.3v-11.2h10.8c5.6 0 8.1 1.7 8.1 5.6 0 4.7-3.3 5.6-9.3 5.6h-9.6zM292.5 313.6c-14.2 0-20.7 10.6-20.7 20.5s6.5 20.5 20.7 20.5 20.7-10.6 20.7-20.5-6.5-20.5-20.7-20.5zm0 34.7c-9.8 0-14.2-7.2-14.2-14.3s4.4-14.3 14.2-14.3 14.2 7.2 14.2 14.3-4.4 14.3-14.2 14.3zM345.3 314.2h-26.8v39.7h6.5v-33.5h20.3zM355.8 340.5h7.4c14 0 17-7.2 17-13.2 0-10.9-9.2-13.2-17-13.2h-13.9v39.7h6.4v-13.3zm0-20.1h7.6c7.2 0 10.3 2.1 10.3 6.9 0 4.8-3.2 6.9-10.3 6.9h-7.6v-13.8zM410.8 353.9h6.9l-17.2-39.7h-6.3l-17.3 39.7h7l3.9-9.1h19.1l3.9 9.1zm-20.4-15.2l6.9-16.4 7 16.4h-13.9zM455.6 347.7v-33.5h-25.1v1c0 14.3-1.9 25.3-5.8 32.5h-5v15.1h6.2v-8.9h28.2v8.9h6.2v-15.1h-4.7zm-6.5 0h-17.3c2.7-6.1 4.3-14.8 5.1-27.3h12.2v27.3zM157.7 374.4h19.9v33.5h6.4v-39.7h-32.7v39.7h6.4zM204.8 368.2l-17.3 39.7h7l3.9-9.1h19.1l3.9 9.1h6.9L211 368.2h-6.2zm-3.9 24.5l6.9-16.4 7 16.4h-13.9zM263.6 396.6c0-5.6-3.3-8.3-6-9.6 2.4-1.5 4.5-4.1 4.5-8.3 0-6.6-5.2-10.5-13.8-10.5h-16.4v39.7h16.9c3.4 0 14.8-.8 14.8-11.3zm-25.4-22.2h9.6c6.8 0 7.7 2.4 7.7 4.9 0 4.3-4 4.9-6.4 4.9h-10.9v-9.8zm9.6 27.3h-9.5v-11.2H249c5.6 0 8.1 1.7 8.1 5.6 0 4.7-3.3 5.6-9.3 5.6zM277.3 370.8c-1.1 14.6-2.4 31.2-8.2 31.2-1.2 0-1.7-.1-2.3-.3l-1.3-.5v6.3l.6.2c1.2.4 2.4.7 3.7.7 10.6-.1 12.1-16.5 13.7-34h12.6v33.5h6.4v-39.7h-25.1l-.1 2.6zM343.6 407.9v-39.7H338l-21.3 28.3v-28.3h-6.4v39.7h5.6l21.3-28.3v28.3zM378.2 384.9h-20.5v-16.7h-6.4v39.7h6.4v-16.8h20.5v16.8h6.4v-39.7h-6.4zM410.6 367.6c-14.2 0-20.7 10.6-20.7 20.5s6.5 20.5 20.7 20.5 20.7-10.6 20.7-20.5c.1-9.9-6.4-20.5-20.7-20.5zm0 34.7c-9.8 0-14.2-7.2-14.2-14.3s4.4-14.3 14.2-14.3 14.2 7.2 14.2 14.3-4.3 14.3-14.2 14.3zM207.3 202.2c0-17.3 12.3-31.6 28.6-34.8v-50.2h-84.6v169.3h84.6V237c-16.3-3.2-28.6-17.6-28.6-34.8zM249.6 117.1v50.2c16.3 3.2 28.6 17.6 28.6 34.8 0 17.3-12.3 31.6-28.6 34.8v49.4h84.6V117.1h-84.6zM150.6 450l6.6-10.8-6-10.2h3.8l5 8.8h3.2V429h3.4v8.8h3.2l4.9-8.8h3.9l-6.1 10.2 6.6 10.8h-3.8l-5.5-9.1h-3.1v9.1h-3.4v-9.1H160l-5.5 9.1h-3.9zM181.2 450v-14.4h3.2v9.4l7.7-9.4h2.8V450h-3.2v-9.4L184 450h-2.8zM199.1 450.3c-.6 0-1.3-.1-2-.4v-2.5c.3.1.6.2.9.2 2.4 0 3.1-4.8 3.4-11.9h11.1V450h-3.2v-11.7h-4.9c-.4 7-1.4 12-5.3 12zM223.2 435.2c4 0 7.8 2.6 7.8 7.6s-3.8 7.6-7.8 7.6-7.8-2.6-7.8-7.6 3.8-7.6 7.8-7.6zm0 3c-2.7 0-4.6 1.8-4.6 4.6s1.9 4.7 4.6 4.7c2.7 0 4.5-1.8 4.5-4.7.1-2.8-1.8-4.6-4.5-4.6zM234 450v-14.4h3.2v9.4l7.7-9.4h2.8V450h-3.2v-9.4l-7.7 9.4H234zm6.8-16.4c-1.6 0-3.1-.3-4.4-1.2v-2.6c1.5 1 2.9 1.3 4.4 1.3s2.8-.3 4.4-1.3v2.6c-1.3.9-2.8 1.2-4.4 1.2zM258.8 450v-14.4h3.2v5.7h2.4l4.1-5.7h3.7l-5.2 7.1 5.8 7.3H269l-4.7-6H262v6h-3.2zM274.8 450v-14.4h8.2c2.9 0 4.6 1.6 4.6 3.8 0 1.6-.8 2.7-2 3.3 1.4.4 2.5 1.6 2.5 3.3 0 2.2-1.4 4-4.7 4h-8.6zm3.2-8.4h4.3c1.1 0 2-.5 2-1.7 0-1.4-1-1.8-2-1.8H278v3.5zm0 6h4.5c1.3 0 2.3-.5 2.3-1.8 0-1.5-1.1-1.9-2.2-1.9H278v3.7zM304.5 447.7c.3 0 .7-.1 1-.2v2.3c-.6.2-1.3.4-2 .4-1.3 0-2.4-.5-2.9-1.7-1.4 1.1-3.2 1.9-5.4 1.9-2.6 0-5-1.4-5-4.4 0-3.7 3.4-4.8 6.4-4.8 1.2 0 2.6.2 3.8.4v-.5c0-1.8-1.3-3.1-3.8-3.1-2.1 0-3.9.5-5.2 1.1v-2.9c1.1-.4 3.2-1 5.5-1 4.1 0 6.7 1.9 6.7 6.3v5.2c-.2.8.3 1 .9 1zm-11.2-1.9c0 1.4 1.3 2.1 2.7 2.1 1.5 0 3-.6 4.2-1.7v-2.4c-.9-.2-2.1-.4-3.1-.4-1.8 0-3.8.6-3.8 2.4zM316.1 435.2c4.3 0 7.1 3.4 7.1 7.6 0 4.1-2.8 7.6-7.1 7.6-2.5 0-4.2-1.1-5.2-2.3v8.5h-3.2v-21h2.8v2.3c1.2-1.4 2.9-2.7 5.6-2.7zm-.6 2.8c-2.2 0-3.9 1.4-4.6 3v3.5c.7 1.6 2.4 3 4.6 3 2.6 0 4.5-2 4.5-4.8 0-2.7-1.9-4.7-4.5-4.7zM329.3 450v-11.6h-5v-2.8h13.1v2.8h-5V450h-3.1zM353.3 447.7c.3 0 .7-.1 1-.2v2.3c-.6.2-1.3.4-2 .4-1.3 0-2.4-.5-2.9-1.7-1.4 1.1-3.2 1.9-5.4 1.9-2.6 0-5-1.4-5-4.4 0-3.7 3.4-4.8 6.4-4.8 1.2 0 2.6.2 3.8.4v-.5c0-1.8-1.3-3.1-3.8-3.1-2.1 0-3.9.5-5.2 1.1v-2.9c1.1-.4 3.2-1 5.5-1 4.1 0 6.7 1.9 6.7 6.3v5.2c-.2.8.3 1 .9 1zm-11.1-1.9c0 1.4 1.3 2.1 2.7 2.1 1.5 0 3-.6 4.2-1.7v-2.4c-.9-.2-2.1-.4-3.1-.4-1.9 0-3.8.6-3.8 2.4zM357.7 450.3c-.6 0-1.3-.1-2-.4v-2.5c.3.1.6.2.9.2 2.4 0 3.1-4.8 3.4-11.9h11.1V450h-3.2v-11.7H363c-.4 7-1.5 12-5.3 12z"/><text transform="translate(150.44 620.014)" class="st0" font-family="MullerMedium" font-size="30">Жилой квартал</text></svg>