<svg xmlns="http://www.w3.org/2000/svg" width="140.923" height="59.588" viewBox="0 0 3728.6 1576.6" shape-rendering="geometricPrecision" text-rendering="geometricPrecision" image-rendering="optimizeQuality" fill-rule="evenodd" clip-rule="evenodd"><defs><style>.fil0,.fil1,.fil2{fill:#2b2a29;fill-rule:nonzero}.fil1,.fil2{fill:#d52427}.fil2{fill:#006b87}</style></defs><g id="Layer_x0020_1"><g id="_3191658889088"><path class="fil0" d="M882.23 853.93V379.54L628.77 759.06H468.26L218.07 379.54v474.39H28.32V.03h214.29l310.81 534.09L878.96.03h191.38l1.64 853.9zM1261.74.03h189.76V569.3L1925.89.03h189.76v853.9h-189.76V284.66L1451.5 853.93h-189.76z"/><path class="fil1" d="M3728.59 664.18c0 104.8-84.96 189.75-189.76 189.75s-189.76-84.95-189.76-189.75 84.96-189.76 189.76-189.76 189.76 84.96 189.76 189.76z"/><path class="fil2" d="M256.43 1477.42v95.22c-6.72 2.34-14.23 3.93-22.12 3.93-7.89 0-15.81-1.17-22.91-3.93v-54.54H45.07v54.54c-7.13 2.34-14.64 3.55-22.53 3.55-7.92 0-15.81-1.21-22.53-3.55v-95.22h20.95c16.19-10.68 27.25-40.72 32-104.32l10.68-139.46h161.99v243.78h30.8zm-155.65-101.94c-3.17 45.82-11.06 79.03-22.15 101.94h96.81v-206.26h-67.15l-7.51 104.32zM504.58 1233.64c2.38 5.93 3.93 12.23 3.93 18.95 0 7.51-1.17 15.02-3.93 21.74H391.96v79.03h92.84c2.38 6.3 3.97 13.02 3.97 19.74 0 7.1-1.17 14.23-3.97 20.95h-92.84v83.37h116.55c2.37 6.3 3.96 13.02 3.96 19.74 0 7.13-1.17 14.23-3.96 20.94H341.39v-284.46h163.19zM708.84 1233.64c47.4 0 77.45 32.39 77.45 80.2 0 24.88-10.68 45.03-29.25 57.3 23.32 11.85 37.51 33.96 37.51 64.38 0 49.41-33.17 82.58-84.13 82.58H597.43v-284.46h111.41zm-11.47 121.27c25.7 0 37.55-17.78 37.55-41.07 0-24.9-11.85-41.51-37.55-41.51H648v82.58h49.37zm2.37 124.47c28.84 0 42.69-16.19 42.69-43.44 0-29.66-13.85-43.89-42.69-43.89H648v87.33h51.74zM1046.25 1233.64c2.38 5.93 3.96 12.23 3.96 18.95 0 7.51-1.2 15.02-3.96 21.74H933.63v79.03h92.88c2.34 6.3 3.93 13.02 3.93 19.74 0 7.1-1.17 14.23-3.93 20.95h-92.88v83.37h116.58c2.38 6.3 3.93 13.02 3.93 19.74 0 7.13-1.17 14.23-3.93 20.94H883.06v-284.46h163.19zM1118.19 1516.93c-2-6.34-3.17-12.26-3.17-18.19 0-6.3.79-12.23 3.17-18.95 3.54 0 8.26.38 15.4-.79 12.23-2 35.17-20.57 42.65-118.92l9.88-126.44h158.06v280.92s-8.3 3.54-24.9 3.54c-18.57 0-25.67-3.54-25.29-3.54v-242.23h-63.22l-6.72 88.51c-10.64 141.45-56.08 159.23-82.95 159.23-10.27 0-16.99-1.59-22.91-3.14zM1548.06 1229.68c69.53 0 114.18 43.86 114.18 146.18 0 102.35-43.45 146.21-114.18 146.21-70.72 0-114.2-43.86-114.2-146.21 0-101.15 44.65-146.18 114.2-146.18zm0 41.86c-36.34 0-60.84 20.57-60.84 104.32 0 83.37 24.5 104.31 60.84 104.31 37.14 0 60.85-20.94 60.85-104.31 0-83.75-23.71-104.32-60.85-104.32zM1952.66 1514.56s-8.31 3.54-24.88 3.54c-18.57 0-25.7-3.54-25.7-3.54v-237.48h-99.56v237.48s-9.1 3.54-25.29 3.54c-18.19 0-25.28-3.54-25.28-3.54v-280.92h200.71v280.92zM2285.73 1233.64c19.36 0 32.8 3.55 32.8 3.55v277.37s-8.69 3.54-24.91 3.54c-16.19 0-25.67-3.54-25.67-3.54v-86.55c0-43.44-1.58-97.97 2.76-130.77h-2.38c-6.68 24.87-27.63 65.97-43.44 99.98l-27.67 58.05s-5.92 1.99-14.6 1.99c-8.72 0-12.65-1.99-12.65-1.99-9.09-18.57-18.57-37.14-27.66-56.09-16.99-34.38-38.31-77.07-44.65-101.94h-2.38c5.93 27.66 4.76 79.03 4.76 120.89v96.43s-8.3 3.54-23.7 3.54c-13.85 0-22.54-3.54-22.54-3.54v-277.37s12.23-3.55 30.42-3.55c15.03 0 30.05 3.55 30.05 3.55l35.93 72.31c13.06 26.84 27.66 56.88 34 77.41h1.97c3.54-11.43 8.3-25.28 15.81-41.06 17.78-35.97 34.76-72.31 51.36-108.66 10.65-2.38 23.29-3.55 32.39-3.55zM2583.28 1233.64c2.38 5.93 3.96 12.23 3.96 18.95 0 7.51-1.2 15.02-3.96 21.74h-112.62v79.03h92.88c2.34 6.3 3.93 13.02 3.93 19.74 0 7.1-1.17 14.23-3.93 20.95h-92.88v83.37h116.58c2.38 6.3 3.93 13.02 3.93 19.74 0 7.13-1.17 14.23-3.93 20.94h-167.15v-284.46h163.19zM2830.23 1237.19s8.71-3.55 25.28-3.55c16.61 0 25.29 3.55 25.29 3.55v277.37s-8.3 3.54-24.87 3.54c-18.57 0-25.7-3.54-25.7-3.54v-120.51h-104.32v120.51s-9.06 3.54-25.29 3.54c-18.15 0-25.29-3.54-25.29-3.54v-277.37s8.31-3.55 24.91-3.55c16.99 0 25.67 3.55 25.67 3.55v113.38h104.32v-113.38zM3155.03 1233.64s3.93 9.48 3.93 21.33c0 12.64-3.93 22.11-3.93 22.11h-69.94v237.48s-9.09 3.54-25.28 3.54c-18.19 0-25.29-3.54-25.29-3.54v-237.48h-71.93s-3.93-8.3-3.93-21.32c0-12.64 3.93-22.12 3.93-22.12h192.44z"/><path class="fil0" d="M3064.44 664.18V.02h-189.76v664.16h-379.51V.02h-189.76v853.91h664.51v94.88h189.04V664.18z"/></g></g></svg>