<svg xmlns="http://www.w3.org/2000/svg" viewBox="0 0 1000 1000"><path d="M500 509.8c124.6 0 225.7-97.9 225.7-218.6S624.6 72.5 500 72.5s-225.7 97.9-225.7 218.6S375.4 509.8 500 509.8zm-143.8 25.5c-87.4-48.4-146.3-139.7-146.3-244.2C209.9 135.9 339.8 10 500 10c160.2 0 290.1 125.9 290.1 281.1 0 104.6-58.9 195.8-146.3 244.2 113.1 35.6 195 104.9 248.9 198.6 28.2 48.9 46.7 101.1 57.4 153.2 6.5 31.4 8.9 56.2 9.2 71 .4 17.2-13.8 31.5-31.6 31.9-17.8.3-32.5-13.4-32.9-30.6-.1-2.5-.4-7.8-1.1-15.6-1.3-13.3-3.6-28.3-6.9-44.4-9.5-46.1-25.8-92.2-50.4-135-63.8-110.7-171.3-180.7-336.4-192-165.2 11.3-272.7 81.4-336.4 192-24.6 42.8-41 88.9-50.4 135-3.3 16.1-5.5 31.1-6.9 44.4-.8 7.8-1.1 13.1-1.1 15.6-.4 17.2-15.1 30.9-32.9 30.6-17.8-.3-31.9-14.6-31.6-31.9.3-14.8 2.8-39.6 9.2-71 10.7-52.1 29.2-104.3 57.4-153.2 53.9-93.7 135.8-162.9 248.9-198.6z"/></svg>