<svg id="Capa_1" data-name="Capa 1" xmlns="http://www.w3.org/2000/svg" viewBox="0 0 21.6907 13.1436"><defs><style>.cls-1{fill:none;stroke:#b1b1b1;stroke-miterlimit:10;stroke-width:2px}</style></defs><title>VK</title><path class="cls-1" d="M20.03 11.455a26.667 26.667 0 0 0-1.928-1.94c-.59-.575-.626-.908-.153-1.571.517-.724 1.072-1.42 1.594-2.14a7.77 7.77 0 0 0 1.24-2.15c.162-.514.019-.74-.507-.83A1.623 1.623 0 0 0 20 2.808l-3.12-.004a.697.697 0 0 0-.733.503c-.183.46-.372.92-.59 1.364a11.214 11.214 0 0 1-1.827 2.805c-.171.182-.36.412-.647.317-.358-.13-.463-.72-.457-.92l-.003-3.6c-.07-.515-.184-.745-.694-.845l-3.241.001a1.031 1.031 0 0 0-.88.438c-.134.156-.174.257.1.31a1.081 1.081 0 0 1 .92.99 11.06 11.06 0 0 1 .046 2.591 2.41 2.41 0 0 1-.165.74.437.437 0 0 1-.743.219 3.01 3.01 0 0 1-.719-.79 17.413 17.413 0 0 1-1.903-3.528.824.824 0 0 0-.779-.583 79.668 79.668 0 0 0-2.808 0c-.563.011-.731.285-.502.795a34.851 34.851 0 0 0 3.636 6.481 9.053 9.053 0 0 0 2.761 2.586 7.345 7.345 0 0 0 4.105.883c.678-.032.882-.209.914-.885a2.996 2.996 0 0 1 .302-1.339.6.6 0 0 1 .954-.232 2.707 2.707 0 0 1 .516.46c.382.418.75.849 1.147 1.252a2.218 2.218 0 0 0 1.827.744l2.868.001c.462-.03.702-.597.436-1.112a5.521 5.521 0 0 0-.69-.995z" transform="translate(-.156 -1.429)"/></svg>