<svg width="90" height="90" viewBox="0 0 90 90" fill="none" xmlns="http://www.w3.org/2000/svg">
<path fill-rule="evenodd" clip-rule="evenodd" d="M45 0C20.1188 0 0 20.1188 0 45C0 69.8812 20.1188 90 45 90C69.8812 90 90 69.8812 90 45C90 20.1188 69.8812 0 45 0Z" fill="white"/>
<path d="M68.6457 54.7408C60.4949 60.9503 51.8386 61.5775 47.858 55.0544C52.2177 73.3692 70.478 66.7207 82.7358 51.9183C74.7746 51.9183 66.8765 41.8201 58.9153 41.6946C51.3331 41.6319 39.2649 48.5313 44.5092 73.7455" stroke="#941D76" stroke-width="2.5" stroke-miterlimit="22.9256" stroke-linecap="round" stroke-linejoin="round"/>
<path d="M36.8643 24.7598C48.0479 36.6769 33.705 53.4237 39.7707 73.7456" stroke="#941D76" stroke-width="2.5" stroke-miterlimit="22.9256" stroke-linecap="round" stroke-linejoin="round"/>
<path d="M31.936 24.7598C43.1197 36.6769 28.7768 53.4237 34.8425 73.7456" stroke="#941D76" stroke-width="2.5" stroke-miterlimit="22.9256" stroke-linecap="round" stroke-linejoin="round"/>
<path d="M47.3528 37.1786C44.32 31.22 46.5314 26.7041 50.0698 24.6342C59.6106 19.052 66.3082 32.4745 58.3469 35.9869C52.3444 38.6839 48.2374 31.7845 52.4708 28.1467C53.924 26.8922 56.7673 27.0804 57.2096 29.652" stroke="#941D76" stroke-width="2.5" stroke-miterlimit="22.9256" stroke-linecap="round" stroke-linejoin="round"/>
<path d="M29.9139 48.155C30.7985 45.1444 31.4303 41.8201 31.4303 38.684C31.3672 23.3171 14.0546 21.1219 10.7058 31.471C9.37896 35.6106 10.9586 40.4402 16.3924 41.6319C24.796 43.4509 27.7025 32.0355 20.4362 30.4674" stroke="#941D76" stroke-width="2.5" stroke-miterlimit="22.9256" stroke-linecap="round" stroke-linejoin="round"/>
</svg>
