<svg width="90" height="90" viewBox="0 0 90 90" fill="none" xmlns="http://www.w3.org/2000/svg">
<path fill-rule="evenodd" clip-rule="evenodd" d="M44.9502 0C20.1392 0 0 20.1392 0 44.9502C0 69.7612 20.1392 89.9004 44.9502 89.9004C69.7612 89.9004 89.9004 69.7612 89.9004 44.9502C89.9636 20.1392 69.8244 0 44.9502 0Z" fill="white"/>
<path d="M44.9325 28.9999C46.0261 42.6005 33.4496 51.0569 41.9934 70.9999" stroke="#C1272D" stroke-width="2.5" stroke-miterlimit="22.9256" stroke-linecap="round" stroke-linejoin="round"/>
<path d="M41.0005 17.9999C42.3907 20.0929 43.342 22.1162 44.0005 23.9999" stroke="#C1272D" stroke-width="2.5" stroke-miterlimit="22.9256" stroke-linecap="round" stroke-linejoin="round"/>
<path d="M47.9454 17.9999C60.6948 39.4091 38.3322 46.2433 48.9681 70.9999" stroke="#C1272D" stroke-width="2.5" stroke-miterlimit="22.9256" stroke-linecap="round" stroke-linejoin="round"/>
<path d="M57.0005 20.9999C57.4353 22.0554 57.7396 23.0554 58.0005 23.9999" stroke="#C1272D" stroke-width="2.5" stroke-miterlimit="22.9256" stroke-linecap="round" stroke-linejoin="round"/>
<path d="M56.595 44.9999C54.1623 51.9891 52.0675 59.6074 57.0005 70.9999" stroke="#C1272D" stroke-width="2.5" stroke-miterlimit="22.9256" stroke-linecap="round" stroke-linejoin="round"/>
<path d="M59.0005 31.9999C58.8641 34.4499 58.5005 36.6899 58.0005 38.9999" stroke="#C1272D" stroke-width="2.5" stroke-miterlimit="22.9256" stroke-linecap="round" stroke-linejoin="round"/>
<path d="M38.5747 26.9999C38.8586 28.4414 39.0005 30.0202 39.0005 31.8735C39.0005 32.8345 38.9295 33.7269 38.7876 34.6879C37.8651 41.0716 34.2459 47.9359 33.1815 53.2214C32.3299 48.4164 29.1366 46.3571 26.5819 42.4445C24.5949 47.7986 22.466 59.8111 33.8202 70.9999" stroke="#C1272D" stroke-width="2.5" stroke-miterlimit="22.9256" stroke-linecap="round" stroke-linejoin="round"/>
</svg>
