<svg width="90" height="90" viewBox="0 0 90 90" fill="none" xmlns="http://www.w3.org/2000/svg">
<path fill-rule="evenodd" clip-rule="evenodd" d="M44.9502 0C20.1392 0 0 20.1392 0 44.9502C0 69.7612 20.1392 89.9004 44.9502 89.9004C69.7612 89.9004 89.9004 69.7612 89.9004 44.9502C89.9636 20.1392 69.8244 0 44.9502 0Z" fill="white"/>
<path d="M21.7829 37.6963C22.6513 39.9814 25.2567 41.181 27.6304 40.267C30.641 39.1245 32.2042 35.8112 31.0463 32.8406C29.541 28.956 25.1409 27.0137 21.2039 28.499C16.1091 30.3842 13.9669 35.8683 15.4722 41.0096C17.267 47.1221 23.925 51.4066 32.841 48.4932C41.1781 45.7511 49.0519 45.7511 55.3047 48.4932C63.0628 51.9207 70.0682 51.7494 78 48.4932" stroke="#2169DB" stroke-width="2.5" stroke-miterlimit="22.9256" stroke-linecap="round" stroke-linejoin="round"/>
<path d="M77 54.279C69.2253 57.8134 62.3586 57.9994 54.7541 54.279C48.6251 51.3027 40.9071 51.1786 32.7352 54.279C25.3577 57.0693 17.9235 57.5654 11 54.403" stroke="#2169DB" stroke-width="2.5" stroke-miterlimit="22.9256" stroke-linecap="round" stroke-linejoin="round"/>
<path d="M77 59.6868C69.1171 62.6915 62.1548 62.8496 54.4444 59.6868C52.4306 58.8961 50.3016 58.3163 48 58" stroke="#2169DB" stroke-width="2.5" stroke-miterlimit="22.9256" stroke-linecap="round" stroke-linejoin="round"/>
<path d="M55 43C49.9057 40.8128 43.6792 40.3754 37 41.9064" stroke="#2169DB" stroke-width="2.5" stroke-miterlimit="22.9256" stroke-linecap="round" stroke-linejoin="round"/>
<path d="M34.2443 31C36.9926 31 39.6187 32.5838 40.657 35.2236C41.6952 37.8046 40.2905 40.7376 37.6033 41.7349C36.3819 42.2041 35.0382 42.0282 34 41.3829" stroke="#2169DB" stroke-width="2.5" stroke-miterlimit="22.9256" stroke-linecap="round" stroke-linejoin="round"/>
</svg>
