<svg width="90" height="90" viewBox="0 0 90 90" fill="none" xmlns="http://www.w3.org/2000/svg">
<path fill-rule="evenodd" clip-rule="evenodd" d="M44.9502 0C20.0965 0 0 20.0965 0 44.9502C0 69.8039 20.0965 89.9004 44.9502 89.9004C69.8039 89.9004 89.9004 69.8039 89.9004 44.9502C89.9004 20.0965 69.8039 0 44.9502 0Z" fill="white"/>
<path d="M19.9028 40.0961C45.0478 46.1153 52.232 34.6593 52.4262 26.6984C52.9116 10.291 31.9413 11.1648 31.9413 23.8829C31.9413 34.271 46.2128 34.1739 46.1157 26.2129C46.0186 21.2616 38.9314 20.3879 38.9314 26.7954" stroke="#E0975F" stroke-width="2.5" stroke-miterlimit="22.9256" stroke-linecap="round" stroke-linejoin="round"/>
<path d="M68.7358 49.1249C57.0856 37.6689 39.9016 51.4549 19.708 44.756" stroke="#E0975F" stroke-width="2.5" stroke-miterlimit="22.9256" stroke-linecap="round" stroke-linejoin="round"/>
<path d="M68.6386 54.0762C56.9885 42.6202 39.8045 56.4062 19.6108 49.7073" stroke="#E0975F" stroke-width="2.5" stroke-miterlimit="22.9256" stroke-linecap="round" stroke-linejoin="round"/>
<path d="M53.9791 55.1442C64.4642 53.4938 68.3476 60.7751 68.2505 66.0177C67.9593 76.8912 51.7461 77.3766 51.8432 66.9886C51.8432 59.3189 61.4546 59.0276 62.9109 64.076C63.4934 66.2119 62.7167 68.8332 59.61 69.0273" stroke="#E0975F" stroke-width="2.5" stroke-miterlimit="22.9256" stroke-linecap="round" stroke-linejoin="round"/>
</svg>
