<svg width="90" height="90" viewBox="0 0 90 90" fill="none" xmlns="http://www.w3.org/2000/svg">
<path fill-rule="evenodd" clip-rule="evenodd" d="M44.9502 0C20.0965 0 0 20.0965 0 44.9502C0 69.8039 20.0965 89.9004 44.9502 89.9004C69.8039 89.9004 89.9004 69.8039 89.9004 44.9502C89.9004 20.0965 69.8039 0 44.9502 0Z" fill="white"/>
<path d="M46.4067 49.7074C42.9117 67.571 25.1452 61.843 12.8154 47.9599C20.388 47.5715 27.6694 37.5718 35.242 37.1835C42.5234 36.7951 54.3677 43.0086 50.193 67.6681" stroke="#5B8C42" stroke-width="2.5" stroke-miterlimit="22.9256" stroke-linecap="round" stroke-linejoin="round"/>
<path d="M46.4067 49.7074C42.8145 56.2121 34.4653 55.9208 26.4072 50.1928" stroke="#5B8C42" stroke-width="2.5" stroke-miterlimit="22.9256" stroke-linecap="round" stroke-linejoin="round"/>
<path d="M55.824 19.9995C45.533 31.9409 59.9016 47.6687 54.8532 67.4739" stroke="#5B8C42" stroke-width="2.5" stroke-miterlimit="22.9256" stroke-linecap="round" stroke-linejoin="round"/>
<path d="M60.5809 19.8052C50.2899 31.7466 64.6584 47.4743 59.61 67.2796" stroke="#5B8C42" stroke-width="2.5" stroke-miterlimit="22.9256" stroke-linecap="round" stroke-linejoin="round"/>
<path d="M65.338 19.6111C59.8042 26.0187 61.4546 33.5913 63.2993 42.2318" stroke="#5B8C42" stroke-width="2.5" stroke-miterlimit="22.9256" stroke-linecap="round" stroke-linejoin="round"/>
</svg>
