<svg id="Слой_1" data-name="Слой 1" xmlns="http://www.w3.org/2000/svg" viewBox="0 0 464.02393 54.1701"><defs><style>.cls-1{fill:#006681;}.cls-2{fill:#1d1d1b;}.cls-3{fill:#c32e26;}</style></defs><title>всё-по-твоему</title><path class="cls-1" d="M895.89124,1104.51642a2.75647,2.75647,0,0,0-1.09034-2.38306,5.82665,5.82665,0,0,0-3.40185-.794h-6.67188v6.21722h6.49q4.67248,0,4.67408-3.04016Zm-11.16407-6.94287H890.672q4.40148,0,4.40307-3.04016,0-2.95047-4.40307-2.95093h-5.94483v5.99109Zm16.65381,7.306a5.842,5.842,0,0,1-2.45,5.03692q-2.45087,1.77009-7.261,1.77H879.32715v-24.23285h11.844a12.60627,12.60627,0,0,1,6.943,1.63306,5.21977,5.21977,0,0,1,2.49585,4.62891,5.37872,5.37872,0,0,1-.97486,3.22192,6.45973,6.45973,0,0,1-2.74621,2.13391q4.49267,1.36065,4.49206,5.80817Zm-5.63977-.3631a3.16731,3.16731,0,0,0-.2583-1.32776,2.35492,2.35492,0,0,0-.7699-.93457,3.68911,3.68911,0,0,0-1.34216-.57007,8.76988,8.76988,0,0,0-1.9718-.1947H884.8772v5.9173h6.34a6.36747,6.36747,0,0,0,3.42395-.7356,2.39774,2.39774,0,0,0,1.1001-2.1546Zm.01331-1.45191a3.45792,3.45792,0,0,1,.28662,1.45191,2.68,2.68,0,0,1-1.23731,2.40521,6.63974,6.63974,0,0,1-3.58667.78491h-6.63989v-6.51715h6.82178a9.05186,9.05186,0,0,1,2.03979.2027,3.97765,3.97765,0,0,1,1.44995.62048,2.64748,2.64748,0,0,1,.86573,1.05194Zm-10.87732-5.64093h5.7948a5.70016,5.70016,0,0,0,3.21679-.73333,2.44644,2.44644,0,0,0,1.03638-2.15686,2.34605,2.34605,0,0,0-1.03418-2.08887,5.84437,5.84437,0,0,0-3.219-.7121h-5.7948v5.69116Zm5.7948.29987h-6.09473v-6.29089H890.672a6.12032,6.12032,0,0,1,3.38525.76355,2.629,2.629,0,0,1,1.16773,2.33728,2.72777,2.72777,0,0,1-1.16614,2.40283,5.97414,5.97414,0,0,1-3.38684.78723Zm10.85913,7.15607a6.68179,6.68179,0,0,1-.62781,2.9577,5.85749,5.85749,0,0,1-1.885,2.20044,8.77493,8.77493,0,0,1-3.09289,1.35138,18.08828,18.08828,0,0,1-4.25538.44726H879.17737v-24.53277h11.99377a17.53272,17.53272,0,0,1,3.99378.41223,9.43139,9.43139,0,0,1,3.03112,1.24554,5.36964,5.36964,0,0,1,2.56385,4.75422,6.12,6.12,0,0,1-.25,1.77966,5.17178,5.17178,0,0,1-.75342,1.52954,6.01543,6.01543,0,0,1-1.2041,1.2453,7.21871,7.21871,0,0,1-1.25354.77637,6.40565,6.40565,0,0,1,3.07776,2.06591,5.9784,5.9784,0,0,1,1.15454,3.76722Zm-.8971,2.82782a6.39347,6.39347,0,0,0,.597-2.82782,5.68815,5.68815,0,0,0-1.09107-3.58466,6.33127,6.33127,0,0,0-3.29443-2.08008l-.38916-.11767.37268-.163a7.16628,7.16628,0,0,0,1.53955-.90063,5.72129,5.72129,0,0,0,1.14514-1.18347,4.86792,4.86792,0,0,0,.70923-1.44165,5.82522,5.82522,0,0,0,.23706-1.69287,5.06926,5.06926,0,0,0-2.428-4.50361,9.135,9.135,0,0,0-2.93518-1.20416,17.23934,17.23934,0,0,0-3.92578-.40423h-11.694v23.93292H891.67a17.79654,17.79654,0,0,0,4.18506-.43775,8.48219,8.48219,0,0,0,2.98865-1.30359,5.562,5.562,0,0,0,1.79028-2.08776Zm10.14075,2.70849a11.65379,11.65379,0,0,1-4.67493-4.42517,13.07927,13.07927,0,0,1,0-12.81885,11.741,11.741,0,0,1,4.65308-4.40185,14.16063,14.16063,0,0,1,6.78381-1.588,13.061,13.061,0,0,1,6.285,1.4519,9.41984,9.41984,0,0,1,4.06115,4.17493l-4.356,2.54089a6.92578,6.92578,0,0,0-2.609-2.5188,7.61335,7.61335,0,0,0-8.691,1.226,8.35672,8.35672,0,0,0-.0221,11.0271,7.65422,7.65422,0,0,0,8.71314,1.22486,6.91131,6.91131,0,0,0,2.609-2.51886l4.356,2.54181a9.8084,9.8084,0,0,1-4.10693,4.19726,12.79863,12.79863,0,0,1-6.23926,1.47486,14.194,14.194,0,0,1-6.762-1.588Zm-.07031.13208a12.24165,12.24165,0,0,1-2.69873-1.92383,11.70347,11.70347,0,0,1-2.03491-2.55712,11.8687,11.8687,0,0,1-1.27417-3.06086,14.07788,14.07788,0,0,1,0-6.86547,11.83515,11.83515,0,0,1,3.303-5.58429,12.33878,12.33878,0,0,1,2.683-1.91822,13.12453,13.12453,0,0,1,3.21679-1.205,15.92231,15.92231,0,0,1,3.63733-.40113,15.07058,15.07058,0,0,1,3.399.36707,11.82443,11.82443,0,0,1,2.95679,1.1029,9.79616,9.79616,0,0,1,2.40124,1.79688,9.693,9.693,0,0,1,1.72266,2.443l.063.12586-4.60266,2.68469-.07679-.12366a7.46607,7.46607,0,0,0-1.15087-1.44049,6.323,6.323,0,0,0-1.4021-1.02557,6.80808,6.80808,0,0,0-1.60376-.61658,7.34652,7.34652,0,0,0-1.75245-.2052,7.74145,7.74145,0,0,0-2.85.50623,6.76848,6.76848,0,0,0-2.30847,1.51574,6.53314,6.53314,0,0,0-1.531,2.35755,8.55819,8.55819,0,0,0-.51245,3.04944,8.64984,8.64984,0,0,0,.50647,3.05041,6.54538,6.54538,0,0,0,1.51538,2.35761,6.63455,6.63455,0,0,0,2.30151,1.51483,7.858,7.858,0,0,0,2.87854.50512,7.35781,7.35781,0,0,0,1.7533-.205,6.80666,6.80666,0,0,0,1.60291-.616,6.274,6.274,0,0,0,1.4021-1.025,7.47776,7.47776,0,0,0,1.15087-1.4411l.07715-.1236,4.60425,2.6864-.06555.12671a9.96025,9.96025,0,0,1-4.16858,4.25989,11.74367,11.74367,0,0,1-2.9469,1.12109,14.595,14.595,0,0,1-3.36365.3725,15.751,15.751,0,0,1-3.60815-.40058,13.33715,13.33715,0,0,1-3.22412-1.20532Zm-2.49365-2.14038a11.94864,11.94864,0,0,0,2.63378,1.876,13.05691,13.05691,0,0,0,3.1521,1.17779,15.45778,15.45778,0,0,0,3.54.39258,14.30422,14.30422,0,0,0,3.29566-.36456,11.43855,11.43855,0,0,0,2.87207-1.09155,9.6631,9.6631,0,0,0,3.97925-4.00855l-4.10767-2.397a7.70418,7.70418,0,0,1-1.11951,1.37512,6.568,6.568,0,0,1-1.46777,1.07288,7.08379,7.08379,0,0,1-1.67432.64294,7.64463,7.64463,0,0,1-1.82361.2146,8.157,8.157,0,0,1-2.9873-.52612,6.94234,6.94234,0,0,1-2.40442-1.582,6.83392,6.83392,0,0,1-1.58374-2.465,8.93882,8.93882,0,0,1-.52624-3.15472,8.84928,8.84928,0,0,1,.53222-3.15491,6.82742,6.82742,0,0,1,1.6001-2.46411,7.07118,7.07118,0,0,1,2.41064-1.58258,8.03578,8.03578,0,0,1,2.95874-.52729,7.63607,7.63607,0,0,1,1.82276.21485,7.10937,7.10937,0,0,1,1.67517.64319,6.61521,6.61521,0,0,1,1.46777,1.07379,7.681,7.681,0,0,1,1.11951,1.37481l4.10986-2.39727a9.34949,9.34949,0,0,0-1.60632-2.24286,9.495,9.495,0,0,0-2.32874-1.74182,11.51817,11.51817,0,0,0-2.88195-1.07459,14.76876,14.76876,0,0,0-3.33216-.35913,15.63626,15.63626,0,0,0-3.56933.39313,12.83537,12.83537,0,0,0-3.14417,1.17669,12.03354,12.03354,0,0,0-2.61828,1.87116,11.55413,11.55413,0,0,0-3.21912,5.44244,13.81923,13.81923,0,0,0,0,6.71588,11.57254,11.57254,0,0,0,1.243,2.98322,11.40859,11.40859,0,0,0,1.98194,2.493Zm36.14514-25.5376a2.63936,2.63936,0,0,1-.771-1.95111,2.69757,2.69757,0,0,1,.771-1.997,2.8515,2.8515,0,0,1,3.90185,0,2.698,2.698,0,0,1,.77234,1.997,2.7605,2.7605,0,0,1-4.67419,1.95111ZM937.436,1093.33a6.77777,6.77777,0,0,0-2.29212,4.288h13.75a6.68925,6.68925,0,0,0-2.224-4.26617,6.76493,6.76493,0,0,0-4.62793-1.63306,6.846,6.846,0,0,0-4.606,1.61121Zm-1.88306-10.46009a2.63936,2.63936,0,0,1-.771-1.95111,2.69757,2.69757,0,0,1,.771-1.997,2.85289,2.85289,0,0,1,3.90295,0,2.70531,2.70531,0,0,1,.77112,1.997,2.76041,2.76041,0,0,1-4.67407,1.95111Zm18.65124,18.515h-19.0144a6.58237,6.58237,0,0,0,2.609,4.24292,8.55307,8.55307,0,0,0,5.24133,1.56616,8.83611,8.83611,0,0,0,6.58081-2.63318l3.03992,3.49512a10.24137,10.24137,0,0,1-4.12879,2.95007,16.37189,16.37189,0,0,1-12.6621-.59021,11.43439,11.43439,0,0,1-4.69715-4.4248,12.501,12.501,0,0,1-1.656-6.42114,12.67829,12.67829,0,0,1,1.6101-6.376,11.45054,11.45054,0,0,1,4.47107-4.42517,13.0521,13.0521,0,0,1,6.444-1.58679,12.71372,12.71372,0,0,1,6.33093,1.56506,11.10233,11.10233,0,0,1,4.356,4.401,13.35728,13.35728,0,0,1,1.56507,6.558q0,.58915-.08973,1.6789Zm-9.95373-18.409a2.69106,2.69106,0,0,1-.61231-.92413,3.05563,3.05563,0,0,1-.20324-1.133,3.21764,3.21764,0,0,1,.203-1.1662,2.67279,2.67279,0,0,1,.61194-.93627,2.70682,2.70682,0,0,1,.92419-.61255,3.25313,3.25313,0,0,1,2.266-.00025,2.76422,2.76422,0,0,1,1.53638,1.54907,3.21234,3.21234,0,0,1,.20349,1.1662,3.05546,3.05546,0,0,1-.20349,1.133,2.79219,2.79219,0,0,1-1.53528,1.53577,3.26543,3.26543,0,0,1-2.26709.00036,2.69621,2.69621,0,0,1-.92358-.612Zm-.33362-1.03387a2.48053,2.48053,0,0,0,1.36719,1.36694,2.96625,2.96625,0,0,0,2.04712-.00037,2.48383,2.48383,0,0,0,1.36633-1.36676,2.75829,2.75829,0,0,0,.18249-1.02307,2.91324,2.91324,0,0,0-.18249-1.05841,2.46093,2.46093,0,0,0-1.36743-1.37793,2.96049,2.96049,0,0,0-2.046-.00036,2.41224,2.41224,0,0,0-.82215.54516,2.3657,2.3657,0,0,0-.545.83252,2.92551,2.92551,0,0,0-.182,1.059,2.77056,2.77056,0,0,0,.182,1.02326Zm-6.38367,11.50165a6.31115,6.31115,0,0,0-1.47937,1.83319,7.23458,7.23458,0,0,0-.73327,2.19116h13.3999a7.02964,7.02964,0,0,0-.69653-2.16284,6.33328,6.33328,0,0,0-1.4524-1.84082,6.18344,6.18344,0,0,0-2.03894-1.19593,7.9269,7.9269,0,0,0-4.95361-.00567,6.34924,6.34924,0,0,0-2.04578,1.18091Zm-1.743,1.69256a6.73729,6.73729,0,0,1,3.69019-3.15582,8.21406,8.21406,0,0,1,5.1521.00568,6.48061,6.48061,0,0,1,2.13574,1.25317,6.62517,6.62517,0,0,1,1.52112,1.92761,7.42564,7.42564,0,0,1,.75293,2.43128l.02343.1698H934.96936l.02625-.17237a7.6179,7.6179,0,0,1,.79455-2.45935Zm-.34265-12.16034a2.69089,2.69089,0,0,1-.6123-.92413,3.05543,3.05543,0,0,1-.20325-1.133,3.21764,3.21764,0,0,1,.203-1.1662,2.67112,2.67112,0,0,1,.61194-.93627,2.7075,2.7075,0,0,1,.92407-.61255,3.24365,3.24365,0,0,1,2.26489.00061,2.74776,2.74776,0,0,1,1.5376,1.54821,3.2202,3.2202,0,0,1,.20349,1.1662,3.05569,3.05569,0,0,1-.20324,1.13214,2.778,2.778,0,0,1-1.53748,1.53663,3.26033,3.26033,0,0,1-2.26526.00036,2.69688,2.69688,0,0,1-.92346-.612Zm-.33362-1.03387a2.48081,2.48081,0,0,0,1.36707,1.36694,2.96393,2.96393,0,0,0,2.04529,0,2.47166,2.47166,0,0,0,1.36853-1.368,2.76351,2.76351,0,0,0,.18225-1.02216,2.91974,2.91974,0,0,0-.1825-1.05841,2.39333,2.39333,0,0,0-.54407-.83258,2.4207,2.4207,0,0,0-.82421-.5451,2.95654,2.95654,0,0,0-2.04529-.00061,2.41117,2.41117,0,0,0-.8219.54516,2.3644,2.3644,0,0,0-.54517.83252,2.92551,2.92551,0,0,0-.182,1.059,2.77056,2.77056,0,0,0,.182,1.02326Zm19.09033,19.59277H935.372a6.75269,6.75269,0,0,0,.8468,2.17169,6.4147,6.4147,0,0,0,1.66907,1.80115,7.43133,7.43133,0,0,0,2.31933,1.15143,9.87033,9.87033,0,0,0,2.833.38489,9.57093,9.57093,0,0,0,3.58582-.64746,8.38845,8.38845,0,0,0,2.88842-1.9405l.11365-.11541q1.615,1.85642,3.22986,3.71313l-.08228.09839a10.075,10.075,0,0,1-1.87731,1.73926,10.95061,10.95061,0,0,1-2.3108,1.25354,13.56589,13.56589,0,0,1-2.68469.75744,18.06,18.06,0,0,1-6.78674-.14941,13.57838,13.57838,0,0,1-3.31543-1.20471,12.16182,12.16182,0,0,1-2.728-1.92359,11.369,11.369,0,0,1-2.0293-2.558,11.98566,11.98566,0,0,1-1.25695-3.06232,13.711,13.711,0,0,1-.41944-3.4345,13.85626,13.85626,0,0,1,.407-3.40009,12.17564,12.17564,0,0,1,1.2229-3.0495,11.59725,11.59725,0,0,1,4.52856-4.48218,12.44666,12.44666,0,0,1,3.07739-1.20471,14.34367,14.34367,0,0,1,3.43921-.40137,14.087,14.087,0,0,1,3.38831.39569,12.03081,12.03081,0,0,1,3.01574,1.18854,11.30825,11.30825,0,0,1,2.51636,1.90808,11.53929,11.53929,0,0,1,1.89771,2.5517,12.28428,12.28428,0,0,1,1.18835,3.0954,15.22771,15.22771,0,0,1,.39551,3.5346c0,.19416-.00806.43537-.023.72223q-.02307.43066-.06763.96827l-.01123.1383Zm-19.0144-.2998H954.066q.037-.466.05615-.82209.02124-.409.02173-.70691a14.88713,14.88713,0,0,0-.3866-3.46539,12.0118,12.0118,0,0,0-1.15966-3.02063,11.236,11.236,0,0,0-1.84729-2.4848,11.00627,11.00627,0,0,0-2.45057-1.85754,11.74014,11.74014,0,0,0-2.94079-1.15973,13.80043,13.80043,0,0,0-3.317-.386,14.05186,14.05186,0,0,0-3.3678.39172,12.13866,12.13866,0,0,0-3.00366,1.17585,11.29911,11.29911,0,0,0-4.41345,4.36816,11.87634,11.87634,0,0,0-1.19287,2.97467,13.5607,13.5607,0,0,0-.39734,3.32752,13.40994,13.40994,0,0,0,.40869,3.36084,11.67991,11.67991,0,0,0,1.22681,2.98461,11.08455,11.08455,0,0,0,1.97546,2.49164,11.86744,11.86744,0,0,0,2.66126,1.87653,13.26941,13.26941,0,0,0,3.24279,1.17749,17.77765,17.77765,0,0,0,6.66932.146,13.28424,13.28424,0,0,0,2.62524-.73986,10.6565,10.6565,0,0,0,2.24841-1.21942,9.78089,9.78089,0,0,0,1.73841-1.59028l-2.8501-3.2771a8.65542,8.65542,0,0,1-2.8761,1.894,9.86586,9.86586,0,0,1-3.6969.66955,10.16194,10.16194,0,0,1-2.91858-.398,7.7213,7.7213,0,0,1-2.41174-1.19793,6.7152,6.7152,0,0,1-1.74609-1.88446,7.12247,7.12247,0,0,1-.921-2.45166l-.03283-.17688Zm59.26562-13.78211v24.23316h-5.6267v-19.42225H976.89343v19.42225h-5.67187v-24.23316Zm.15,0v24.38312h-5.92676v-19.42218H977.04333v19.42218h-5.97167v-24.533h23.53381v.1499Zm-.29993,24.08319V1087.603H971.3717v23.93316h5.37183V1092.114h12.23511v19.42218Zm22.8844-6.47577a8.39985,8.39985,0,0,0,0-10.98108,6.9293,6.9293,0,0,0-5.173-2.088,6.85389,6.85389,0,0,0-5.15,2.088,8.47224,8.47224,0,0,0,0,10.98108,6.84981,6.84981,0,0,0,5.15,2.088,6.92515,6.92515,0,0,0,5.173-2.088Zm-11.79895,5.355a11.55593,11.55593,0,0,1-4.60474-4.42407,13.22432,13.22432,0,0,1,0-12.81994,11.61664,11.61664,0,0,1,4.60474-4.40192,14.71146,14.71146,0,0,1,13.297,0,11.62892,11.62892,0,0,1,4.60608,4.40192,13.22767,13.22767,0,0,1,0,12.81994,11.568,11.568,0,0,1-4.60608,4.42407,14.71187,14.71187,0,0,1-13.297,0Zm11.692-5.45953a6.67119,6.67119,0,0,0,1.499-2.36414,9.36651,9.36651,0,0,0,0-6.04376,6.66514,6.66514,0,0,0-1.4989-2.36377,6.59461,6.59461,0,0,0-2.26294-1.53186,7.9274,7.9274,0,0,0-5.60046,0,6.49362,6.49362,0,0,0-2.245,1.5307,6.67088,6.67088,0,0,0-1.4823,2.36383,9.46893,9.46893,0,0,0,.00025,6.04651,6.66772,6.66772,0,0,0,1.48144,2.36273,6.48515,6.48515,0,0,0,2.24475,1.53132,7.93263,7.93263,0,0,0,5.602,0,6.58393,6.58393,0,0,0,2.26209-1.53156Zm1.77917-2.25983a6.977,6.977,0,0,1-1.56518,2.46875,6.88881,6.88881,0,0,1-2.36487,1.60041,8.2226,8.2226,0,0,1-5.82556,0,6.77949,6.77949,0,0,1-2.34717-1.601,6.97128,6.97128,0,0,1-1.54785-2.46753,9.76042,9.76042,0,0,1-.00025-6.25293,6.96823,6.96823,0,0,1,1.5481-2.46814,6.78791,6.78791,0,0,1,2.348-1.601,8.21793,8.21793,0,0,1,5.82385,0,6.89139,6.89139,0,0,1,2.36573,1.6004,6.9665,6.9665,0,0,1,1.56518,2.46875,9.64594,9.64594,0,0,1,0,6.25232Zm-13.54211,7.85114a12.06763,12.06763,0,0,1-2.65882-1.92328,11.70716,11.70716,0,0,1-2.00488-2.55743,11.95816,11.95816,0,0,1-1.25757-3.06,14.25608,14.25608,0,0,1-.00061-6.86578,11.85512,11.85512,0,0,1,3.26331-5.58454,12.20023,12.20023,0,0,1,2.65857-1.91852,13.0751,13.0751,0,0,1,3.16736-1.20416,15.10677,15.10677,0,0,1,3.52954-.402,15.34257,15.34257,0,0,1,3.56286.40088,13.03385,13.03385,0,0,1,3.17908,1.20526,12.198,12.198,0,0,1,2.65881,1.91852,11.84665,11.84665,0,0,1,3.26355,5.58454,14.24792,14.24792,0,0,1,0,6.86431,11.96694,11.96694,0,0,1-1.25756,3.062,11.71753,11.71753,0,0,1-2.006,2.55712,12.06452,12.06452,0,0,1-2.65881,1.923,13.01542,13.01542,0,0,1-3.17908,1.20587,15.36081,15.36081,0,0,1-3.56286.40027,15.11225,15.11225,0,0,1-3.52857-.40112,13.05413,13.05413,0,0,1-3.16833-1.205Zm-2.4513-2.13873a11.76164,11.76164,0,0,0,2.593,1.87512,12.76123,12.76123,0,0,0,3.09571,1.17834,14.82134,14.82134,0,0,0,3.45947.39148,15.06453,15.06453,0,0,0,3.49365-.39233,12.71928,12.71928,0,0,0,3.10657-1.17749,11.78252,11.78252,0,0,0,2.59314-1.87482,11.42394,11.42394,0,0,0,1.9541-2.4931,11.65937,11.65937,0,0,0,1.22778-2.98432,13.99934,13.99934,0,0,0,0-6.71588,11.555,11.555,0,0,0-3.18066-5.44275,11.89264,11.89264,0,0,0-2.59436-1.87146,12.74089,12.74089,0,0,0-3.10657-1.177,15.05425,15.05425,0,0,0-3.49365-.39282,14.81321,14.81321,0,0,0-3.46033.39233,12.77881,12.77881,0,0,0-3.09485,1.17749,11.89915,11.89915,0,0,0-2.594,1.87146,11.37516,11.37516,0,0,0-1.95264,2.47437,11.48968,11.48968,0,0,0-1.22778,2.96838,14.003,14.003,0,0,0,.00061,6.71729,11.62236,11.62236,0,0,0,1.22717,2.98291,11.42027,11.42027,0,0,0,1.95361,2.4928Zm25.89356-11.698h12.479v4.72h-12.479v-4.72Zm0-.15h12.62891v5.01984h-12.77881v-5.01984Zm12.329.29987h-12.17908v4.42011h12.17908v-4.42011Zm24.06531-4.59692h-8.48572v19.423h-5.67224v-19.423h-8.53076v-4.811h22.68872v4.811Zm0,.1499h-8.33582v19.423h-5.972v-19.423h-8.53088v-5.11084h22.98889v5.11084Zm-8.48572-.29987h8.33581v-4.511H1042.6178v4.511h8.53088v19.423h5.37219v-19.423Zm28.27112,12.403a2.759,2.759,0,0,0-1.08924-2.38306,5.82977,5.82977,0,0,0-3.40295-.794h-6.6709v6.21722h6.48877q4.67284,0,4.67432-3.04016Zm-11.16309-6.94287h5.94385q4.40239,0,4.40307-3.04016,0-2.95047-4.40307-2.95093h-5.94385v5.99109Zm16.65393,7.306a5.8442,5.8442,0,0,1-2.44983,5.03692q-2.45142,1.77009-7.2622,1.77h-12.342v-24.23285h11.844a12.60718,12.60718,0,0,1,6.94324,1.63306,5.22233,5.22233,0,0,1,2.49585,4.62891,5.37943,5.37943,0,0,1-.976,3.22192,6.44667,6.44667,0,0,1-2.74585,2.13391q4.49377,1.36065,4.4928,5.80817Zm-5.64075-.3631a3.16918,3.16918,0,0,0-.2583-1.32776,2.35453,2.35453,0,0,0-.76892-.93457,3.68344,3.68344,0,0,0-1.3424-.57007,8.77719,8.77719,0,0,0-1.97266-.1947h-6.521v5.9173h6.33887a6.36883,6.36883,0,0,0,3.42407-.7356,2.39794,2.39794,0,0,0,1.10034-2.1546Zm.01319-1.45191a3.45979,3.45979,0,0,1,.2865,1.45191,2.68011,2.68011,0,0,1-1.23719,2.40521,6.64153,6.64153,0,0,1-3.58691.78491h-6.63892v-6.51715h6.82105a9.05989,9.05989,0,0,1,2.04065.2027,3.9728,3.9728,0,0,1,1.45019.62048,2.64754,2.64754,0,0,1,.86463,1.05194Zm-10.87647-5.64093h5.79395a5.70134,5.70134,0,0,0,3.217-.73333,2.44675,2.44675,0,0,0,1.036-2.15686,2.34561,2.34561,0,0,0-1.03406-2.08887,5.84513,5.84513,0,0,0-3.219-.7121h-5.79395v5.69116Zm5.79395.29987h-6.094v-6.29089h6.094a6.11865,6.11865,0,0,1,3.38525.76355,2.62871,2.62871,0,0,1,1.16773,2.33728,2.72889,2.72889,0,0,1-1.16577,2.40283,5.97467,5.97467,0,0,1-3.38721.78723Zm10.86011,7.15607a6.68118,6.68118,0,0,1-.62793,2.9577,5.861,5.861,0,0,1-1.88477,2.20044,8.77583,8.77583,0,0,1-3.09326,1.35138,18.09181,18.09181,0,0,1-4.2561.44726h-12.492v-24.53277h11.9939a17.52479,17.52479,0,0,1,3.99316.41223,9.434,9.434,0,0,1,3.032,1.24554,5.37239,5.37239,0,0,1,2.56385,4.75422,6.12843,6.12843,0,0,1-.25012,1.77966,5.21252,5.21252,0,0,1-.75415,1.5293,5.98366,5.98366,0,0,1-1.20362,1.24554,7.20178,7.20178,0,0,1-1.25366.77637,6.40094,6.40094,0,0,1,3.07776,2.06591,5.97467,5.97467,0,0,1,1.15491,3.76722Zm-.89722,2.82727a6.388,6.388,0,0,0,.59729-2.82727,5.6865,5.6865,0,0,0-1.09143-3.58466,6.3293,6.3293,0,0,0-3.29492-2.08008l-.38965-.11792.37317-.16272a7.14039,7.14039,0,0,0,1.54016-.90063,5.69158,5.69158,0,0,0,1.14367-1.18347,4.87419,4.87419,0,0,0,.71131-1.44141,5.853,5.853,0,0,0,.23681-1.69311,5.07243,5.07243,0,0,0-2.4281-4.50361,9.13494,9.13494,0,0,0-2.93591-1.20416,17.2379,17.2379,0,0,0-3.92529-.40423h-11.69409v23.93292h12.19214a17.80315,17.80315,0,0,0,4.18579-.43775,8.48321,8.48321,0,0,0,2.989-1.30359,5.56723,5.56723,0,0,0,1.79-2.08831Zm21.84814-2.64643a8.39948,8.39948,0,0,0,0-10.98108,6.93,6.93,0,0,0-5.17309-2.088,6.85265,6.85265,0,0,0-5.1499,2.088,8.471,8.471,0,0,0,0,10.98108,6.84857,6.84857,0,0,0,5.1499,2.088,6.92581,6.92581,0,0,0,5.17309-2.088Zm-11.79907,5.355a11.55758,11.55758,0,0,1-4.6051-4.42407,13.22767,13.22767,0,0,1,0-12.81994,11.6183,11.6183,0,0,1,4.6051-4.40192,14.7112,14.7112,0,0,1,13.29688,0,11.62616,11.62616,0,0,1,4.606,4.40192,13.22509,13.22509,0,0,1,0,12.81994,11.56532,11.56532,0,0,1-4.606,4.42407,14.71162,14.71162,0,0,1-13.29688,0Zm11.69214-5.45953a6.6717,6.6717,0,0,0,1.499-2.36438,9.36716,9.36716,0,0,0,0-6.04327,6.67089,6.67089,0,0,0-1.49878-2.364,6.59779,6.59779,0,0,0-2.26318-1.53186,7.92809,7.92809,0,0,0-5.60071,0,6.494,6.494,0,0,0-2.24475,1.5307,6.6629,6.6629,0,0,0-1.48218,2.36383,9.46394,9.46394,0,0,0,0,6.04633,6.67131,6.67131,0,0,0,1.48169,2.36291,6.48259,6.48259,0,0,0,2.24439,1.53132,7.93362,7.93362,0,0,0,5.60241,0,6.58506,6.58506,0,0,0,2.26209-1.53156Zm1.77893-2.26007a6.97224,6.97224,0,0,1-1.56494,2.469,6.88871,6.88871,0,0,1-2.36487,1.60041,8.22326,8.22326,0,0,1-5.8258,0,6.77847,6.77847,0,0,1-2.34717-1.601,6.97257,6.97257,0,0,1-1.548-2.46789,9.7551,9.7551,0,0,1,0-6.25257,6.96477,6.96477,0,0,1,1.548-2.46814,6.78782,6.78782,0,0,1,2.348-1.601,8.21826,8.21826,0,0,1,5.824,0,6.893,6.893,0,0,1,2.36585,1.6004,6.97175,6.97175,0,0,1,1.56494,2.469,9.64237,9.64237,0,0,1,0,6.25183Zm-13.54187,7.85138a12.06685,12.06685,0,0,1-2.65918-1.92328,11.69893,11.69893,0,0,1-2.00464-2.55743,11.96842,11.96842,0,0,1-1.2583-3.062,14.26613,14.26613,0,0,1,0-6.86376,11.8537,11.8537,0,0,1,3.26318-5.58454,12.1882,12.1882,0,0,1,2.65894-1.91852,13.07525,13.07525,0,0,1,3.16736-1.20416,15.10426,15.10426,0,0,1,3.52942-.402,15.34085,15.34085,0,0,1,3.56274.40088,13.03514,13.03514,0,0,1,3.179,1.20526,12.1955,12.1955,0,0,1,2.65918,1.91852,11.85625,11.85625,0,0,1,3.26367,5.58454,14.24516,14.24516,0,0,1-.00049,6.86456,11.96574,11.96574,0,0,1-1.25769,3.06177,11.69935,11.69935,0,0,1-2.00549,2.55712,12.06991,12.06991,0,0,1-2.65918,1.923,13.01671,13.01671,0,0,1-3.179,1.20587,15.35909,15.35909,0,0,1-3.56274.40027,15.11305,15.11305,0,0,1-3.52857-.40112,13.05514,13.05514,0,0,1-3.16821-1.205Zm-2.45166-2.13873a11.75828,11.75828,0,0,0,2.59338,1.87512,12.76311,12.76311,0,0,0,3.09571,1.17834,14.82031,14.82031,0,0,0,3.45935.39148,15.06164,15.06164,0,0,0,3.49341-.39233,12.72386,12.72386,0,0,0,3.10669-1.17749,11.78917,11.78917,0,0,0,2.59326-1.87482,11.42232,11.42232,0,0,0,1.9541-2.4931,11.67015,11.67015,0,0,0,1.22754-2.984,13.99663,13.99663,0,0,0,.00024-6.71619,11.55936,11.55936,0,0,0-3.18078-5.44275,11.9073,11.9073,0,0,0-2.59436-1.87146,12.74548,12.74548,0,0,0-3.10669-1.177,15.04838,15.04838,0,0,0-3.49341-.39282,14.81292,14.81292,0,0,0-3.46021.39233,12.77693,12.77693,0,0,0-3.09485,1.17749,11.88241,11.88241,0,0,0-2.59411,1.87146,11.3734,11.3734,0,0,0-1.953,2.47437,11.49846,11.49846,0,0,0-1.22766,2.96838,14.01343,14.01343,0,0,0,0,6.71534,11.64667,11.64667,0,0,0,1.22766,2.98486,11.42444,11.42444,0,0,0,1.95374,2.4928Zm32.587-15.07862a6.7778,6.7778,0,0,0-2.291,4.288h13.75012a6.69387,6.69387,0,0,0-2.22314-4.26587,6.773,6.773,0,0,0-4.62915-1.63306,6.84976,6.84976,0,0,0-4.60681,1.611Zm16.76892,8.05518H1127.5531a6.59064,6.59064,0,0,0,2.609,4.24292,8.55852,8.55852,0,0,0,5.24219,1.56586,8.83386,8.83386,0,0,0,6.58093-2.63288l3.04016,3.49488a10.23909,10.23909,0,0,1-4.13,2.95007,16.36575,16.36575,0,0,1-12.66028-.59,11.42741,11.42741,0,0,1-4.69763-4.42517,12.48376,12.48376,0,0,1-1.65625-6.42077,12.6812,12.6812,0,0,1,1.611-6.376,11.44549,11.44549,0,0,1,4.46911-4.42517,13.05573,13.05573,0,0,1,6.44483-1.58679,12.718,12.718,0,0,1,6.3313,1.56469,11.10663,11.10663,0,0,1,4.356,4.40113,13.3537,13.3537,0,0,1,1.56495,6.558q0,.591-.09009,1.6792Zm-16.67176-7.94153a6.30945,6.30945,0,0,0-1.47961,1.83435,7.23124,7.23124,0,0,0-.73218,2.19h13.40015a7.04186,7.04186,0,0,0-.69678-2.1629,6.32569,6.32569,0,0,0-1.45129-1.84045,6.1979,6.1979,0,0,0-2.0409-1.19629,7.9282,7.9282,0,0,0-4.95385-.005,6.36412,6.36412,0,0,0-2.04554,1.1803Zm-1.74328,1.69373a6.73181,6.73181,0,0,1,3.69018-3.15638,8.21413,8.21413,0,0,1,5.1521.00507,6.495,6.495,0,0,1,2.13806,1.25348,6.63352,6.63352,0,0,1,1.5199,1.92724,7.396,7.396,0,0,1,.75318,2.43134l.02319.1698h-14.096l.02637-.17242a7.61115,7.61115,0,0,1,.793-2.45813Zm18.415,6.3977h-18.833a6.76085,6.76085,0,0,0,.84778,2.17145,6.42336,6.42336,0,0,0,1.66809,1.80139,7.4318,7.4318,0,0,0,2.32031,1.15118,9.8715,9.8715,0,0,0,2.83289.38489,9.58109,9.58109,0,0,0,3.58679-.64721,8.387,8.387,0,0,0,2.88745-1.9405l.1134-.11541,3.23011,3.71277-.082.09845a10.07061,10.07061,0,0,1-1.87793,1.73956,10.93828,10.93828,0,0,1-2.31127,1.25323,13.58978,13.58978,0,0,1-2.68409.75775,18.06488,18.06488,0,0,1-6.78906-.14971,13.54633,13.54633,0,0,1-3.31152-1.20441,12.177,12.177,0,0,1-2.72913-1.92359,11.36664,11.36664,0,0,1-2.02942-2.55828,11.9538,11.9538,0,0,1-1.25683-3.06031,13.71309,13.71309,0,0,1-.41944-3.43621,13.85251,13.85251,0,0,1,.40747-3.40009,12.20459,12.20459,0,0,1,1.22327-3.0495,11.59813,11.59813,0,0,1,4.52673-4.48218,12.44226,12.44226,0,0,1,3.0774-1.20447,14.35231,14.35231,0,0,1,3.43994-.40161,14.08136,14.08136,0,0,1,3.38806.39569,12.04054,12.04054,0,0,1,3.01648,1.1883,11.31165,11.31165,0,0,1,2.51611,1.90832,11.54527,11.54527,0,0,1,1.89783,2.55146,12.26841,12.26841,0,0,1,1.18884,3.096,15.199,15.199,0,0,1,.3949,3.53394q0,.596-.0907,1.69141l-.01172.13769Zm-19.01514-.2998h18.87695q.078-.98227.07837-1.5293a14.91439,14.91439,0,0,0-.387-3.46484,11.97645,11.97645,0,0,0-1.15918-3.02112,11.24827,11.24827,0,0,0-1.84753-2.48456,11.00874,11.00874,0,0,0-2.45057-1.85785,11.734,11.734,0,0,0-2.9414-1.15942,13.7886,13.7886,0,0,0-3.31665-.386,14.05846,14.05846,0,0,0-3.36841.392,12.13561,12.13561,0,0,0-3.00366,1.1756,11.29754,11.29754,0,0,0-4.41162,4.36816,11.90143,11.90143,0,0,0-1.19336,2.97467,13.55433,13.55433,0,0,0-.39771,3.32752,13.418,13.418,0,0,0,.40857,3.36254,11.64122,11.64122,0,0,0,1.22693,2.98261,11.05758,11.05758,0,0,0,1.97546,2.49194,11.88622,11.88622,0,0,0,2.662,1.87653,13.2467,13.2467,0,0,0,3.239,1.17724,17.785,17.785,0,0,0,6.67188.14624,13.31261,13.31261,0,0,0,2.62451-.74011,10.67144,10.67144,0,0,0,2.249-1.21917,9.78409,9.78409,0,0,0,1.739-1.59052l-2.85059-3.27686a8.6531,8.6531,0,0,1-2.87524,1.894,9.87178,9.87178,0,0,1-3.69763.66931,10.15868,10.15868,0,0,1-2.91834-.39807,7.72517,7.72517,0,0,1-2.41284-1.19757,6.72265,6.72265,0,0,1-1.74524-1.88471,7.12783,7.12783,0,0,1-.92187-2.45141l-.03321-.17688Zm48.2395,10.45135v-16.064l-8.16919,13.523h-2.44995l-8.032-13.56916v16.11017h-5.17407v-24.23321h5.94507l8.62182,15.15722,9.03-15.15722h5.311l.04492,24.23321Zm-.15,0v-15.52569l-7.93469,13.13464h-2.62012l-7.79639-13.17175v15.7127h-5.47388v-24.533h6.1814l8.53833,15.00977,8.94214-15.00977h5.54517c.0155,8.17737.04516,16.356.04516,24.533h-5.42712v-.1499Zm.29992-16.064v15.91406h4.82813l-.04431-23.93323h-5.07715l-9.11792,15.30457-8.70569-15.30457h-5.70825v23.93323h4.87427v-16.50757l8.26733,13.96655h2.28l8.40356-13.911v.538Zm34.56568-8.16944-11.346,26.18506a12.17762,12.17762,0,0,1-3.85718,5.559,9.23907,9.23907,0,0,1-5.48974,1.6098,11.30352,11.30352,0,0,1-3.585-.58874,7.92425,7.92425,0,0,1-2.905-1.63416l2.269-4.17492a6.166,6.166,0,0,0,1.92993,1.22595,5.91668,5.91668,0,0,0,2.246.45392,3.86342,3.86342,0,0,0,2.47205-.77191,6.83753,6.83753,0,0,0,1.793-2.58692l.40893-.953-10.57483-24.3241h5.90088l7.62293,17.92609,7.66992-17.92609Zm.13721.05927-11.34424,26.18139a17.223,17.223,0,0,1-1.77332,3.39276,8.93588,8.93588,0,0,1-2.136,2.23255,8.51442,8.51442,0,0,1-2.55091,1.22882,10.71189,10.71189,0,0,1-3.02563.409,11.25923,11.25923,0,0,1-1.82691-.1493,11.75781,11.75781,0,0,1-1.80493-.44763,9.382,9.382,0,0,1-1.63794-.7149,7.02136,7.02136,0,0,1-1.32129-.951l-.08593-.0791,2.41748-4.44782.14111.13318a5.76649,5.76649,0,0,0,.86841.67493,6.37679,6.37679,0,0,0,1.01513.521,6.15122,6.15122,0,0,0,1.09229.33277,5.554,5.554,0,0,0,1.09753.11,4.41188,4.41188,0,0,0,1.3219-.18628,3.242,3.242,0,0,0,1.05762-.55273,4.60722,4.60722,0,0,0,.90576-1.00116,9.62392,9.62392,0,0,0,.84192-1.52734l.38379-.894-10.64038-24.4743h6.22827l7.52429,17.69434,7.5708-17.69434h5.77149l-.09033.20917ZM1199.025,1113.5788l11.25525-25.97583h-5.11853l-7.76916,18.15759-7.72132-18.15759h-5.57348l10.50952,24.17346c-.13757.32324-.2821.70788-.43579,1.01513a9.96338,9.96338,0,0,1-.86987,1.57721,4.90664,4.90664,0,0,1-.9668,1.06531,3.547,3.547,0,0,1-1.15357.60431,4.70953,4.70953,0,0,1-1.411.20044,5.849,5.849,0,0,1-1.15588-.11682,6.41112,6.41112,0,0,1-1.14624-.34808,6.66529,6.66529,0,0,1-1.06323-.546,6.12563,6.12563,0,0,1-.77075-.57965l-2.12146,3.9035a6.76358,6.76358,0,0,0,1.17907.83166,9.10162,9.10162,0,0,0,1.58582.69287,11.47315,11.47315,0,0,0,1.75891.43567,10.98016,10.98016,0,0,0,1.77881.1449,10.42026,10.42026,0,0,0,2.94116-.396,8.21994,8.21994,0,0,0,2.46191-1.1858,8.64372,8.64372,0,0,0,2.06336-2.15881,16.939,16.939,0,0,0,1.74158-3.33386l.0017-.00366Zm-282.0996,9.14849c-23.3451,0-37.72132.496-38.037.89094-.82215.41418-1.90723,1.125-1.91626,1.57128-.057.53772.10718.71088,1.01819.87476,1.37085.246,3.17395.15308,5.573.50708,2.516.37109.94788,1.186,3.20276,1.3241,5.83631.356,23.19312.89087,32.15906.89087,8.96521,0,64.39807-.356,78.52393-.356,5.88818,0,103.6062-.50208,145.7351-1.37,29.5481-.608,46.62915-1.40088,59.171-1.55114a24.02041,24.02041,0,0,0,2.72107-.28174c.40894-.04712.89405-.24011.89405-.62427,0-.22388-.4242-.36475-.4242-.6239,0-.33582.81531-.53992.96912-.648.54492-.385-.03-.60407-.286-.60407-27.0929,0-88.793.96015-147.82508.96015-69.26391,0-135.14587-.96015-141.47875-.96015Z" transform="translate(-757 -1078)"/><polygon class="cls-2" points="25.007 33.686 25.007 20.239 17.822 30.997 13.273 30.997 6.181 20.239 6.181 33.686 0.802 33.686 0.802 9.481 6.876 9.481 15.687 24.621 24.914 9.481 30.34 9.481 30.386 33.686 25.007 33.686 25.007 33.686"/><polygon class="cls-2" points="35.765 9.481 41.144 9.481 41.144 25.618 54.592 9.481 59.971 9.481 59.971 33.686 54.592 33.686 54.592 17.549 41.144 33.686 35.765 33.686 35.765 9.481 35.765 9.481"/><path class="cls-3" d="M862.69177,1106.30731a5.379,5.379,0,1,1-5.3789-5.379,5.37923,5.37923,0,0,1,5.3789,5.379Z" transform="translate(-757 -1078)"/><path class="cls-3" d="M1221.02393,1106.30731a5.379,5.379,0,1,1-5.379-5.379,5.3788,5.3788,0,0,1,5.379,5.379Z" transform="translate(-757 -1078)"/><path class="cls-1" d="M759.856,1126.47021a8.03651,8.03651,0,0,1-.62793,2.8899h2.744V1123.513h-1.9032l-.21289,2.95721Zm4.41211,2.8899v2.69879a1.9176,1.9176,0,0,1-.62708.1112,1.80687,1.80687,0,0,1-.64892-.1112v-1.546h-4.715v1.546a2.04461,2.04461,0,0,1-.63928.1001,1.98254,1.98254,0,0,1-.63782-.1001v-2.69879h.593c.4591-.303.77307-1.15521.908-2.95709l.30188-3.95405H763.395v6.91114Z" transform="translate(-757 -1078)"/><path class="cls-1" d="M771.30225,1122.44952a1.446,1.446,0,0,1,.11108.53717,1.63124,1.63124,0,0,1-.11108.61591h-3.192v2.24084h2.631a1.58135,1.58135,0,0,1,.11316.559,1.53,1.53,0,0,1-.11316.594h-2.631v2.363h3.3031a1.587,1.587,0,0,1,.11292.56012,1.5407,1.5407,0,0,1-.11292.593h-4.73694v-8.06318Z" transform="translate(-757 -1078)"/><path class="cls-1" d="M776.83435,1129.41534a1.09439,1.09439,0,0,0,1.21021-1.23107c0-.841-.39283-1.245-1.21021-1.245h-1.46692v2.47607Zm-.06689-3.52795a1.028,1.028,0,0,0,1.06408-1.16394c0-.70605-.33618-1.17719-1.06408-1.17719h-1.4v2.34113Zm.32519-3.43817a2.1023,2.1023,0,0,1,2.19483,2.27423,1.8741,1.8741,0,0,1-.82886,1.624,1.93315,1.93315,0,0,1,1.06384,1.82489,2.22842,2.22842,0,0,1-2.38513,2.34088h-3.20288v-8.064Z" transform="translate(-757 -1078)"/><path class="cls-1" d="M786.65662,1122.44952a1.43942,1.43942,0,0,1,.11206.53717,1.63189,1.63189,0,0,1-.11206.61591h-3.19178v2.24084h2.632a1.60731,1.60731,0,0,1,.11194.559,1.54907,1.54907,0,0,1-.11194.594h-2.632v2.363h3.30384a1.58635,1.58635,0,0,1,.11218.56012,1.55157,1.55157,0,0,1-.11218.593h-4.73792v-8.06318Z" transform="translate(-757 -1078)"/><path class="cls-1" d="M788.69568,1130.4798a1.69963,1.69963,0,0,1-.08985-.51593,1.55938,1.55938,0,0,1,.08985-.53717,2.226,2.226,0,0,0,.437-.02185c.34619-.05725.99707-.58313,1.209-3.37122l.28028-3.58386h4.47973v7.96313a1.971,1.971,0,0,1-.70593.0998,1.67553,1.67553,0,0,1-.717-.0998v-6.86731h-1.79187l-.19018,2.509c-.30176,4.01019-1.59,4.51416-2.35193,4.51416a2.34514,2.34514,0,0,1-.649-.089Z" transform="translate(-757 -1078)"/><path class="cls-1" d="M800.88147,1123.52386c-1.03015,0-1.7251.58277-1.7251,2.95679,0,2.36292.69495,2.95716,1.7251,2.95716,1.05286,0,1.72485-.59424,1.72485-2.95716,0-2.374-.672-2.95679-1.72485-2.95679Zm0-1.18713c1.971,0,3.23572,1.244,3.23572,4.14392,0,2.901-1.23072,4.14514-3.23572,4.14514-2.00525,0-3.23706-1.24414-3.23706-4.14514,0-2.86694,1.26514-4.14392,3.23706-4.14392Z" transform="translate(-757 -1078)"/><path class="cls-1" d="M812.35022,1130.41229a1.94553,1.94553,0,0,1-.70532.1012,1.81615,1.81615,0,0,1-.72876-.1012v-6.73083h-2.822v6.73083a2.14015,2.14015,0,0,1-.717.1012,1.76627,1.76627,0,0,1-.71607-.1012v-7.96277h5.68921v7.96277Z" transform="translate(-757 -1078)"/><path class="cls-1" d="M821.7915,1122.44952a4.00434,4.00434,0,0,1,.93006.10083v7.86219a2.04047,2.04047,0,0,1-.70606.10016,2.27607,2.27607,0,0,1-.728-.10016v-2.453a35.30459,35.30459,0,0,1,.07812-3.70691h-.06689a23.61677,23.61677,0,0,1-1.2323,2.83381l-.78382,1.64526a1.41483,1.41483,0,0,1-.41418.05695.85469.85469,0,0,1-.358-.05695c-.25794-.52612-.52686-1.0531-.78406-1.59027a19.57117,19.57117,0,0,1-1.26587-2.8888h-.0669a21.23483,21.23483,0,0,1,.134,3.426v2.734a1.86578,1.86578,0,0,1-.67212.10016,1.84217,1.84217,0,0,1-.63806-.10016v-7.86219a3.38415,3.38415,0,0,1,.86206-.10083,4.24335,4.24335,0,0,1,.852.10083l1.01806,2.04926a18.75394,18.75394,0,0,1,.96412,2.19488h.05566a8.38236,8.38236,0,0,1,.44824-1.16394c.50391-1.01989.985-2.05,1.45581-3.0802a4.558,4.558,0,0,1,.91809-.10083Z" transform="translate(-757 -1078)"/><path class="cls-1" d="M830.22607,1122.44952a1.44644,1.44644,0,0,1,.11194.53717,1.63162,1.63162,0,0,1-.11194.61591h-3.19213v2.24084h2.6322a1.60768,1.60768,0,0,1,.11206.559,1.54919,1.54919,0,0,1-.11206.594h-2.6322v2.363H830.338a1.58852,1.58852,0,0,1,.11194.56012,1.55817,1.55817,0,0,1-.11194.593h-4.73779v-8.06318Z" transform="translate(-757 -1078)"/><path class="cls-1" d="M837.2262,1122.55017a2.59613,2.59613,0,0,1,1.43383,0v7.86188a1.95135,1.95135,0,0,1-.70507.10119,1.809,1.809,0,0,1-.72876-.10119v-3.41577H834.269v3.41577a2.13255,2.13255,0,0,1-.71679.10119,1.78057,1.78057,0,0,1-.71717-.10119v-7.86188a1.95937,1.95937,0,0,1,.70606-.101,2.09374,2.09374,0,0,1,.7279.101v3.21393h2.95716v-3.21393Z" transform="translate(-757 -1078)"/><path class="cls-1" d="M846.43311,1122.44952a1.75783,1.75783,0,0,1,.11084.604,1.80553,1.80553,0,0,1-.11084.62707h-1.98194v6.73194a2.16053,2.16053,0,0,1-.71716.10016,1.7851,1.7851,0,0,1-.71692-.10016v-6.73194h-2.03894a1.53084,1.53084,0,0,1-.11121-.60412,1.80566,1.80566,0,0,1,.11121-.627Z" transform="translate(-757 -1078)"/><polygon class="cls-2" points="86.865 33.686 65.349 33.686 65.349 9.481 70.728 9.481 70.728 28.307 81.486 28.307 81.486 9.481 86.865 9.481 86.865 33.686 86.865 33.686"/><polygon class="cls-2" points="84.186 36.375 89.544 36.375 89.544 28.307 84.186 28.307 84.186 36.375 84.186 36.375"/></svg>