<svg id="Слой_1" data-name="Слой 1" xmlns="http://www.w3.org/2000/svg" viewBox="0 0 464.02393 54.1701"><defs><style>.cls-1{fill:#006681}.cls-2{fill:#1d1d1b}.cls-3{fill:#c32e26}</style></defs><title>всё-по-твоему</title><path class="cls-1" d="M895.891 1104.516a2.756 2.756 0 0 0-1.09-2.383 5.827 5.827 0 0 0-3.402-.794h-6.672v6.218h6.49q4.673 0 4.674-3.04zm-11.164-6.942h5.945q4.401 0 4.403-3.04 0-2.951-4.403-2.952h-5.945v5.992zm16.654 7.306a5.842 5.842 0 0 1-2.45 5.036q-2.45 1.77-7.261 1.77h-12.343v-24.232h11.844a12.606 12.606 0 0 1 6.943 1.633 5.22 5.22 0 0 1 2.496 4.629 5.379 5.379 0 0 1-.975 3.222 6.46 6.46 0 0 1-2.746 2.133q4.493 1.361 4.492 5.809zm-5.64-.364a3.167 3.167 0 0 0-.258-1.327 2.355 2.355 0 0 0-.77-.935 3.69 3.69 0 0 0-1.342-.57 8.77 8.77 0 0 0-1.972-.195h-6.522v5.918h6.34a6.367 6.367 0 0 0 3.424-.736 2.398 2.398 0 0 0 1.1-2.155zm.014-1.451a3.458 3.458 0 0 1 .286 1.451 2.68 2.68 0 0 1-1.237 2.406 6.64 6.64 0 0 1-3.587.785h-6.64v-6.518h6.822a9.052 9.052 0 0 1 2.04.203 3.978 3.978 0 0 1 1.45.62 2.647 2.647 0 0 1 .866 1.053zm-10.878-5.641h5.795a5.7 5.7 0 0 0 3.217-.734 2.446 2.446 0 0 0 1.036-2.157 2.346 2.346 0 0 0-1.034-2.088 5.844 5.844 0 0 0-3.219-.713h-5.795v5.692zm5.795.3h-6.095v-6.291h6.095a6.12 6.12 0 0 1 3.385.763 2.629 2.629 0 0 1 1.168 2.337 2.728 2.728 0 0 1-1.166 2.403 5.974 5.974 0 0 1-3.387.787zm10.86 7.156a6.682 6.682 0 0 1-.629 2.957 5.857 5.857 0 0 1-1.885 2.2 8.775 8.775 0 0 1-3.093 1.352 18.088 18.088 0 0 1-4.255.447h-12.493v-24.532h11.994a17.533 17.533 0 0 1 3.994.412 9.431 9.431 0 0 1 3.031 1.245 5.37 5.37 0 0 1 2.564 4.755 6.12 6.12 0 0 1-.25 1.78 5.172 5.172 0 0 1-.754 1.529 6.015 6.015 0 0 1-1.204 1.245 7.219 7.219 0 0 1-1.253.776 6.406 6.406 0 0 1 3.078 2.066 5.978 5.978 0 0 1 1.154 3.768zm-.898 2.827a6.393 6.393 0 0 0 .597-2.827 5.688 5.688 0 0 0-1.091-3.585 6.331 6.331 0 0 0-3.294-2.08l-.39-.118.373-.163a7.166 7.166 0 0 0 1.54-.9 5.721 5.721 0 0 0 1.145-1.184 4.868 4.868 0 0 0 .709-1.442 5.825 5.825 0 0 0 .237-1.692 5.07 5.07 0 0 0-2.428-4.504 9.135 9.135 0 0 0-2.935-1.204 17.24 17.24 0 0 0-3.926-.404h-11.694v23.932h12.193a17.797 17.797 0 0 0 4.185-.437 8.482 8.482 0 0 0 2.989-1.304 5.562 5.562 0 0 0 1.79-2.088zm10.14 2.709a11.654 11.654 0 0 1-4.674-4.425 13.08 13.08 0 0 1 0-12.82 11.741 11.741 0 0 1 4.653-4.401 14.16 14.16 0 0 1 6.784-1.588 13.061 13.061 0 0 1 6.285 1.452 9.42 9.42 0 0 1 4.06 4.175l-4.355 2.54a6.926 6.926 0 0 0-2.61-2.518 7.613 7.613 0 0 0-8.69 1.226 8.357 8.357 0 0 0-.022 11.027 7.654 7.654 0 0 0 8.713 1.225 6.911 6.911 0 0 0 2.609-2.519l4.356 2.542a9.808 9.808 0 0 1-4.107 4.197 12.799 12.799 0 0 1-6.24 1.475 14.194 14.194 0 0 1-6.761-1.588zm-.07.132a12.242 12.242 0 0 1-2.698-1.924 11.703 11.703 0 0 1-2.035-2.557 11.869 11.869 0 0 1-1.274-3.06 14.078 14.078 0 0 1 0-6.866 11.835 11.835 0 0 1 3.303-5.585 12.339 12.339 0 0 1 2.683-1.918 13.125 13.125 0 0 1 3.216-1.205 15.922 15.922 0 0 1 3.638-.401 15.07 15.07 0 0 1 3.399.367 11.824 11.824 0 0 1 2.957 1.103 9.796 9.796 0 0 1 2.4 1.797 9.693 9.693 0 0 1 1.723 2.443l.063.126-4.602 2.684-.077-.123a7.466 7.466 0 0 0-1.15-1.44 6.323 6.323 0 0 0-1.403-1.026 6.808 6.808 0 0 0-1.604-.617 7.347 7.347 0 0 0-1.752-.205 7.741 7.741 0 0 0-2.85.506 6.768 6.768 0 0 0-2.309 1.516 6.533 6.533 0 0 0-1.53 2.357 8.558 8.558 0 0 0-.513 3.05 8.65 8.65 0 0 0 .506 3.05 6.545 6.545 0 0 0 1.516 2.358 6.635 6.635 0 0 0 2.301 1.515 7.858 7.858 0 0 0 2.879.505 7.358 7.358 0 0 0 1.753-.205 6.807 6.807 0 0 0 1.603-.616 6.274 6.274 0 0 0 1.402-1.025 7.478 7.478 0 0 0 1.151-1.441l.077-.124 4.604 2.687-.065.126a9.96 9.96 0 0 1-4.169 4.26 11.744 11.744 0 0 1-2.947 1.121 14.595 14.595 0 0 1-3.363.373 15.751 15.751 0 0 1-3.608-.4 13.337 13.337 0 0 1-3.225-1.206zm-2.493-2.14a11.949 11.949 0 0 0 2.634 1.876 13.057 13.057 0 0 0 3.152 1.177 15.458 15.458 0 0 0 3.54.393 14.304 14.304 0 0 0 3.295-.365 11.439 11.439 0 0 0 2.872-1.091 9.663 9.663 0 0 0 3.98-4.009l-4.108-2.397a7.704 7.704 0 0 1-1.12 1.375 6.568 6.568 0 0 1-1.467 1.073 7.084 7.084 0 0 1-1.675.643 7.645 7.645 0 0 1-1.823.215 8.157 8.157 0 0 1-2.987-.526 6.942 6.942 0 0 1-2.405-1.582 6.834 6.834 0 0 1-1.584-2.465 8.939 8.939 0 0 1-.526-3.155 8.85 8.85 0 0 1 .532-3.155 6.827 6.827 0 0 1 1.6-2.464 7.071 7.071 0 0 1 2.411-1.583 8.036 8.036 0 0 1 2.959-.527 7.636 7.636 0 0 1 1.823.215 7.11 7.11 0 0 1 1.675.643 6.615 6.615 0 0 1 1.468 1.074 7.681 7.681 0 0 1 1.119 1.375l4.11-2.398a9.35 9.35 0 0 0-1.606-2.242 9.495 9.495 0 0 0-2.33-1.742 11.518 11.518 0 0 0-2.881-1.075 14.769 14.769 0 0 0-3.332-.359 15.636 15.636 0 0 0-3.57.393 12.835 12.835 0 0 0-3.144 1.177 12.034 12.034 0 0 0-2.618 1.871 11.554 11.554 0 0 0-3.22 5.442 13.82 13.82 0 0 0 0 6.716 11.573 11.573 0 0 0 1.244 2.984 11.409 11.409 0 0 0 1.982 2.493zm36.145-25.538a2.64 2.64 0 0 1-.771-1.951 2.698 2.698 0 0 1 .771-1.997 2.852 2.852 0 0 1 3.902 0 2.698 2.698 0 0 1 .772 1.997 2.76 2.76 0 0 1-4.674 1.951zm-6.92 10.46a6.778 6.778 0 0 0-2.292 4.288h13.75a6.69 6.69 0 0 0-2.224-4.266 6.765 6.765 0 0 0-4.628-1.633 6.846 6.846 0 0 0-4.606 1.611zm-1.883-10.46a2.64 2.64 0 0 1-.771-1.951 2.698 2.698 0 0 1 .77-1.997 2.853 2.853 0 0 1 3.904 0 2.705 2.705 0 0 1 .771 1.997 2.76 2.76 0 0 1-4.674 1.95zm18.651 18.515H935.19a6.582 6.582 0 0 0 2.609 4.243 8.553 8.553 0 0 0 5.241 1.566 8.836 8.836 0 0 0 6.58-2.633l3.04 3.495a10.241 10.241 0 0 1-4.128 2.95 16.372 16.372 0 0 1-12.662-.59 11.434 11.434 0 0 1-4.697-4.425 12.501 12.501 0 0 1-1.656-6.421 12.678 12.678 0 0 1 1.61-6.376 11.45 11.45 0 0 1 4.471-4.425 13.052 13.052 0 0 1 6.444-1.587 12.714 12.714 0 0 1 6.33 1.565 11.102 11.102 0 0 1 4.357 4.4 13.357 13.357 0 0 1 1.565 6.559q0 .59-.09 1.679zm-9.954-18.41a2.691 2.691 0 0 1-.612-.923 3.056 3.056 0 0 1-.203-1.133 3.218 3.218 0 0 1 .203-1.166 2.673 2.673 0 0 1 .612-.937 2.707 2.707 0 0 1 .924-.612 3.253 3.253 0 0 1 2.266 0 2.764 2.764 0 0 1 1.536 1.549 3.212 3.212 0 0 1 .204 1.166 3.055 3.055 0 0 1-.204 1.133 2.792 2.792 0 0 1-1.535 1.536 3.265 3.265 0 0 1-2.267 0 2.696 2.696 0 0 1-.924-.612zm-.333-1.033a2.48 2.48 0 0 0 1.367 1.367 2.966 2.966 0 0 0 2.047 0 2.484 2.484 0 0 0 1.366-1.367 2.758 2.758 0 0 0 .183-1.023 2.913 2.913 0 0 0-.183-1.059 2.46 2.46 0 0 0-1.367-1.378 2.96 2.96 0 0 0-2.046 0 2.412 2.412 0 0 0-.822.545 2.366 2.366 0 0 0-.545.833 2.926 2.926 0 0 0-.182 1.059 2.77 2.77 0 0 0 .182 1.023zm-6.384 11.502a6.311 6.311 0 0 0-1.48 1.833 7.235 7.235 0 0 0-.732 2.191h13.4a7.03 7.03 0 0 0-.697-2.163 6.333 6.333 0 0 0-1.453-1.84 6.183 6.183 0 0 0-2.038-1.197 7.927 7.927 0 0 0-4.954-.005 6.35 6.35 0 0 0-2.046 1.18zm-1.743 1.692a6.737 6.737 0 0 1 3.69-3.156 8.214 8.214 0 0 1 5.152.006 6.48 6.48 0 0 1 2.136 1.253 6.625 6.625 0 0 1 1.521 1.928 7.426 7.426 0 0 1 .753 2.431l.024.17h-14.097l.027-.172a7.618 7.618 0 0 1 .794-2.46zm-.342-12.16a2.69 2.69 0 0 1-.613-.924 3.055 3.055 0 0 1-.203-1.133 3.218 3.218 0 0 1 .203-1.166 2.671 2.671 0 0 1 .612-.937 2.708 2.708 0 0 1 .924-.612 3.244 3.244 0 0 1 2.265 0 2.748 2.748 0 0 1 1.537 1.549 3.22 3.22 0 0 1 .204 1.166 3.056 3.056 0 0 1-.203 1.132 2.778 2.778 0 0 1-1.538 1.537 3.26 3.26 0 0 1-2.265 0 2.697 2.697 0 0 1-.923-.612zm-.334-1.034a2.48 2.48 0 0 0 1.367 1.367 2.964 2.964 0 0 0 2.045 0 2.472 2.472 0 0 0 1.369-1.368 2.764 2.764 0 0 0 .182-1.022 2.92 2.92 0 0 0-.182-1.059 2.393 2.393 0 0 0-.545-.832 2.42 2.42 0 0 0-.824-.545 2.957 2.957 0 0 0-2.045 0 2.411 2.411 0 0 0-.822.544 2.364 2.364 0 0 0-.545.833 2.926 2.926 0 0 0-.182 1.059 2.77 2.77 0 0 0 .182 1.023zm19.09 19.593h-18.832a6.753 6.753 0 0 0 .847 2.171 6.415 6.415 0 0 0 1.669 1.802 7.431 7.431 0 0 0 2.32 1.151 9.87 9.87 0 0 0 2.832.385 9.57 9.57 0 0 0 3.586-.647 8.388 8.388 0 0 0 2.888-1.941l.114-.115 3.23 3.713-.082.098a10.075 10.075 0 0 1-1.878 1.74 10.95 10.95 0 0 1-2.31 1.253 13.566 13.566 0 0 1-2.685.757 18.06 18.06 0 0 1-6.787-.149 13.578 13.578 0 0 1-3.315-1.205 12.162 12.162 0 0 1-2.728-1.923 11.369 11.369 0 0 1-2.03-2.558 11.986 11.986 0 0 1-1.257-3.063 13.711 13.711 0 0 1-.419-3.434 13.856 13.856 0 0 1 .407-3.4 12.176 12.176 0 0 1 1.223-3.05 11.597 11.597 0 0 1 4.528-4.482 12.447 12.447 0 0 1 3.078-1.205 14.344 14.344 0 0 1 3.44-.401 14.087 14.087 0 0 1 3.387.396 12.03 12.03 0 0 1 3.016 1.188 11.308 11.308 0 0 1 2.516 1.908 11.54 11.54 0 0 1 1.898 2.552 12.284 12.284 0 0 1 1.189 3.095 15.228 15.228 0 0 1 .395 3.535c0 .194-.008.435-.023.722q-.023.43-.068.968l-.01.139zm-19.014-.3h18.876q.037-.466.056-.822.021-.41.022-.707a14.887 14.887 0 0 0-.387-3.465 12.012 12.012 0 0 0-1.16-3.021 11.236 11.236 0 0 0-1.847-2.485 11.006 11.006 0 0 0-2.45-1.857 11.74 11.74 0 0 0-2.941-1.16 13.8 13.8 0 0 0-3.317-.386 14.052 14.052 0 0 0-3.368.392 12.139 12.139 0 0 0-3.003 1.175 11.3 11.3 0 0 0-4.414 4.369 11.876 11.876 0 0 0-1.193 2.974 13.56 13.56 0 0 0-.397 3.328 13.41 13.41 0 0 0 .409 3.36 11.68 11.68 0 0 0 1.226 2.985 11.085 11.085 0 0 0 1.976 2.492 11.867 11.867 0 0 0 2.661 1.876 13.27 13.27 0 0 0 3.243 1.178 17.778 17.778 0 0 0 6.67.146 13.284 13.284 0 0 0 2.624-.74 10.656 10.656 0 0 0 2.249-1.22 9.78 9.78 0 0 0 1.738-1.59l-2.85-3.277a8.655 8.655 0 0 1-2.876 1.894 9.866 9.866 0 0 1-3.697.67 10.162 10.162 0 0 1-2.918-.398 7.721 7.721 0 0 1-2.412-1.198 6.715 6.715 0 0 1-1.746-1.885 7.122 7.122 0 0 1-.921-2.451l-.033-.177zm59.265-13.782v24.233h-5.626v-19.422h-11.936v19.422h-5.671v-24.233zm.15 0v24.383h-5.926v-19.422h-11.636v19.422h-5.971v-24.533h23.533v.15zm-.3 24.083v-23.933h-22.933v23.933h5.372v-19.422h12.235v19.422zm22.885-6.476a8.4 8.4 0 0 0 0-10.98 6.93 6.93 0 0 0-5.173-2.089 6.854 6.854 0 0 0-5.15 2.088 8.472 8.472 0 0 0 0 10.981 6.85 6.85 0 0 0 5.15 2.088 6.925 6.925 0 0 0 5.173-2.088zm-11.799 5.355a11.556 11.556 0 0 1-4.605-4.424 13.224 13.224 0 0 1 0-12.82 11.617 11.617 0 0 1 4.605-4.402 14.711 14.711 0 0 1 13.297 0 11.629 11.629 0 0 1 4.606 4.402 13.228 13.228 0 0 1 0 12.82 11.568 11.568 0 0 1-4.606 4.424 14.712 14.712 0 0 1-13.297 0zm11.692-5.46a6.671 6.671 0 0 0 1.499-2.363 9.367 9.367 0 0 0 0-6.044 6.665 6.665 0 0 0-1.499-2.364 6.595 6.595 0 0 0-2.263-1.532 7.927 7.927 0 0 0-5.6 0 6.494 6.494 0 0 0-2.245 1.531 6.67 6.67 0 0 0-1.483 2.364 9.469 9.469 0 0 0 0 6.046 6.668 6.668 0 0 0 1.482 2.363 6.485 6.485 0 0 0 2.245 1.531 7.933 7.933 0 0 0 5.602 0 6.584 6.584 0 0 0 2.262-1.531zm1.78-2.259a6.977 6.977 0 0 1-1.566 2.469 6.889 6.889 0 0 1-2.365 1.6 8.223 8.223 0 0 1-5.825 0 6.78 6.78 0 0 1-2.348-1.6 6.971 6.971 0 0 1-1.548-2.468 9.76 9.76 0 0 1 0-6.253 6.968 6.968 0 0 1 1.548-2.468 6.788 6.788 0 0 1 2.348-1.601 8.218 8.218 0 0 1 5.824 0 6.891 6.891 0 0 1 2.366 1.6 6.966 6.966 0 0 1 1.565 2.469 9.646 9.646 0 0 1 0 6.252zm-13.543 7.851a12.068 12.068 0 0 1-2.659-1.923 11.707 11.707 0 0 1-2.005-2.558 11.958 11.958 0 0 1-1.257-3.06 14.256 14.256 0 0 1 0-6.865 11.855 11.855 0 0 1 3.262-5.585 12.2 12.2 0 0 1 2.659-1.918 13.075 13.075 0 0 1 3.167-1.205 15.107 15.107 0 0 1 3.53-.402 15.343 15.343 0 0 1 3.563.401 13.034 13.034 0 0 1 3.179 1.206 12.198 12.198 0 0 1 2.659 1.918 11.847 11.847 0 0 1 3.263 5.585 14.248 14.248 0 0 1 0 6.864 11.967 11.967 0 0 1-1.257 3.062 11.718 11.718 0 0 1-2.006 2.557 12.065 12.065 0 0 1-2.66 1.923 13.015 13.015 0 0 1-3.178 1.206 15.36 15.36 0 0 1-3.563.4 15.112 15.112 0 0 1-3.529-.401 13.054 13.054 0 0 1-3.168-1.205zm-2.451-2.139a11.762 11.762 0 0 0 2.593 1.875 12.761 12.761 0 0 0 3.095 1.179 14.821 14.821 0 0 0 3.46.391 15.065 15.065 0 0 0 3.494-.392 12.72 12.72 0 0 0 3.106-1.178 11.783 11.783 0 0 0 2.593-1.874 11.424 11.424 0 0 0 1.954-2.493 11.66 11.66 0 0 0 1.228-2.985 14 14 0 0 0 0-6.716 11.555 11.555 0 0 0-3.18-5.442 11.893 11.893 0 0 0-2.595-1.872 12.74 12.74 0 0 0-3.106-1.177 15.054 15.054 0 0 0-3.494-.393 14.813 14.813 0 0 0-3.46.393 12.779 12.779 0 0 0-3.095 1.177 11.9 11.9 0 0 0-2.594 1.872 11.375 11.375 0 0 0-1.953 2.474 11.49 11.49 0 0 0-1.228 2.968 14.003 14.003 0 0 0 0 6.718 11.622 11.622 0 0 0 1.228 2.983 11.42 11.42 0 0 0 1.954 2.492zm25.893-11.698h12.48v4.72h-12.48v-4.72zm0-.15h12.63v5.02h-12.78v-5.02zm12.33.3h-12.18v4.42h12.18v-4.42zm24.065-4.597h-8.486v19.423h-5.672v-19.423h-8.531v-4.81h22.689v4.81zm0 .15h-8.336v19.423h-5.972v-19.423h-8.531v-5.11h22.989v5.11zm-8.486-.3h8.336v-4.51h-22.39v4.51h8.532v19.423h5.372v-19.423zm28.271 12.403a2.759 2.759 0 0 0-1.09-2.383 5.83 5.83 0 0 0-3.402-.794h-6.671v6.218h6.489q4.673 0 4.674-3.04zm-11.163-6.943h5.944q4.402 0 4.403-3.04 0-2.95-4.403-2.95h-5.944v5.99zm16.654 7.306a5.844 5.844 0 0 1-2.45 5.037q-2.451 1.77-7.262 1.77h-12.342v-24.232h11.844a12.607 12.607 0 0 1 6.943 1.633 5.222 5.222 0 0 1 2.496 4.629 5.38 5.38 0 0 1-.976 3.221 6.447 6.447 0 0 1-2.746 2.134q4.494 1.361 4.493 5.809zm-5.64-.363a3.17 3.17 0 0 0-.26-1.327 2.355 2.355 0 0 0-.768-.935 3.683 3.683 0 0 0-1.343-.57 8.777 8.777 0 0 0-1.972-.195h-6.521v5.918h6.339a6.369 6.369 0 0 0 3.424-.736 2.398 2.398 0 0 0 1.1-2.155zm.012-1.452a3.46 3.46 0 0 1 .287 1.452 2.68 2.68 0 0 1-1.237 2.406 6.642 6.642 0 0 1-3.587.784h-6.64v-6.517h6.822a9.06 9.06 0 0 1 2.04.203 3.973 3.973 0 0 1 1.45.62 2.648 2.648 0 0 1 .865 1.052zm-10.876-5.64h5.794a5.701 5.701 0 0 0 3.217-.734 2.447 2.447 0 0 0 1.036-2.157 2.346 2.346 0 0 0-1.034-2.089 5.845 5.845 0 0 0-3.22-.712h-5.793v5.692zm5.794.3h-6.094v-6.291h6.094a6.119 6.119 0 0 1 3.385.763 2.629 2.629 0 0 1 1.168 2.337 2.729 2.729 0 0 1-1.166 2.403 5.975 5.975 0 0 1-3.387.787zm10.86 7.155a6.681 6.681 0 0 1-.628 2.958 5.861 5.861 0 0 1-1.885 2.2 8.776 8.776 0 0 1-3.093 1.352 18.092 18.092 0 0 1-4.256.447h-12.492v-24.533h11.994a17.525 17.525 0 0 1 3.993.413 9.434 9.434 0 0 1 3.032 1.245 5.372 5.372 0 0 1 2.564 4.754 6.128 6.128 0 0 1-.25 1.78 5.213 5.213 0 0 1-.755 1.53 5.984 5.984 0 0 1-1.203 1.245 7.202 7.202 0 0 1-1.254.776 6.4 6.4 0 0 1 3.078 2.066 5.975 5.975 0 0 1 1.155 3.767zm-.897 2.828a6.388 6.388 0 0 0 .597-2.828 5.686 5.686 0 0 0-1.091-3.584 6.33 6.33 0 0 0-3.295-2.08l-.39-.118.373-.163a7.14 7.14 0 0 0 1.54-.9 5.692 5.692 0 0 0 1.144-1.184 4.874 4.874 0 0 0 .711-1.441 5.853 5.853 0 0 0 .237-1.694 5.072 5.072 0 0 0-2.428-4.503 9.135 9.135 0 0 0-2.936-1.204 17.238 17.238 0 0 0-3.925-.405h-11.694v23.933h12.192a17.803 17.803 0 0 0 4.186-.437 8.483 8.483 0 0 0 2.989-1.304 5.567 5.567 0 0 0 1.79-2.088zm21.848-2.647a8.4 8.4 0 0 0 0-10.98 6.93 6.93 0 0 0-5.173-2.089 6.853 6.853 0 0 0-5.15 2.088 8.471 8.471 0 0 0 0 10.981 6.849 6.849 0 0 0 5.15 2.088 6.926 6.926 0 0 0 5.173-2.088zm-11.8 5.355a11.558 11.558 0 0 1-4.604-4.424 13.228 13.228 0 0 1 0-12.82 11.618 11.618 0 0 1 4.605-4.402 14.711 14.711 0 0 1 13.297 0 11.626 11.626 0 0 1 4.606 4.402 13.225 13.225 0 0 1 0 12.82 11.565 11.565 0 0 1-4.606 4.424 14.712 14.712 0 0 1-13.297 0zm11.693-5.46a6.672 6.672 0 0 0 1.499-2.364 9.367 9.367 0 0 0 0-6.043 6.67 6.67 0 0 0-1.499-2.364 6.598 6.598 0 0 0-2.263-1.532 7.928 7.928 0 0 0-5.6 0 6.494 6.494 0 0 0-2.246 1.531 6.663 6.663 0 0 0-1.482 2.364 9.464 9.464 0 0 0 0 6.046 6.671 6.671 0 0 0 1.482 2.363 6.483 6.483 0 0 0 2.244 1.531 7.934 7.934 0 0 0 5.603 0 6.585 6.585 0 0 0 2.262-1.531zm1.779-2.26a6.972 6.972 0 0 1-1.565 2.47 6.889 6.889 0 0 1-2.365 1.6 8.223 8.223 0 0 1-5.826 0 6.778 6.778 0 0 1-2.347-1.6 6.973 6.973 0 0 1-1.548-2.469 9.755 9.755 0 0 1 0-6.252 6.965 6.965 0 0 1 1.548-2.468 6.788 6.788 0 0 1 2.348-1.601 8.218 8.218 0 0 1 5.824 0 6.893 6.893 0 0 1 2.366 1.6 6.972 6.972 0 0 1 1.565 2.469 9.642 9.642 0 0 1 0 6.252zm-13.542 7.852a12.067 12.067 0 0 1-2.66-1.923 11.699 11.699 0 0 1-2.004-2.558 11.968 11.968 0 0 1-1.258-3.062 14.266 14.266 0 0 1 0-6.863 11.854 11.854 0 0 1 3.263-5.585 12.188 12.188 0 0 1 2.659-1.918 13.075 13.075 0 0 1 3.167-1.205 15.104 15.104 0 0 1 3.53-.402 15.34 15.34 0 0 1 3.562.401 13.035 13.035 0 0 1 3.18 1.206 12.195 12.195 0 0 1 2.659 1.918 11.856 11.856 0 0 1 3.263 5.585 14.245 14.245 0 0 1 0 6.864 11.966 11.966 0 0 1-1.258 3.062 11.7 11.7 0 0 1-2.005 2.557 12.07 12.07 0 0 1-2.66 1.923 13.017 13.017 0 0 1-3.179 1.206 15.36 15.36 0 0 1-3.562.4 15.113 15.113 0 0 1-3.529-.4 13.055 13.055 0 0 1-3.168-1.206zm-2.452-2.139a11.758 11.758 0 0 0 2.594 1.875 12.763 12.763 0 0 0 3.095 1.179 14.82 14.82 0 0 0 3.46.391 15.062 15.062 0 0 0 3.493-.392 12.724 12.724 0 0 0 3.107-1.178 11.79 11.79 0 0 0 2.593-1.874 11.422 11.422 0 0 0 1.954-2.493 11.67 11.67 0 0 0 1.228-2.984 13.997 13.997 0 0 0 0-6.717 11.56 11.56 0 0 0-3.18-5.442 11.907 11.907 0 0 0-2.595-1.872 12.745 12.745 0 0 0-3.107-1.177 15.048 15.048 0 0 0-3.493-.393 14.813 14.813 0 0 0-3.46.393 12.777 12.777 0 0 0-3.095 1.177 11.882 11.882 0 0 0-2.594 1.872 11.373 11.373 0 0 0-1.953 2.474 11.498 11.498 0 0 0-1.228 2.968 14.013 14.013 0 0 0 0 6.716 11.647 11.647 0 0 0 1.228 2.985 11.424 11.424 0 0 0 1.953 2.492zm32.587-15.078a6.778 6.778 0 0 0-2.29 4.288h13.75a6.694 6.694 0 0 0-2.224-4.266 6.773 6.773 0 0 0-4.629-1.633 6.85 6.85 0 0 0-4.607 1.61zm16.77 8.055h-19.016a6.59 6.59 0 0 0 2.61 4.243 8.559 8.559 0 0 0 5.241 1.566 8.834 8.834 0 0 0 6.581-2.633l3.04 3.495a10.24 10.24 0 0 1-4.13 2.95 16.366 16.366 0 0 1-12.66-.59 11.427 11.427 0 0 1-4.698-4.425 12.484 12.484 0 0 1-1.656-6.421 12.681 12.681 0 0 1 1.611-6.376 11.445 11.445 0 0 1 4.47-4.425 13.056 13.056 0 0 1 6.444-1.587 12.718 12.718 0 0 1 6.331 1.565 11.107 11.107 0 0 1 4.356 4.4 13.354 13.354 0 0 1 1.565 6.559q0 .59-.09 1.679zm-16.673-7.942a6.31 6.31 0 0 0-1.48 1.835 7.231 7.231 0 0 0-.731 2.19h13.4a7.042 7.042 0 0 0-.697-2.163 6.326 6.326 0 0 0-1.451-1.84 6.198 6.198 0 0 0-2.041-1.197 7.928 7.928 0 0 0-4.954-.005 6.364 6.364 0 0 0-2.046 1.18zm-1.743 1.694a6.732 6.732 0 0 1 3.69-3.156 8.214 8.214 0 0 1 5.152.005 6.495 6.495 0 0 1 2.138 1.253 6.634 6.634 0 0 1 1.52 1.928 7.396 7.396 0 0 1 .754 2.43l.023.17h-14.096l.026-.172a7.611 7.611 0 0 1 .793-2.458zm18.415 6.398h-18.833a6.76 6.76 0 0 0 .848 2.171 6.423 6.423 0 0 0 1.668 1.802 7.432 7.432 0 0 0 2.32 1.15 9.871 9.871 0 0 0 2.833.386 9.581 9.581 0 0 0 3.587-.647 8.387 8.387 0 0 0 2.887-1.941l.114-.115 3.23 3.712-.082.099a10.07 10.07 0 0 1-1.878 1.74 10.938 10.938 0 0 1-2.311 1.253 13.59 13.59 0 0 1-2.684.757 18.065 18.065 0 0 1-6.79-.15 13.546 13.546 0 0 1-3.31-1.204 12.177 12.177 0 0 1-2.73-1.923 11.367 11.367 0 0 1-2.03-2.559 11.954 11.954 0 0 1-1.256-3.06 13.713 13.713 0 0 1-.42-3.436 13.853 13.853 0 0 1 .408-3.4 12.205 12.205 0 0 1 1.223-3.05 11.598 11.598 0 0 1 4.527-4.482 12.442 12.442 0 0 1 3.077-1.204 14.352 14.352 0 0 1 3.44-.402 14.081 14.081 0 0 1 3.388.396 12.04 12.04 0 0 1 3.017 1.188 11.312 11.312 0 0 1 2.516 1.908 11.545 11.545 0 0 1 1.898 2.552 12.268 12.268 0 0 1 1.188 3.096 15.199 15.199 0 0 1 .395 3.534q0 .596-.09 1.691l-.012.138zm-19.015-.3h18.877q.078-.982.078-1.53a14.914 14.914 0 0 0-.387-3.464 11.976 11.976 0 0 0-1.159-3.021 11.248 11.248 0 0 0-1.847-2.485 11.009 11.009 0 0 0-2.451-1.858 11.734 11.734 0 0 0-2.941-1.16 13.789 13.789 0 0 0-3.317-.385 14.058 14.058 0 0 0-3.368.392 12.136 12.136 0 0 0-3.004 1.176 11.298 11.298 0 0 0-4.412 4.368 11.901 11.901 0 0 0-1.193 2.974 13.554 13.554 0 0 0-.398 3.328 13.418 13.418 0 0 0 .409 3.362 11.641 11.641 0 0 0 1.227 2.983 11.058 11.058 0 0 0 1.975 2.492 11.886 11.886 0 0 0 2.662 1.877 13.247 13.247 0 0 0 3.24 1.177 17.785 17.785 0 0 0 6.671.146 13.313 13.313 0 0 0 2.625-.74 10.671 10.671 0 0 0 2.249-1.22 9.784 9.784 0 0 0 1.739-1.59l-2.851-3.277a8.653 8.653 0 0 1-2.875 1.894 9.872 9.872 0 0 1-3.698.67 10.159 10.159 0 0 1-2.918-.398 7.725 7.725 0 0 1-2.413-1.198 6.723 6.723 0 0 1-1.745-1.885 7.128 7.128 0 0 1-.922-2.451l-.033-.177zm48.24 10.451v-16.064l-8.17 13.523h-2.45l-8.032-13.569v16.11h-5.174v-24.233h5.945l8.622 15.157 9.03-15.157h5.311l.045 24.233zm-.15 0v-15.525l-7.935 13.134h-2.62l-7.797-13.171v15.712h-5.474v-24.533H1158l8.538 15.01 8.942-15.01h5.545c.016 8.178.046 16.356.046 24.533h-5.428v-.15zm.3-16.064v15.914h4.828l-.045-23.933h-5.077l-9.118 15.305-8.706-15.305h-5.708v23.933h4.874v-16.507l8.268 13.966h2.28l8.403-13.91v.537zm34.565-8.17l-11.346 26.186a12.178 12.178 0 0 1-3.857 5.559 9.24 9.24 0 0 1-5.49 1.61 11.304 11.304 0 0 1-3.585-.589 7.924 7.924 0 0 1-2.905-1.634l2.27-4.175a6.166 6.166 0 0 0 1.93 1.226 5.917 5.917 0 0 0 2.245.454 3.863 3.863 0 0 0 2.472-.772 6.838 6.838 0 0 0 1.793-2.587l.41-.953-10.576-24.324h5.901l7.623 17.926 7.67-17.926zm.137.06l-11.344 26.182a17.223 17.223 0 0 1-1.773 3.392 8.936 8.936 0 0 1-2.136 2.233 8.514 8.514 0 0 1-2.551 1.229 10.712 10.712 0 0 1-3.026.409 11.26 11.26 0 0 1-1.827-.15 11.758 11.758 0 0 1-1.805-.447 9.382 9.382 0 0 1-1.638-.715 7.021 7.021 0 0 1-1.32-.951l-.087-.08 2.418-4.447.14.133a5.766 5.766 0 0 0 .87.675 6.377 6.377 0 0 0 1.014.521 6.151 6.151 0 0 0 1.093.333 5.554 5.554 0 0 0 1.097.11 4.412 4.412 0 0 0 1.322-.186 3.242 3.242 0 0 0 1.058-.553 4.607 4.607 0 0 0 .905-1.001 9.624 9.624 0 0 0 .842-1.528l.384-.894-10.64-24.474h6.228l7.524 17.694 7.571-17.694h5.772l-.09.21zm-11.62 26.067l11.255-25.976h-5.118l-7.77 18.158-7.72-18.158h-5.574l10.51 24.173c-.138.324-.283.708-.437 1.016a9.963 9.963 0 0 1-.87 1.577 4.907 4.907 0 0 1-.966 1.065 3.547 3.547 0 0 1-1.154.604 4.71 4.71 0 0 1-1.41.2 5.849 5.849 0 0 1-1.157-.116 6.411 6.411 0 0 1-1.146-.348 6.665 6.665 0 0 1-1.063-.546 6.126 6.126 0 0 1-.77-.58l-2.122 3.904a6.764 6.764 0 0 0 1.179.831 9.102 9.102 0 0 0 1.586.693 11.473 11.473 0 0 0 1.758.436 10.98 10.98 0 0 0 1.78.145 10.42 10.42 0 0 0 2.94-.396 8.22 8.22 0 0 0 2.462-1.186 8.644 8.644 0 0 0 2.064-2.159 16.939 16.939 0 0 0 1.741-3.334l.002-.003zm-282.1 9.148c-23.345 0-37.72.496-38.037.891-.822.414-1.907 1.125-1.916 1.572-.057.537.107.71 1.018.874 1.371.246 3.174.153 5.573.507 2.516.371.948 1.186 3.203 1.324 5.836.356 23.193.891 32.16.891 8.964 0 64.397-.356 78.523-.356 5.888 0 103.606-.502 145.735-1.37 29.548-.608 46.63-1.4 59.171-1.55a24.02 24.02 0 0 0 2.721-.283c.41-.047.894-.24.894-.624 0-.224-.424-.365-.424-.624 0-.336.815-.54.97-.648.544-.385-.03-.604-.287-.604-27.093 0-88.793.96-147.825.96-69.264 0-135.146-.96-141.479-.96z" transform="translate(-757 -1078)"/><path class="cls-2" d="M25.007 33.686V20.239l-7.185 10.758h-4.549L6.181 20.239v13.447H.802V9.481h6.074l8.811 15.14 9.227-15.14h5.426l.046 24.205h-5.379zM35.765 9.481h5.379v16.137L54.592 9.481h5.379v24.205h-5.379V17.549L41.144 33.686h-5.379V9.481z"/><path class="cls-3" d="M862.692 1106.307a5.379 5.379 0 1 1-5.38-5.379 5.38 5.38 0 0 1 5.38 5.38zM1221.024 1106.307a5.379 5.379 0 1 1-5.38-5.379 5.379 5.379 0 0 1 5.38 5.38z" transform="translate(-757 -1078)"/><path class="cls-1" d="M759.856 1126.47a8.037 8.037 0 0 1-.628 2.89h2.744v-5.847h-1.903l-.213 2.957zm4.412 2.89v2.699a1.918 1.918 0 0 1-.627.111 1.807 1.807 0 0 1-.649-.111v-1.546h-4.715v1.546a2.045 2.045 0 0 1-.64.1 1.983 1.983 0 0 1-.637-.1v-2.699h.593c.46-.303.773-1.155.908-2.957l.302-3.954h4.592v6.911zM771.302 1122.45a1.446 1.446 0 0 1 .111.537 1.631 1.631 0 0 1-.11.616h-3.193v2.24h2.631a1.581 1.581 0 0 1 .113.56 1.53 1.53 0 0 1-.113.593h-2.63v2.363h3.302a1.587 1.587 0 0 1 .113.56 1.54 1.54 0 0 1-.113.594h-4.737v-8.064zM776.834 1129.415a1.094 1.094 0 0 0 1.21-1.23c0-.842-.392-1.246-1.21-1.246h-1.467v2.476zm-.067-3.528a1.028 1.028 0 0 0 1.065-1.164c0-.706-.337-1.177-1.065-1.177h-1.4v2.341zm.326-3.438a2.102 2.102 0 0 1 2.194 2.274 1.874 1.874 0 0 1-.828 1.624 1.933 1.933 0 0 1 1.063 1.825 2.228 2.228 0 0 1-2.385 2.341h-3.203v-8.064zM786.657 1122.45a1.44 1.44 0 0 1 .112.537 1.632 1.632 0 0 1-.112.616h-3.192v2.24h2.632a1.607 1.607 0 0 1 .112.56 1.55 1.55 0 0 1-.112.593h-2.632v2.363h3.304a1.586 1.586 0 0 1 .112.56 1.552 1.552 0 0 1-.112.594h-4.738v-8.064zM788.696 1130.48a1.7 1.7 0 0 1-.09-.516 1.56 1.56 0 0 1 .09-.537 2.226 2.226 0 0 0 .437-.022c.346-.057.997-.583 1.209-3.371l.28-3.584h4.48v7.963a1.971 1.971 0 0 1-.706.1 1.676 1.676 0 0 1-.717-.1v-6.867h-1.792l-.19 2.509c-.302 4.01-1.59 4.514-2.352 4.514a2.345 2.345 0 0 1-.65-.09zM800.881 1123.524c-1.03 0-1.725.583-1.725 2.957 0 2.363.695 2.957 1.725 2.957 1.053 0 1.725-.594 1.725-2.957 0-2.374-.672-2.957-1.725-2.957zm0-1.187c1.971 0 3.236 1.244 3.236 4.144 0 2.9-1.23 4.145-3.236 4.145-2.005 0-3.237-1.244-3.237-4.145 0-2.867 1.266-4.144 3.237-4.144zM812.35 1130.412a1.946 1.946 0 0 1-.705.101 1.816 1.816 0 0 1-.729-.1v-6.732h-2.822v6.731a2.14 2.14 0 0 1-.717.101 1.766 1.766 0 0 1-.716-.1v-7.963h5.69v7.962zM821.792 1122.45a4.004 4.004 0 0 1 .93.1v7.863a2.04 2.04 0 0 1-.706.1 2.276 2.276 0 0 1-.728-.1v-2.453a35.305 35.305 0 0 1 .078-3.707h-.067a23.617 23.617 0 0 1-1.233 2.833l-.783 1.646a1.415 1.415 0 0 1-.415.057.855.855 0 0 1-.358-.057c-.258-.526-.526-1.053-.784-1.59a19.571 19.571 0 0 1-1.265-2.89h-.067a21.235 21.235 0 0 1 .134 3.427v2.734a1.866 1.866 0 0 1-.673.1 1.842 1.842 0 0 1-.638-.1v-7.863a3.384 3.384 0 0 1 .862-.1 4.243 4.243 0 0 1 .852.1l1.019 2.05a18.754 18.754 0 0 1 .964 2.195h.055a8.382 8.382 0 0 1 .449-1.164c.503-1.02.985-2.05 1.455-3.08a4.558 4.558 0 0 1 .918-.101zM830.226 1122.45a1.446 1.446 0 0 1 .112.537 1.632 1.632 0 0 1-.112.616h-3.192v2.24h2.632a1.608 1.608 0 0 1 .112.56 1.55 1.55 0 0 1-.112.593h-2.632v2.363h3.304a1.589 1.589 0 0 1 .112.56 1.558 1.558 0 0 1-.112.594H825.6v-8.064zM837.226 1122.55a2.596 2.596 0 0 1 1.434 0v7.862a1.951 1.951 0 0 1-.705.101 1.809 1.809 0 0 1-.729-.1v-3.417h-2.957v3.416a2.133 2.133 0 0 1-.717.101 1.78 1.78 0 0 1-.717-.1v-7.863a1.96 1.96 0 0 1 .706-.1 2.094 2.094 0 0 1 .728.1v3.214h2.957v-3.214zM846.433 1122.45a1.758 1.758 0 0 1 .111.604 1.806 1.806 0 0 1-.11.627h-1.983v6.732a2.16 2.16 0 0 1-.717.1 1.785 1.785 0 0 1-.717-.1v-6.732h-2.039a1.53 1.53 0 0 1-.111-.605 1.806 1.806 0 0 1 .111-.627z" transform="translate(-757 -1078)"/><path class="cls-2" d="M86.865 33.686H65.349V9.481h5.379v18.826h10.758V9.481h5.379v24.205z"/><path class="cls-2" d="M84.186 36.375h5.358v-8.068h-5.358v8.068z"/></svg>