<svg id="Слой_1" data-name="Слой 1" xmlns="http://www.w3.org/2000/svg" viewBox="0 0 1814.04 2986.34"><defs><style>.cls-1{fill:#e39c5e}.cls-2{fill:#006b86}.cls-3{fill:#239142}.cls-4{fill:#d42427}.cls-5{fill:#633859}</style></defs><title>ЭФК</title><g id="Layer_1" data-name="Layer 1"><path class="cls-1" d="M441.3 399.57H4.59A3.59 3.59 0 0 1 1 396v-18.67a3.59 3.59 0 0 1 3.58-3.57h6.68V95.54H4.59A3.59 3.59 0 0 1 1 92V73.3a3.59 3.59 0 0 1 3.58-3.57H441.3a3.57 3.57 0 0 1 3.58 3.56V92a3.57 3.57 0 0 1-3.57 3.57H432v278.16h9.29a3.57 3.57 0 0 1 3.58 3.56V396a3.57 3.57 0 0 1-3.54 3.6zM18.42 121.92h186.92V95.54H18.42zm194.07 0h5.64V95.54h-5.61zm12.77 0h5.34V95.54h-5.39zm12.49 0h187.11V95.54H237.75zm187.11 7.14H237.75v244.67h24.4V322.1a15.65 15.65 0 0 1 4.58-11 15.61 15.61 0 0 1 7.47-4.17v-16.2a13 13 0 0 1 12.91-12.91H375a13 13 0 0 1 12.91 12.91v16a15.6 15.6 0 0 1 7.71 4.23 15.66 15.66 0 0 1 4.59 11v51.72h24.66V129.07zm-194.26 0h-5.33l.4 244.7h4.93zm-12.46 0h-5.65v244.67h6.06zm-12.8 0H18.42v244.67h37.22l-4.07-25.28a3.15 3.15 0 0 1-.06-.61 4.71 4.71 0 0 1 1.11-3l.14-.17a4.63 4.63 0 0 1 2.65-1.41h16.27V339a25.88 25.88 0 0 1-13.43-5.9 24.48 24.48 0 0 1-8.41-15 3.53 3.53 0 0 1-.33-1.5 3.59 3.59 0 0 1 3.57-3.58c7.19 0 13.75 2.13 18.45 6.16a20.76 20.76 0 0 1 3.72 4.16 20.8 20.8 0 0 1 3.75-4.13c4.7-4 11.25-6.16 18.43-6.16a3.53 3.53 0 0 1 1.32.26l.24.1h.08l.22.13h.08a3.27 3.27 0 0 1 .48.35 3.48 3.48 0 0 1 1.14 2.25v.39a3.15 3.15 0 0 1-.06.61 25 25 0 0 1-8.53 15.69 26.18 26.18 0 0 1-13.58 6v4.08h15.79l.46.06.45.1a4.71 4.71 0 0 1 3.48 4.66 6.34 6.34 0 0 1-.07.75v.11l-4 25.15h34.24v-6.41a3.57 3.57 0 0 1 3.57-3.56h18.23v-88.24h-18.34a3.57 3.57 0 0 1-3.57-3.57 3.72 3.72 0 0 1 .09-.81l7.42-43.42a3.54 3.54 0 0 1 3.51-3h29.56a3.56 3.56 0 0 1 3.54 3.19l6.58 43.44a3.54 3.54 0 0 1-2.94 4.05H158v88.31h18.2a3.58 3.58 0 0 1 3.57 3.56v6.44h25.53V129.07zM11.27 88.39h426.46V76.88H8.16v11.51zM354.47 297a3.56 3.56 0 1 1 4.94 5.14L357 304.4l2.39 2.3a3.56 3.56 0 1 1-4.94 5.13l-2.59-2.49-2.59 2.49a3.56 3.56 0 1 1-4.94-5.13l2.39-2.3-2.39-2.3a3.56 3.56 0 1 1 4.94-5.14l2.59 2.5zm-41.41 0a3.56 3.56 0 1 1 4.94 5.1l-2.39 2.3 2.36 2.33a3.56 3.56 0 1 1-4.94 5.13l-2.6-2.49-2.58 2.49a3.56 3.56 0 1 1-5.42-4.61 3.32 3.32 0 0 1 .54-.52l2.39-2.3-2.39-2.3a3.56 3.56 0 0 1 4.94-5.14l2.58 2.5zm80 76.8v-51.7a8.49 8.49 0 0 0-14.5-6 8.46 8.46 0 0 0-2.5 6v51.63zm-24.16-51.7a15.61 15.61 0 0 1 4.6-11 15.57 15.57 0 0 1 7.22-4.11v-16.26A5.77 5.77 0 0 0 375 285h-87.86a5.77 5.77 0 0 0-5.76 5.76v16.11a15.57 15.57 0 0 1 7.46 4.17 15.66 15.66 0 0 1 4.59 11v14.72h75.44V322.1zm0 51.66v-8.21h-75.45v8.18h75.44zm0-15.36v-14.56h-75.45v14.56zm-82.61 15.33V322.1a8.5 8.5 0 0 0-17 0v51.63zm-193.56-53.1a19.09 19.09 0 0 0-9.14 4 13.35 13.35 0 0 0-4.31 7 19 19 0 0 0 8.47-4.14 18 18 0 0 0 4.98-6.86zm-21.54 11.1a13.42 13.42 0 0 0-4.31-7 19 19 0 0 0-9.06-4 17.46 17.46 0 0 0 5 7 18.74 18.74 0 0 0 8.37 4zm15 42a1.94 1.94 0 0 0 1-.3l.09-.07a1 1 0 0 0 .4-.55l3.63-22.52H59.06l3.64 22.44a1 1 0 0 0 .4.54 2.05 2.05 0 0 0 1.12.37h22zm86.44 0v-2.85h-36.41v2.85h36.41zm-35.76-105.35h35.22l-5.52-36.45h-23.48zm-128.71 124h429.57v-11.47H8.16z"/><path class="cls-2" d="M891.62 253.28h44.68a9.58 9.58 0 0 0 6.63-2.67l.15-.16a9.61 9.61 0 0 0-6.78-16.38h-45.6a20.82 20.82 0 0 1 .92 6.12zM571.4 398.45a3.58 3.58 0 0 1-.38-7.15h79c0-.09.09-.19.15-.28l12.17-19.76h-24.07a23.45 23.45 0 0 1-18.3-8.37c-4.28-4.82-7.21-11.31-9.32-18.34v-.23L588 260.43h-1.75a16.73 16.73 0 0 1-11.84-28.58 16.66 16.66 0 0 1 11.82-4.92h13.57v-119.2a16.38 16.38 0 0 1 16.3-16.33h24.77a16.3 16.3 0 0 1 11.54 4.8l.19.21a16.22 16.22 0 0 1 4.6 11.32v29.51h24.19a3.58 3.58 0 0 1 0 7.15h-55.53a3.58 3.58 0 0 1-.38-7.15 2.41 2.41 0 0 1 .38 0H650v-29.51a9.19 9.19 0 0 0-2.54-6.34l-.16-.15a9.17 9.17 0 0 0-6.48-2.69h-24.73a9.19 9.19 0 0 0-9.18 9.18v119.19h172.54a19.57 19.57 0 0 1 1.5-1.65 21 21 0 0 1 14.93-6.22h74.59a21.11 21.11 0 0 1 14.94 6.2c.52.54 1 1.09 1.49 1.67h49.4a16.74 16.74 0 0 1 11.84 28.59l-.22.19a16.7 16.7 0 0 1-11.62 4.73h-1.78l-23 83.65a1.79 1.79 0 0 1-.09.4c-2.16 7.14-5.1 13.65-9.38 18.47a23.38 23.38 0 0 1-18.28 8.31h-23.66L872.29 391c0 .09.1.19.14.28h95.82a3.58 3.58 0 0 1 .38 7.15H571.4zm87-7.15h205.67l-12.33-20h-181zM817 137.22V60.73h-88.43v76.51zm7.15-76.51v76.51h88.45V60.73zm103.46 0h-7.86v76.51h12.69a3.58 3.58 0 0 1 .38 7.15H708.73a3.58 3.58 0 0 1-.38-7.15h13.07V60.73h-7.86a3.57 3.57 0 0 1-3.56-3.57V3.58A3.57 3.57 0 0 1 713.55 0h214.1a3.57 3.57 0 0 1 3.57 3.57v53.57a3.57 3.57 0 0 1-3.57 3.57zm-210.49-7.15h207v-8.07H717.14v8.07zm206.93-15.21V7.15H717.14v31.2zM891.6 314.78a21.2 21.2 0 0 1-21.15 21.15h-74.59a21.06 21.06 0 0 1-14.89-6.2l-.2-.21a21.06 21.06 0 0 1-6-14.73v-54.36H595.33l22.14 82c1.85 6.19 4.33 11.79 7.82 15.73a16.65 16.65 0 0 0 13 5.93H883.8a16.61 16.61 0 0 0 13-5.87c3.48-3.94 6-9.55 7.86-15.83l.08-.22 22.48-81.76h-35.53v54.35zm-21.15 14a14 14 0 0 0 14-14v-74.59a13.8 13.8 0 0 0-2.26-7.59l-.13-.22a13.85 13.85 0 0 0-1.69-2 14 14 0 0 0-9.88-4.11H795.9a14 14 0 0 0-9.89 4.11 12.38 12.38 0 0 0-1.22 1.39 3.71 3.71 0 0 1-1 1.47 13.87 13.87 0 0 0-1.89 7v74.59a13.92 13.92 0 0 0 3.93 9.73l.17.16a14 14 0 0 0 9.89 4.12h74.56zm-94.83-94.71H586.19a9.61 9.61 0 0 0 0 19.21h188.55v-13.09a21.14 21.14 0 0 1 .9-6.12z"/><path class="cls-1" d="M1390.07 235.1v13.1h110.3a16.09 16.09 0 0 1 16.08 16.08v21.34a19.82 19.82 0 0 1 16.5 19.46v70.35h22.28v-9.7a3.57 3.57 0 0 1 3.57-3.57h25.36V242.73h-25.36a3.59 3.59 0 0 1-3.57-3.61 3.46 3.46 0 0 1 .09-.78l9.84-57.65a3.59 3.59 0 0 1 3.52-3h39.23a3.58 3.58 0 0 1 3.55 3.19l8.74 57.72a3.57 3.57 0 0 1-3 4.06l-.52.05h-25.36v119.45h25.36a3.57 3.57 0 0 1 3.58 3.56v9.7h4.88a3.57 3.57 0 0 1 3.57 3.57v17.11a3.57 3.57 0 0 1-3.57 3.57h-400.25a3.59 3.59 0 0 1-3.58-3.57V379a3.59 3.59 0 0 1 3.58-3.57h8.77V157.91c0-1.16 0-2.32.08-3.47a3.55 3.55 0 0 1-.08-.73 3.61 3.61 0 0 1 .18-1.13 78.21 78.21 0 0 1 156.06 0 4 4 0 0 1 .17 1.13 3.54 3.54 0 0 1-.07.73c0 1.15.07 2.31.07 3.47v77.19zm-39.48 140.33v-49.17h-11.09v49.17zm0-56.32v-14a19.8 19.8 0 0 1 16.17-19.38v-15.8h-27.26v49.18zm32.26 56.25a.22.22 0 0 0 .07-.17V305.1a12.59 12.59 0 0 0-25.18 0v70.09a.27.27 0 0 0 .06.17.21.21 0 0 0 .14.07h24.77a.21.21 0 0 0 .14-.07zm.07-127.16v-34.59h-43.42v49.17h27.32a16.12 16.12 0 0 1 4.45-9.64l.21-.23a16.08 16.08 0 0 1 11.36-4.71zm7.15 78.74h103.39V302.13l.06-.44a19.84 19.84 0 0 1 15.78-15.92v-21.49a9 9 0 0 0-8.93-8.93h-117.53a8.89 8.89 0 0 0-6.31 2.62l-.16.15a9 9 0 0 0-2.47 6.16v21.45H1375.83l.18.06h.31l.18.06.17.06h.5l.18.07.15.06h.3l.18.07.17.08.12.06h.17l.15.07.16.08.22.11h.08l.13.07.16.09.15.08h.16l.11.06.15.08.16.09.12.07.08.06h.07l.13.08.16.1.14.09h.15l.1.07h.06l.14.09.15.1.12.08h.08l.06.05.12.09.14.11.14.1h.06l.08.07.1.08.13.12.14.11.11.09.08.07h.06l.11.12.14.12.12.1v.06l.08.07.1.09.13.14a19.67 19.67 0 0 1 5.8 13.94v21.85zm103.39 7.15h-103.39V356h103.39zm-19.68-60.66a3.59 3.59 0 0 1 5 5.14l-4.11 4 4.11 3.94a3.59 3.59 0 0 1-5 5.14l-4.3-4.14-4.3 4.14a3.59 3.59 0 1 1-5-5.14l4.11-3.94-4.11-4a3.59 3.59 0 1 1 5-5.14l4.3 4.14zm-55.41 0a3.56 3.56 0 0 1 4.94 5.14l-4.11 4 4.11 3.94a3.56 3.56 0 0 1-4.94 5.14l-4.31-4.14-4.31 4.14a3.56 3.56 0 1 1-4.94-5.14l4.11-3.94-4.11-4a3.56 3.56 0 1 1 4.94-5.14l4.31 4.14zm75.09 89.72h-103.39v12.28h103.4v-12.28zm7.4 12.28h24.69a.24.24 0 0 0 .18-.07.21.21 0 0 0 .07-.18v-70.1a12.6 12.6 0 0 0-24.93-2.51v72.59a.24.24 0 0 0 .25.25zm-114.18 7.15h-158.22v9.95h393.08v-9.95zm-145.88-7.15h43.43v-49.17h-43.43v49.17zm50.58 0h41v-49.17h-41zm-66.49-329.38a3.57 3.57 0 0 1 0-7.14h400.23a3.57 3.57 0 1 1 0 7.14zm337.48 329.38h50.72v-6.12h-50.72zm.65-139.87h49.48l-7.67-50.72h-33.15l-8.68 50.72zm-295.14-133.47l26.33 27.41a27.53 27.53 0 0 1 14.08-6.14V86.94a70.79 70.79 0 0 0-40.41 15.15zm21.47 32.64l-26.85-27.94-.88.87a70.82 70.82 0 0 0-20.39 42.48h43a27.43 27.43 0 0 1 5.11-15.41zm72.34-27.49l-26.94 28a27.57 27.57 0 0 1 4.75 14.86h43a70.87 70.87 0 0 0-20.39-42.48l-.42-.42zM1330 129.92l26.34-27.42a70.7 70.7 0 0 0-40.92-15.56v36.42a27.59 27.59 0 0 1 14.58 6.56zm2.33 83.69h-41v49.17h41zm0 56.32h-41v49.18h41zm7.15-112.65v49.18H1383v-49.18zm-7.15 49.18v-49.18h-41v49.18zm-48.12 7.15h-43.41v49.17h43.43zm0 56.32h-43.41v49.18h43.43zm0-63.47v-49.18h-43.41v49.18zm7.16-56.32h41a20.5 20.5 0 0 0-41 0zM200.21 2441.73H376.8V2418H200.21zm99.67-232.1h97.91v-26.9h-97.91v26.9zm101.48 7.1H296.3a3.57 3.57 0 0 1-3.57-3.57v-34a3.57 3.57 0 0 1 3.56-3.58h105.07a3.58 3.58 0 0 1 3.58 3.58v34a3.57 3.57 0 0 1-3.57 3.57zM66.86 2101a3.56 3.56 0 1 1-6.51-2.9l11.94-26.61H51.71a3.58 3.58 0 0 1 0-7.15h391.63a3.58 3.58 0 1 1 .38 7.15H83.34l11.94 26.61a3.56 3.56 0 1 1-6.51 2.9l-7.36-16.4v54.71a3.58 3.58 0 0 1-7.15.38 2.41 2.41 0 0 1 0-.38v-54.72L66.89 2101zm175.94 165.73h155v-26.84h-155zm158.56 7.16H239.22a3.57 3.57 0 0 1-3.57-3.57v-34a3.59 3.59 0 0 1 3.57-3.58h162.14a3.58 3.58 0 0 1 3.58 3.58v34a3.57 3.57 0 0 1-3.58 3.53zm42 196.12a3.58 3.58 0 1 1 0 7.16H51.71a3.58 3.58 0 0 1 0-7.16h109.07v-82.52a18.22 18.22 0 0 1 16.46-18.1v-21.26a16.13 16.13 0 0 1 16.07-16.07h191a16.11 16.11 0 0 1 16.06 16.07v21.29a18.23 18.23 0 0 1 15.82 18V2470h27.11zm-225.85-110a3.56 3.56 0 0 1 4.94-5.13l4.29 4.13 4.3-4.13a3.56 3.56 0 0 1 4.94 5.13l-4.1 3.94 4.1 3.93a3.56 3.56 0 0 1-4.94 5.14l-4.3-4.13-4.29 4.13a3.56 3.56 0 1 1-4.94-5.14l4.09-3.92-4.09-3.94zm124.17 0a3.56 3.56 0 1 1 4.95-5.13l4.28 4.13 4.31-4.13a3.56 3.56 0 0 1 4.94 5.13l-4.1 3.94 4.1 3.93a3.61 3.61 0 0 1 .09 5.05 3.55 3.55 0 0 1-5 .09l-4.31-4.13-4.28 4.13a3.57 3.57 0 1 1-5.12-5l.17-.17 4.1-3.92-4.1-3.94zM200.21 2470H376.8v-11.24H200.21zm-87.95-237.24v-26.28h-3.11v26.28zm-3.7-33.43h2.65l-.06-.14a3.58 3.58 0 0 1 2.14-4.57l10.76-3.89a3.56 3.56 0 0 1 4.56 2.12l13.87 38.36a3.78 3.78 0 0 1 .2 1.53h42.38a3.58 3.58 0 0 1 3.58 3.58v13.52a3.58 3.58 0 0 1-3.58 3.58H174v16.91a3.58 3.58 0 0 1-7.15 0v-16.91h-77.7v16.91a3.58 3.58 0 0 1-7.15 0v-16.91H71a3.57 3.57 0 0 1-3.58-3.56v-13.52a3.58 3.58 0 0 1 3.57-3.59h6v-37.22a3.57 3.57 0 0 1 3.57-3.57H90v-6.64a3.58 3.58 0 0 1 3.58-3.58H105a3.58 3.58 0 0 1 3.58 3.58v14zm10.85 22.67v10.76h3.89zm-18 10.76v-43.9h-4.3v43.9zm29.1-1l4.06-1.46-11.44-31.68-4.07 1.48zm-42.17 1v-33.64H84v33.64zm-13.85 13.52h107v-6.36h-107zM168 2470h25.1v-82.52a11.07 11.07 0 0 0-11-11H179a11.07 11.07 0 0 0-11 11zm16.46-100.56a18.23 18.23 0 0 1 15.82 18v23.4H376.8v-23.4a18.22 18.22 0 0 1 16.46-18.1v-21.18a9 9 0 0 0-8.91-8.92h-191a9 9 0 0 0-8.92 8.92v21.29zm15.82 82.17H376.8v-2.72H200.21zM409.12 2470v-82.52a11.07 11.07 0 0 0-11-11H395a11.07 11.07 0 0 0-11 11V2470h25.15zM427.71 654.49H188.15v41.58a3.57 3.57 0 0 1-3.56 3.58H143v41.59a3.57 3.57 0 0 1-3.57 3.57h-41.6v41.59a3.58 3.58 0 0 1-3.58 3.6H52.66v41.58a3.57 3.57 0 0 1-3.56 3.58H7.5v37.59h122.72l-4.06-25.16v-.12a4.53 4.53 0 0 1-.07-.74 4.67 4.67 0 0 1 3.89-4.58h16.23v-4.08a26 26 0 0 1-13.44-5.89 24.65 24.65 0 0 1-8.41-15 3.85 3.85 0 0 1-.33-1.5 3.57 3.57 0 0 1 3.57-3.57c7.18 0 13.75 2.12 18.45 6.16a20.83 20.83 0 0 1 3.73 4.17 20.56 20.56 0 0 1 3.73-4.17c4.7-4 11.27-6.16 18.45-6.16a3.73 3.73 0 0 1 1.32.25l.24.1h.08l.21.12.08.05a4.29 4.29 0 0 1 .48.36 3.61 3.61 0 0 1 1.15 2.27v.38a2.07 2.07 0 0 1-.06.61 24.88 24.88 0 0 1-8.53 15.7 26.33 26.33 0 0 1-13.6 6.06v4.08h15.52a3.55 3.55 0 0 1 3.19 2 3.6 3.6 0 0 1 1.4 3.42l-4 25.24h32.4V821a15.74 15.74 0 0 1 12.09-15.25v-16.02a12.84 12.84 0 0 1 3.8-9.12 12.87 12.87 0 0 1 9.11-3.79h87.89a12.86 12.86 0 0 1 9.13 3.8l.2.22a12.88 12.88 0 0 1 3.59 8.91v16a15.78 15.78 0 0 1 7.74 4.24l.19.22a15.55 15.55 0 0 1 4.4 10.84v51.68h19.6v-6.43a3.59 3.59 0 0 1 3.58-3.57h18.23v-88.29h-18.26a3.59 3.59 0 0 1-3.58-3.6 3.48 3.48 0 0 1 .09-.79l7.41-43.41a3.6 3.6 0 0 1 3.53-3h29.57a3.58 3.58 0 0 1 3.55 3.2l6.58 43.47a3.57 3.57 0 0 1-3 4.06h-18.77v88.36h18.25a3.59 3.59 0 0 1 3.57 3.57v6.43h17.37a3.57 3.57 0 0 1 3.57 3.57V895a3.57 3.57 0 0 1-3.56 3.58H3.57A3.57 3.57 0 0 1 0 895v-18.69a3.43 3.43 0 0 1 .34-1.54v-43.24A3.57 3.57 0 0 1 3.91 828H45.5v-41.63a3.57 3.57 0 0 1 3.57-3.57h41.6v-41.56a3.57 3.57 0 0 1 3.56-3.58h41.6v-41.59a3.57 3.57 0 0 1 3.57-3.57H181v-38H3.91a3.57 3.57 0 0 1-3.57-3.57v-18.69a3.57 3.57 0 0 1 3.56-3.58H260V613a18.67 18.67 0 0 1-13.92-18v-10.62a18.54 18.54 0 0 1 5.46-13.11 18.52 18.52 0 0 1 13.1-5.46h3.81a12.15 12.15 0 0 1-1.11-5v-.08a12.15 12.15 0 0 1 3.59-8.63 12.15 12.15 0 0 1 8.63-3.59H315a12.13 12.13 0 0 1 8.62 3.59 12.19 12.19 0 0 1 2.49 13.7h25.56a12.15 12.15 0 0 1-1.11-5v-.07a12.26 12.26 0 0 1 12.23-12.23h35.38a12.19 12.19 0 0 1 8.64 3.59l.2.22a12.16 12.16 0 0 1 2.28 13.5h3.8a18.46 18.46 0 0 1 13.1 5.45 18.57 18.57 0 0 1 5.45 13.11V595a18.49 18.49 0 0 1-5.45 13.11 18.59 18.59 0 0 1-8.45 4.86v15.65h10a3.57 3.57 0 0 1 3.57 3.57v18.71a3.57 3.57 0 0 1-3.56 3.58zM294.2 795.92a3.56 3.56 0 1 1 4.94 5.13l-2.39 2.3 2.39 2.31a3.56 3.56 0 0 1-4.94 5.14l-2.59-2.51-2.61 2.51a3.56 3.56 0 0 1-4.94-5.14l2.39-2.31-2.39-2.3a3.56 3.56 0 1 1 4.94-5.13l2.59 2.49zm-41.43 0a3.56 3.56 0 0 1 4.94 5.13l-2.4 2.3 2.4 2.31a3.56 3.56 0 0 1-4.94 5.14l-2.6-2.51-2.6 2.51a3.56 3.56 0 1 1-4.94-5.14l2.39-2.31-2.39-2.3a3.56 3.56 0 1 1 4.94-5.13l2.6 2.49zm80 25.15a8.52 8.52 0 0 0-2.34-5.86l-.16-.15a8.51 8.51 0 0 0-14.52 6v51.67h17zm-12.33-15.19v-16.15a5.81 5.81 0 0 0-1.54-3.94l-.15-.15a5.78 5.78 0 0 0-4.08-1.69h-87.85a5.77 5.77 0 0 0-5.77 5.77v16.1a15.7 15.7 0 0 1 7.49 4.19l.19.22a15.52 15.52 0 0 1 4.41 10.84v14.6h75.5v-14.6a15.74 15.74 0 0 1 11.84-15.19zm-11.84 36.94h-75.5v14.57h75.5zm0 21.72h-75.5v8.19h75.5zM226 821.07a8.48 8.48 0 0 0-2.35-5.86l-.16-.15a8.51 8.51 0 0 0-14.52 6v51.67h17V821zm-58.66-1.48a18.94 18.94 0 0 0-9.15 4 13.29 13.29 0 0 0-4.31 7 19.13 19.13 0 0 0 8.49-4.14 18.08 18.08 0 0 0 5-6.94zm-21.53 11.14a13.37 13.37 0 0 0-4.32-7 18.81 18.81 0 0 0-9.07-4 17.56 17.56 0 0 0 5 7 18.67 18.67 0 0 0 8.37 4zm15.05 42a1.88 1.88 0 0 0 1.14-.38 1 1 0 0 0 .39-.55l3.61-22.57h-32.36l3.63 22.55a1 1 0 0 0 .39.54 1.85 1.85 0 0 0 1.13.38h22zm205.88 0h36.48v-2.85h-36.51zm.66-105.45h35.24l-5.52-36.47h-23.5l-6.22 36.47zm35.82-206.55a5.1 5.1 0 0 0-1.35-3.46l-.15-.13a5.07 5.07 0 0 0-3.58-1.49h-35.41a5.08 5.08 0 0 0-.07 10.16h35.52a5.11 5.11 0 0 0 5-5.08zm-83.22 0a5.14 5.14 0 0 0-1.47-3.59 5 5 0 0 0-3.57-1.47h-35.42a5.14 5.14 0 0 0-3.59 1.47 5.09 5.09 0 0 0 3.54 8.67H315a5.16 5.16 0 0 0 3.4-1.35l.13-.14a5.14 5.14 0 0 0 1.47-3.59zm90.53 52.88H267.12v15h143.41zm2.49-7.15a11.45 11.45 0 0 0 11.4-11.46v-10.62A11.45 11.45 0 0 0 413 573H264.62a11.46 11.46 0 0 0-11.42 11.43V595a11.46 11.46 0 0 0 11.42 11.43zm-405.89 285h417v-11.53h-417zm.34-244.1h416.66v-11.55H7.5zM1038 631.09H791.75v42.82a3.59 3.59 0 0 1-3.57 3.58h-42.83v42.82a3.58 3.58 0 0 1-3.58 3.58H699v42.84a3.57 3.57 0 0 1-3.57 3.57h-42.88v42.83a3.58 3.58 0 0 1-3.56 3.6h-42.85v40.41h152.08v-10.81a10.74 10.74 0 0 1-6.66-3.14 10.87 10.87 0 0 1-3.18-7.65v-.3a10.87 10.87 0 0 1 3.18-7.65 10.77 10.77 0 0 1 7.65-3.18H864a10.77 10.77 0 0 1 7.65 3.18 10.88 10.88 0 0 1 3.19 7.65v.3a10.88 10.88 0 0 1-3.19 7.65 10.71 10.71 0 0 1-6.65 3.14v10.77h38.3V686.16a3.57 3.57 0 0 1 3.57-3.57h106.71a3.57 3.57 0 0 1 3.58 3.56V857.1H1038a3.57 3.57 0 0 1 3.57 3.57v19.18a3.57 3.57 0 0 1-3.56 3.58H600.65a3.57 3.57 0 0 1-3.57-3.57v-19.19a3.62 3.62 0 0 1 1.92-3.17v-44.39a3.57 3.57 0 0 1 3.57-3.57h42.83v-42.81a3.57 3.57 0 0 1 3.56-3.58h42.83v-42.84a3.58 3.58 0 0 1 3.58-3.58h42.83v-42.82a3.57 3.57 0 0 1 3.57-3.57h42.83v-39.25h-182a3.59 3.59 0 0 1-3.58-3.57v-19.2a3.57 3.57 0 0 1 3.55-3.59h252.79V588.5a19.09 19.09 0 0 1-14.31-18.39v-11a18.94 18.94 0 0 1 5.58-13.4 18.85 18.85 0 0 1 13.37-5.57h4.07a12.15 12.15 0 0 1-1.21-5.23v-.08a12.52 12.52 0 0 1 12.47-12.46h36.37a12.45 12.45 0 0 1 11.3 17.81h26.57a12.24 12.24 0 0 1-1.2-5.22v-.1a12.45 12.45 0 0 1 3.66-8.79 12.43 12.43 0 0 1 8.8-3.66h36.35a12.45 12.45 0 0 1 11.27 17.78h4.06a18.91 18.91 0 0 1 13.41 5.57l.19.22a18.87 18.87 0 0 1 5.38 13.19v11a19.12 19.12 0 0 1-14.3 18.39v16.17H1038a3.59 3.59 0 0 1 3.57 3.57v19.2a3.57 3.57 0 0 1-3.57 3.57zm-224.73 92.8v18.29h24.65v-18.29zm-7.15 18.29v-18.29H798a9.14 9.14 0 0 0-6.46 2.67 9.1 9.1 0 0 0-.14 12.76l.15.15a9.1 9.1 0 0 0 6.46 2.69zm39-18.29v18.29h8.08a9.1 9.1 0 0 0 6.46-2.69 9 9 0 0 0 2.68-6.45 9.17 9.17 0 0 0-2.52-6.32l-.16-.14a9.1 9.1 0 0 0-6.46-2.69zm24.34 9.11a16.35 16.35 0 0 1-16.29 16.29H798a16.25 16.25 0 0 1-11.51-4.78l-.2-.22a16.2 16.2 0 0 1 .2-22.8 16.31 16.31 0 0 1 11.51-4.8h55.12a16.25 16.25 0 0 1 11.51 4.78l.21.22a16.3 16.3 0 0 1 4.57 11.3zm64.85 42.89a3.58 3.58 0 0 1 .38 7.15H924.6a3.58 3.58 0 0 1-.38-7.15h10.09zm-23.78 81.21h99.56V689.73h-99.62zm92-322.24a5.33 5.33 0 0 0-5.32-5.32h-36.35a5.32 5.32 0 0 0-3.75 1.55 5.32 5.32 0 0 0 3.69 9.08h36.49a5.33 5.33 0 0 0 5.25-5.32zm-85.46 0a5.33 5.33 0 0 0-5.32-5.32H875.4a5.32 5.32 0 0 0-.07 10.64h36.49a5.33 5.33 0 0 0 5.25-5.32zm93 54.22H862.51v15.65H1010zm2.47-7.15a11.86 11.86 0 0 0 11.83-11.82v-11a11.68 11.68 0 0 0-3.32-8.2l-.16-.15a11.74 11.74 0 0 0-8.35-3.48H860a11.86 11.86 0 0 0-11.84 11.83v11A11.85 11.85 0 0 0 860 581.93zM857.88 846.37h-92.51v10.73h92.47zm6.15-7.15a3.72 3.72 0 0 0 2.62-1.07 3.69 3.69 0 0 0 1.08-2.61v-.3a3.69 3.69 0 0 0-1.08-2.61 3.72 3.72 0 0 0-2.62-1.07H759.21a3.7 3.7 0 0 0-2.61 1.07 3.7 3.7 0 0 0-1.07 2.61v.3a3.7 3.7 0 0 0 1.07 2.61 3.7 3.7 0 0 0 2.61 1.07H864zm-259.76 37.07h430.15v-12H604.23zm1.91-252.35h428.24v-12H606.14zM1621.53 645.06h-231.68v40.13a3.57 3.57 0 0 1-3.56 3.58h-40.13v40.12a3.59 3.59 0 0 1-3.57 3.58h-40.13v40.12a3.57 3.57 0 0 1-3.57 3.57h-40.13v40.13a3.57 3.57 0 0 1-3.57 3.57h-40.13v37.64h142.8v-9.77a10.37 10.37 0 0 1-6.21-3 10.47 10.47 0 0 1-3.05-7.22V837a10.45 10.45 0 0 1 3.05-7.23 10.42 10.42 0 0 1 7.23-3h98.94a10.37 10.37 0 0 1 7.22 3 10.43 10.43 0 0 1 3 7.23v.54a10.42 10.42 0 0 1-3 7.22 10.31 10.31 0 0 1-6.2 3v9.74h35.68V696.73a3.58 3.58 0 0 1 3.58-3.58h100.48a3.57 3.57 0 0 1 3.57 3.57V857.5h19.38a3.57 3.57 0 0 1 3.57 3.57v18.06a3.57 3.57 0 0 1-3.56 3.58h-411.86a3.58 3.58 0 0 1-3.58-3.58v-18.05a3.56 3.56 0 0 1 1.81-3.11v-41.68a3.58 3.58 0 0 1 3.58-3.58h40.11v-40.12a3.58 3.58 0 0 1 3.58-3.58h40.13v-40.12a3.57 3.57 0 0 1 3.57-3.57H1339v-40.13a3.57 3.57 0 0 1 3.57-3.57h40.12v-36.56h-171.2a3.57 3.57 0 0 1-3.58-3.56v-18.08a3.57 3.57 0 0 1 3.57-3.57h37v-6.12a3.57 3.57 0 0 1 3.56-3.58h17.6v-89h-14.12a3.53 3.53 0 0 1-3.57-3.51 3.69 3.69 0 0 1 .1-.87l6-35a3.55 3.55 0 0 1 3.51-3h22.61a3.58 3.58 0 0 1 3.56 3.19l5.29 34.9a3.73 3.73 0 0 1-3.21 4.19 2.56 2.56 0 0 1-.39 0h-12.6v89h17.59a3.57 3.57 0 0 1 3.55 3.59v6.19h18.81v-50a15.25 15.25 0 0 1 4.3-10.6l.19-.21a15.29 15.29 0 0 1 7.47-4.13v-15.52a12.65 12.65 0 0 1 3.72-8.92 12.6 12.6 0 0 1 8.92-3.72h85.28a12.65 12.65 0 0 1 8.92 3.72 12.65 12.65 0 0 1 3.72 8.92v15.55A15.36 15.36 0 0 1 1451 569.8v50h79l-3.91-24.25v-.15a4.76 4.76 0 0 1-.07-.75 4.66 4.66 0 0 1 1.12-3 4.56 4.56 0 0 1 2.28-1.44l.45-.11.46-.06h15.26v-3.77a25.38 25.38 0 0 1-13.15-5.89 24.3 24.3 0 0 1-8.44-15.25v-.61a1.41 1.41 0 0 1 0-.29v-.1a3.48 3.48 0 0 1 1.14-2.25c.15-.13.31-.25.48-.37h.07l.23-.13h.08l.24-.1a3.39 3.39 0 0 1 1.3-.26c7 0 13.4 2.07 18 6a20 20 0 0 1 3.54 3.93 20.41 20.41 0 0 1 3.55-3.93c4.58-3.94 11-6 18-6a3.59 3.59 0 0 1 3.57 3.58 3.66 3.66 0 0 1-.32 1.49 24 24 0 0 1-8.2 14.57 25.24 25.24 0 0 1-13 5.74v3.76h15.21l.52.06a4.67 4.67 0 0 1 2.53 1.36l.2.22a4.58 4.58 0 0 1 1.11 3 3.82 3.82 0 0 1-.08.75v.15l-3.95 24.3h53.33a3.57 3.57 0 0 1 3.57 3.57v18.03a3.57 3.57 0 0 1-3.57 3.56zm-357-159.13l-4.78 28h25.56l-4.24-28zm91.86 64.52a3.56 3.56 0 1 1 4.94-5.14l2.44 2.35 2.45-2.35a3.56 3.56 0 0 1 4.94 5.14l-2.24 2.16 2.24 2.16a3.56 3.56 0 0 1-4.94 5.13l-2.45-2.35-2.44 2.35a3.56 3.56 0 1 1-4.94-5.13l2.24-2.16zm40.21 0a3.56 3.56 0 1 1 4.94-5.14l2.45 2.35 2.43-2.35a3.59 3.59 0 1 1 5 5.14l-2.25 2.16 2.25 2.16a3.58 3.58 0 1 1-5 5.13l-2.43-2.35-2.45 2.35a3.56 3.56 0 1 1-4.94-5.13l2.24-2.16zm-72.71 69.4h16.32v-50a8.14 8.14 0 0 0-13.91-5.76l-.15.14a8.12 8.12 0 0 0-2.26 5.62v50zm23.46-50v14.06h73.05V569.8a15.31 15.31 0 0 1 4.5-10.8 15.4 15.4 0 0 1 7.23-4.07v-15.56a5.5 5.5 0 0 0-5.5-5.5h-85.28a5.5 5.5 0 0 0-5.5 5.5V555a15.37 15.37 0 0 1 11.49 14.83zm0 50h73.05v-7.76h-73.05zm0-14.91h73.05V591h-73.05v13.94zm80.2 14.91h16.31v-50a8.16 8.16 0 0 0-16.31 0zM1545 579a13 13 0 0 0-4.1-6.6 18.14 18.14 0 0 0-8.64-3.86A17.27 17.27 0 0 0 1537 575a18.08 18.08 0 0 0 8 4zm20.82-10.45a18.1 18.1 0 0 0-8.55 3.85 12.81 12.81 0 0 0-4.12 6.61 18.07 18.07 0 0 0 7.9-3.84 17.08 17.08 0 0 0 4.77-6.62zM1537 619a.91.91 0 0 0 .35.49l.09.06a1.94 1.94 0 0 0 .94.28h21.36a1.79 1.79 0 0 0 1-.34.82.82 0 0 0 .34-.51l3.5-21.74h-31.13l3.5 21.74zm-281.39.86h35.17v-2.56h-35.17zm154.48 112.62v16.8h22.79v-16.8zm-7.15 16.8v-16.8h-7.42a8.4 8.4 0 0 0 0 16.8zm37.09-16.8v16.8h7.41a8.4 8.4 0 0 0 0-16.8zm23 8.4a15.57 15.57 0 0 1-15.55 15.55h-51.92a15.55 15.55 0 0 1 0-31.1h51.92a15.57 15.57 0 0 1 15.52 15.54zm60.87 40.19a3.58 3.58 0 0 1 0 7.15h-9.16a3.58 3.58 0 0 1 0-7.15zm-22.2 76.44h93.3V700.3h-93.34zm-50-9.67H1365v9.67h86.68zm6-7.15a3.28 3.28 0 0 0 3.28-3.28v-.27a3.35 3.35 0 0 0-1-2.31 3.25 3.25 0 0 0-2.31-1H1359a3.27 3.27 0 0 0-2.32 1 3.35 3.35 0 0 0-1 2.31v.27a3.36 3.36 0 0 0 1 2.33 3.27 3.27 0 0 0 2.32 1h98.69zm-244.44 34.9H1618v-10.94h-404.7v10.93zm1.74-237.68h403V627h-402.94v10.91zM182.77 2744.93H68.08v10h382.24v-10zm36.28-7.16v-6.12a3.57 3.57 0 0 1 3.57-3.57h17.59v-89H226.1a3.57 3.57 0 0 1-3.57-3.57 3.15 3.15 0 0 1 .09-.81l6-35a3.54 3.54 0 0 1 3.51-3h22.62a3.57 3.57 0 0 1 3.55 3.2l5.29 34.91a3.73 3.73 0 0 1-3.21 4.19 2.34 2.34 0 0 1-.38 0h-12.64v89H265a3.57 3.57 0 0 1 3.57 3.57v6.13h23.03v-47.21a14.75 14.75 0 0 1 11.4-14.21v-14.55a12.19 12.19 0 0 1 12.16-12.16h80.75a12.19 12.19 0 0 1 12.09 12.16v14.57a14.74 14.74 0 0 1 11.11 14.24v47.21h34.8a3.59 3.59 0 0 1 3.57 3.58v17.16a3.59 3.59 0 0 1-3.57 3.57H234.08V2800a3.58 3.58 0 0 1-3.58 3.58h-37.92v37.91a3.58 3.58 0 0 1-3.58 3.58h-37.92V2883a3.58 3.58 0 0 1-3.58 3.58h-37.92v37.92a3.57 3.57 0 0 1-3.58 3.5H68.08v34h136v-8.82a10.1 10.1 0 0 1-5.83-2.87l-.22-.24a10 10 0 0 1-2.74-6.75v-.52a10.15 10.15 0 0 1 9.94-9.94h93.7a10.12 10.12 0 0 1 9.94 9.94v.51a10.17 10.17 0 0 1-8.79 9.86v8.83h33.41v-152a3.58 3.58 0 0 1 3.58-3.58h95.16a3.59 3.59 0 0 1 3.57 3.58v152H454a3.58 3.58 0 0 1 3.57 3.52v17.2a3.58 3.58 0 0 1-3.57 3.59H64a3.58 3.58 0 0 1-3.58-3.58v-17.11a3.57 3.57 0 0 1 .61-2v-39.19a3.57 3.57 0 0 1 3.56-3.58h37.93V2883a3.58 3.58 0 0 1 3.58-3.56H144v-37.94a3.57 3.57 0 0 1 3.57-3.56h37.93V2800a3.57 3.57 0 0 1 3.57-3.56H227V2762H64.51a3.59 3.59 0 0 1-3.58-3.57v-17.16a3.58 3.58 0 0 1 3.58-3.58H84v-152a3.58 3.58 0 0 1 3.58-3.58h95.16a3.59 3.59 0 0 1 3.57 3.58v152zm42.32 0v-2.55H226.2v2.51zm-26.26-133.92l-4.78 28h25.56l-4.25-28zm94.07 68.52a3.56 3.56 0 0 1 4.94-5.13l2.19 2.1 2.18-2.1a3.56 3.56 0 0 1 4.94 5.13l-2 1.91 2 1.91a3.56 3.56 0 0 1-4.94 5.14l-2.18-2.09-2.19 2.09a3.56 3.56 0 0 1-4.94-5.13l2-1.91zm38.08 0a3.56 3.56 0 0 1 4.94-5.13l2.19 2.1 2.18-2.1a3.56 3.56 0 0 1 4.94 5.13l-2 1.91 2 1.91a3.56 3.56 0 0 1-4.94 5.14l-2.18-2.09-2.19 2.09a3.56 3.56 0 0 1-4.94-5.13l2-1.91zm-68.53 65.36h15.07v-47.2a7.54 7.54 0 0 0-15.07 0zm11.34-61.39a14.81 14.81 0 0 1 6.56 3.81 14.59 14.59 0 0 1 4.32 10.37v13.21h68.79v-13.12a14.74 14.74 0 0 1 11.11-14.24v-14.64a5 5 0 0 0-5-5h-80.77a5 5 0 0 0-5 5v14.61zm10.9 34.49v12.81h68.79v-12.81zm0 20v7h68.79v-7zm75.94 7H412v-47.21a7.53 7.53 0 0 0-15.06 0v47.21zm-143 106.31v15.53h21.22v-15.53zm-7.15 15.53v-15.53h-6.82a7.78 7.78 0 0 0-5.5 13.26 7.78 7.78 0 0 0 5.49 2.26zm35.52-15.53v15.53h6.81a7.77 7.77 0 0 0 0-15.53zm21.74 7.77a15 15 0 0 1-15 14.82h-49.13a14.85 14.85 0 0 1-10.52-4.38 14.92 14.92 0 0 1 10.54-25.44h49.15a15 15 0 0 1 14.94 14.94zm57.38 37.82a3.58 3.58 0 1 1 .38 7.15h-9a3.58 3.58 0 1 1-.38-7.15 2.41 2.41 0 0 1 .38 0zm67.2 72.34v-148.44h-88v148.43zm-135.72 0v-8.74h-81.7v8.74zm5.87-15.89a2.94 2.94 0 0 0 2.92-2.92v-.26a2.94 2.94 0 0 0-2.92-2.92H205.3a2.94 2.94 0 0 0-2.92 2.92v.26a3 3 0 0 0 .74 1.94l.12.12a2.92 2.92 0 0 0 2.06.86zm151.57 23.08H67.76v10h382.56v-10zM112 2665.39a3.57 3.57 0 1 1 0 7.14h-8.69a3.57 3.57 0 0 1 0-7.14H112zm-20.79 72.34h88v-148.45h-88z"/><path class="cls-3" d="M72.81 1082.08a19.23 19.23 0 0 0 5.46 10.92 19.37 19.37 0 0 0 32.85-10.93zM32.33 1372a3.58 3.58 0 0 1 0-7.15h26.13a11.29 11.29 0 0 1-1-3.09L50 1315.57v-.12a5.26 5.26 0 0 1-.08-.89 5.53 5.53 0 0 1 5.33-5.53h31.4v-13a44.55 44.55 0 0 1-25.5-10.3 41.74 41.74 0 0 1-14.39-26 3.53 3.53 0 0 1-.5-1.79 3.58 3.58 0 0 1 3.58-3.58c12.41 0 23.67 3.62 31.7 10.51a34 34 0 0 1 8.68 11.23 34.44 34.44 0 0 1 8.7-11.23c8-6.89 19.28-10.51 31.69-10.51a3.47 3.47 0 0 1 1.31.25l.24.1h.08l.23.12h.06a1.92 1.92 0 0 1 .48.37 3.54 3.54 0 0 1 1.15 2.26v.08a1.41 1.41 0 0 1 0 .29 3 3 0 0 1-.05.6 42.31 42.31 0 0 1-14.56 26.86 44.89 44.89 0 0 1-25.77 10.62v13h31.4a2.45 2.45 0 0 1 .7.07l.33.08a5.57 5.57 0 0 1 3 1.79 5.44 5.44 0 0 1 1.33 3.57 6.54 6.54 0 0 1-.08.89v.12l-7.51 46.3a10.86 10.86 0 0 1-1 3.09h48v-205.6a3.58 3.58 0 0 1 3.58-3.58h93.22a3.58 3.58 0 0 1 3.58 3.58v205.6h60l12.51-12.52v-59.66h-32.06a3.56 3.56 0 0 1-3.57-3.55v-11a3.56 3.56 0 0 1 3.56-3.56h71.28a3.57 3.57 0 0 1 3.58 3.56v11a3.57 3.57 0 0 1-3.57 3.57H350V1352a1.31 1.31 0 0 1 0 .28l12.52 12.52h21.88l22.26-38.73h-23.29a7.41 7.41 0 0 1-7.4-7.36v-2.22a7.39 7.39 0 0 1 7.37-7.38h34.33l-9.45-16.47h-9.06a3.58 3.58 0 0 1 0-7.15H455l3.21-30.23a3.57 3.57 0 0 1 7.1.75l-6.57 61.7v1a7.36 7.36 0 0 1-2.16 5.2l-.26.24a7.36 7.36 0 0 1-4.77 1.93h-15.89L458 1364.8h23.41a3.58 3.58 0 0 1 .38 7.15H32.33zm360.26-7.14h57.13l-22.26-38.73h-12.61zm-46.16-6l-5.72 5.72h11.44zm-32.07-73.36h64.13v-3.87h-64.13zm-129.63 17.17a3.58 3.58 0 0 1 0-7.16h11.11a3.58 3.58 0 0 1 0 7.15h-11.11zm68.73-35H186.9a3.59 3.59 0 0 1-3.58-3.57v-86a3.57 3.57 0 0 1 3.57-3.57h66.57a3.57 3.57 0 0 1 3.57 3.57v86a3.58 3.58 0 0 1-3.57 3.59zm-63-7.15h59.41v-78.74h-59.4zm-13.31 103h86v-200.79h-86zm-50.84-101.74c-9 .71-17 3.64-22.74 8.6a27.83 27.83 0 0 0-9.57 18.49 37.55 37.55 0 0 0 21-8.84 35.31 35.31 0 0 0 11.34-18.3zm-39.83 27.14a27.7 27.7 0 0 0-9.55-18.54c-5.75-4.92-13.63-7.85-22.53-8.6a34.61 34.61 0 0 0 11.37 18.56 37.3 37.3 0 0 0 20.71 8.54zm23.69 76h.08a6.43 6.43 0 0 0 3.9-1.29 4.74 4.74 0 0 0 1.82-2.92l7.16-44.42H57.37l7.16 44.42a4.72 4.72 0 0 0 1.81 2.92 6.48 6.48 0 0 0 3.91 1.29zm306.3-72.18l9.46 16.46h25.41a6.92 6.92 0 0 1 1.11.09l1.76-16.56h-37.74zm13.53 23.57l1.53 2.68h19.91a.2.2 0 0 0 .07-.16v-2.22a.24.24 0 0 0-.07-.16.37.37 0 0 0-.16-.06zm-6.68 2.68l-1.53-2.68h-38.42a.27.27 0 0 0-.14.07.2.2 0 0 0-.07.16v2.19a.2.2 0 0 0 .07.16.27.27 0 0 0 .14.07zm-304.65-236.91a19.36 19.36 0 0 0 38.32 0zm45.87 0a19.37 19.37 0 0 0 32.84 10.92 19.37 19.37 0 0 0 5.47-10.92zm45.86 0a19.14 19.14 0 0 0 5.31 10.76l.16.16a19.36 19.36 0 0 0 32.85-10.92zm45.86 0a19.23 19.23 0 0 0 5.46 10.92 19.38 19.38 0 0 0 32.86-10.93zm45.86 0A19.38 19.38 0 0 0 335 1093a19.25 19.25 0 0 0 5.45-10.92zm45.86 0a19.32 19.32 0 0 0 5.48 10.92l.16.17a19.42 19.42 0 0 0 27.22-.16 19.16 19.16 0 0 0 5.45-10.92zm45.87 0a19.35 19.35 0 0 0 5.3 10.76l.17.16a19.36 19.36 0 0 0 32.85-10.92zm45.86 0a19.25 19.25 0 0 0 5.47 10.92 19.36 19.36 0 0 0 32.82-10.93zm45.64-3.22a3.38 3.38 0 0 1 0 .45 26.51 26.51 0 0 1-45.24 18.75 26.61 26.61 0 0 1-4.18-5.44 27.85 27.85 0 0 1-4.2 5.46 26.53 26.53 0 0 1-37.49 0l-.18-.22a26.51 26.51 0 0 1-4-5.25 27.08 27.08 0 0 1-4.19 5.45 26.49 26.49 0 0 1-37.27.19l-.2-.18a26.83 26.83 0 0 1-4.2-5.46 26 26 0 0 1-4.19 5.44 26.5 26.5 0 0 1-37.46 0 26.77 26.77 0 0 1-4.2-5.45 26.17 26.17 0 0 1-4.19 5.46 26.53 26.53 0 0 1-37.47 0 27.3 27.3 0 0 1-4.19-5.44 26.83 26.83 0 0 1-4.2 5.46 26.53 26.53 0 0 1-37.47 0l-.19-.22a26.51 26.51 0 0 1-4-5.25 26.67 26.67 0 0 1-4.18 5.45 26.48 26.48 0 0 1-41.66-5.46 26.83 26.83 0 0 1-4.2 5.46 26.5 26.5 0 0 1-41.67-5.45 26.49 26.49 0 0 1-41.65 5.46 26.83 26.83 0 0 1-4.2-5.46 26.83 26.83 0 0 1-4.2 5.46 26.51 26.51 0 0 1-45.24-18.74v-.8a3.59 3.59 0 0 1 1.13-2.61l32.72-35.19a3.55 3.55 0 0 1 2.61-1.15h392.78a3.58 3.58 0 0 1 2.78 1.33l32.75 35.2a3.49 3.49 0 0 1 .94 2.77zM27 1082.09a19.36 19.36 0 0 0 38.32 0zm420.37-35.36H57.65L31.37 1075H473.6zM661.76 1396.54a3.58 3.58 0 0 1-.38-7.15h20.76v-96.3a20.6 20.6 0 0 1 18.36-20.4v-25.22a18 18 0 0 1 5.29-12.77l.22-.19a18 18 0 0 1 12.55-5.1h73.24l12.25-44.9h-65.76l-38.62 25a3.56 3.56 0 0 1-4.92-1 3.52 3.52 0 0 1-.58-2.09 162.42 162.42 0 0 1 2.26-21.89h-10.72a3.58 3.58 0 0 1-3.58-3.58v-76.5a3.57 3.57 0 0 1 3.57-3.57h47.13a128.36 128.36 0 0 1 36.06-29.72c-11.26 1.35-22.1 2-30.38 1.1-12.89-1.36-15.88-7.86-14.89-17.13.48-4.59 2.08-9.76 3.8-15.31 3.28-10.62 7-22.78 3.12-32.58-3.4-8.49-4.77-16.89-3.89-23.91a22.58 22.58 0 0 1 5.64-13 18.19 18.19 0 0 1 7.66-4.84 72.35 72.35 0 0 1 26.37-5.44c11.26-.08 24.79 2.7 41.69 11 33.88 16.66 39.21 57.31 40 68a36.71 36.71 0 0 1 12.88 3c.25.1.51.21.77.3 1-11.14 5.93-45.37 31-60.32 6.37-3.78 16.16-4.52 26.32-3.68 14.18 1.15 29.41 5.33 36.28 8.27a14.61 14.61 0 0 1 5 3.24l.23.2a19.41 19.41 0 0 1 4.93 10.36c1 5.95.17 13.19-2.53 20.47-2.45 6.59-2.87 13.72-3.25 20.32-.75 12.91-1.39 24-14.22 28.57 28.21 18.49 37.68 49.69 40.86 68.15h8.48v-35.24a3.57 3.57 0 0 1 3.57-3.57h9v-16.83a3.57 3.57 0 0 1 3.56-3.58h13.35a3.57 3.57 0 0 1 3.58 3.56v8.28h9.7a3.58 3.58 0 0 1 3.58 3.58v43.77h9.4a3.57 3.57 0 0 1 3.57 3.57v15.68a3.57 3.57 0 0 1-3.56 3.58h-13.45V1181a3.58 3.58 0 0 1-7.15 0v-20.23h-91.28v20.19a3.58 3.58 0 0 1-7.15 0v-20.19H918a3.57 3.57 0 0 1-3.57-3.57v-15.68a3.57 3.57 0 0 1 3.56-3.58h36.63l-11.24-7.28a3.59 3.59 0 0 1-1.85-2.84c-2.57-30.12-37.45-53.87-45.84-59.17l-43.89 160.78h88.43a18.11 18.11 0 0 1 18.07 18.07v25.15a20.51 20.51 0 0 1 13.06 6 20.48 20.48 0 0 1 6 14.48V1389.37h44.4v-.37l-4.61-28.6v-.12a4.9 4.9 0 0 1-.07-.77 4.81 4.81 0 0 1 4-4.72h18.78v-5.49a28.72 28.72 0 0 1-15.36-6.62 27.18 27.18 0 0 1-9.36-16.7 3.56 3.56 0 0 1 3.21-5.12c8 0 15.33 2.36 20.56 6.84a23.19 23.19 0 0 1 4.52 5.21 22.73 22.73 0 0 1 4.52-5.21c5.22-4.48 12.53-6.84 20.55-6.84a3.61 3.61 0 0 1 1.3.24l.25.1h.07l.23.12.07.06c.17.11.33.24.48.36a3.66 3.66 0 0 1 1.15 2.27v.09a1.5 1.5 0 0 1 0 .3 3 3 0 0 1 0 .6 27.62 27.62 0 0 1-9.49 17.46 29.1 29.1 0 0 1-15.52 6.78v5.51h18.77l.34.07a4.71 4.71 0 0 1 2.52 1.56l.13.16a4.76 4.76 0 0 1 1 2.92 6.48 6.48 0 0 1-.07.77v.12l-4.61 28.6v.32h17.49a3.58 3.58 0 0 1 .38 7.15H661.76zm73.31-218.47a4.45 4.45 0 0 1 .51-.33l21.17-13.74a90.25 90.25 0 0 1 10.83-33.1 146.26 146.26 0 0 1 21.16-29c.11-.11.23-.23.34-.32a233.3 233.3 0 0 1 35.16-30.6 3.5 3.5 0 0 1-.13-.85c-.05-1.4-.05-2.74 0-4a81.08 81.08 0 0 0-43.86 7.15 121.63 121.63 0 0 0-42.7 32.94 3.33 3.33 0 0 1-.49.63 147.65 147.65 0 0 0-22.56 38.78 190.31 190.31 0 0 0-10.33 35.87 2.52 2.52 0 0 1-.14.54c-1.31 7.25-2 13.35-2.35 17.63zm64.59-77.24h27.21l7.71-28.25a237 237 0 0 0-34.92 28.25zm39.87-38.56a3 3 0 0 1 .6 0h51.75c-1.82-8-11.73-9.41-20.68-10.72-4.81-.7-9.38-1.37-13-2.88a28.35 28.35 0 0 0-11.72-2.51 14.37 14.37 0 0 0-7.87 2.5 15.44 15.44 0 0 0-5.23 6.87 26.34 26.34 0 0 0-1.44 4.78 60 60 0 0 1 7.59 2zm-74.4 94.83c-.1.46-.21.94-.3 1.41l-.12.64c-.14.68-.26 1.35-.37 2v.31c-.12.8-.23 1.56-.33 2.36-.1.84-.19 1.68-.26 2.52v.06a3.6 3.6 0 0 1-1.83 2.77l-12.55 8.12H806l10-36.82 8.89-32.53h-32a137.21 137.21 0 0 0-19.06 26.35 89.33 89.33 0 0 0-8.23 20.58l-.12.51c-.14.55-.27 1.11-.39 1.67zm-67.4 20.23a202.75 202.75 0 0 1 7.15-26.3l.21-.56c.26-.74.53-1.52.81-2.29l.22-.57c.27-.75.57-1.52.86-2.28l.22-.58.91-2.28.22-.54a158.05 158.05 0 0 1 18.86-33.93h-37.91v69.34zM798 1233.57a4.71 4.71 0 0 1-.19.64L773.07 1325a4.84 4.84 0 0 1-.19.65l-9.59 35.16a3.58 3.58 0 0 1-.19.66l-2.94 10.81a3.69 3.69 0 0 1-.18.65l-4.49 16.48h45.25l5-18.36a3.55 3.55 0 0 1 .17-.64l3-10.81a3.69 3.69 0 0 1 .18-.65l9.6-35.17a3.69 3.69 0 0 1 .18-.65l24.78-90.77a3.69 3.69 0 0 1 .18-.65l44.32-162.34h-45.26l-9.74 35.63a4.85 4.85 0 0 1-.16.63l-20.8 76.19v.06l-14.09 51.66zm-8.19 3h-71.26a10.87 10.87 0 0 0-7.55 3l-.16.16a10.91 10.91 0 0 0-3.2 7.72v25.15a20.5 20.5 0 0 1 13.05 6 20.42 20.42 0 0 1 6 14.46v27.74h40.1l23-84.26zm-25 91.42h-38.08v28.68h30.32zm-9.74 35.74h-28.34v4.3H754l1.18-4.3zm-3.07 11.49h-25.27V1389.37h21.38l3.86-14.17zm97.87-138.7l-23 84.27h106v-27.74a20.48 20.48 0 0 1 6-14.48 20.45 20.45 0 0 1 12.31-5.9v-25.22a11 11 0 0 0-10.92-10.92zm-25 91.42l-7.83 28.68H932.8v-28.68zm-9.77 35.83l-1.18 4.3H932.8v-4.34zm-3.1 11.45l-3.87 14.17h124.7v-14.14zM904.69 1066c13.2 9.24 40.41 31.45 43.83 59.4l19.9 12.89a5.14 5.14 0 0 1 .49.32l11.38 7.38c-.13-1.21-.3-2.57-.51-4a3.84 3.84 0 0 1 0-.48c-2.7-18-12.12-52.82-45-69.75-10.75.62-21.12-2.46-29-5.86l-1 .13zm2.24-7.34a56.87 56.87 0 0 1 28 5.2c.43.19.85.41 1.27.62 1.19-.13 2.38-.31 3.57-.55 11.61-2.38 12.16-11.91 12.83-23.17.41-7.13.85-14.87 3.66-22.4 2.26-6.11 3-12 2.18-16.78a12.26 12.26 0 0 0-3-6.57l-.15-.16a7.72 7.72 0 0 0-2.41-1.57l-.27-.1h-.06a9.61 9.61 0 0 0-3-.57c-3.36-.12-7.66 1-13 3.92-17.44 9.47-30.43 24.6-38.51 36.18.69 3.24 2.57 13.7-.7 20.82a83.85 83.85 0 0 0 9.57 5.15zm81 94.9h59V1145h-59.52c.55 4.88.59 7.86.59 7.87v.43zm-95.73-111.83c-1.84 3.09-3 5.39-3.6 6.48a22.1 22.1 0 0 1 2.78 1.43 19.6 19.6 0 0 0 .82-7.91zm-10.49 4.32a.68.68 0 0 1 .12-.28c0-.09 18-37.42 51.34-55.52 1.3-.7 2.55-1.32 3.78-1.86a132.48 132.48 0 0 0-18.46-3c-8.88-.72-17.21-.23-22.1 2.69-23.13 13.77-27 46.91-27.66 55.79l3.47.51c3.16.47 6.41.94 9.51 1.64zM827.1 1052l-.08-.25a90.5 90.5 0 0 0-4.21-12.4 27.71 27.71 0 0 0-.88 8.06 57.33 57.33 0 0 0 1.11 6.37l3.69-.91v-.11c.14-.24.24-.49.37-.75zm-8.92-22.77c-8.65-17-24.7-39.51-52.64-52.73-8-3.8-14.48-5.27-19.43-5a15.5 15.5 0 0 0-4.26.85l-.65.25a10.82 10.82 0 0 0-3.72 2.58 15.68 15.68 0 0 0-3.74 9c-.73 5.86.47 13 3.41 20.39 4.86 12.14.71 25.58-2.93 37.32-1.6 5.21-3.1 10.06-3.51 14-.53 5 1.19 8.52 8.53 9.3 20.57 2.17 58.44-5.55 76.87-9.75a60.28 60.28 0 0 1-1.27-7.18c-.65-5.6 2.43-16.08 3.34-19zm-56-61.87a75 75 0 0 1 6.41 2.7c42.2 19.94 58.89 59.92 63.74 74.52a20.32 20.32 0 0 1 2.16-1.77 19.9 19.9 0 0 1 6.49-3c-.66-9.16-5.21-47.14-36.09-62.32-15.78-7.76-28.25-10.35-38.54-10.29-1.43 0-2.82.07-4.17.19zm301.71 361a22.31 22.31 0 0 0-11.34 4.79 15.63 15.63 0 0 0-5.2 8.9 22.06 22.06 0 0 0 10.52-4.93 20.45 20.45 0 0 0 6-8.76zm-24.45 13.7a15.69 15.69 0 0 0-5.2-8.91 22.09 22.09 0 0 0-11.25-4.78 20.17 20.17 0 0 0 6.08 8.91 21.73 21.73 0 0 0 10.37 4.72zm16.53 47.38a2.58 2.58 0 0 0 1.32-.42l.11-.08a1.59 1.59 0 0 0 .62-.92l4.2-26h-37.65l4.2 26a1.58 1.58 0 0 0 .61.92 2.64 2.64 0 0 0 1.43.51H1056zm-149.15-133.71a3.56 3.56 0 1 1 4.94 5.14l-5.18 5 5.18 5a3.56 3.56 0 1 1-4.94 5.14l-5.38-5.17-5.38 5.17a3.57 3.57 0 0 1-4.95-5.14l5.19-5-5.19-5a3.57 3.57 0 0 1 4.95-5.14l5.38 5.18 5.38-5.17zm-144.09 0a3.55 3.55 0 0 1 5 .1 3.58 3.58 0 0 1-.09 5l-5.18 5 5.18 5a3.58 3.58 0 0 1 .09 5 3.55 3.55 0 0 1-5 .1l-5.39-5.17-5.38 5.17a3.56 3.56 0 0 1-4.94-5.14l5.18-5-5.18-5a3.56 3.56 0 0 1 5-5.06l5.38 5.18 5.39-5.17zM1002 1137.89h4.74v-31.65H1002zm12.58 0h6.13v-52.05h-6.13zm13.28 0h6.14v-40.16h-6.13zm-106.21 15.68h57.25l-13.22-8.57h-44.06zM940 1389a.5.5 0 0 0 .12.28.58.58 0 0 0 .25.12h29.53a.33.33 0 0 0 .19-.06.37.37 0 0 0 .13-.28v-95.91a13.39 13.39 0 0 0-13.37-13.37h-3.56a13.39 13.39 0 0 0-13.29 13.36V1389zm-250.67 0a.5.5 0 0 0 .12.28.42.42 0 0 0 .26.12h29.55a.47.47 0 0 0 .2-.06.37.37 0 0 0 .13-.28v-95.91a13.32 13.32 0 0 0-3.91-9.44 13.33 13.33 0 0 0-9.44-3.92h-3.57a13.43 13.43 0 0 0-13.37 13.37v95.91zM1292.05 1348.11a3.57 3.57 0 1 1 0-7.14H1344v-130.84c-.66.23-1.33.44-2 .66a45.55 45.55 0 0 1-50.58-69.58 28.06 28.06 0 0 1 2.8-52 43.19 43.19 0 0 1 78.68-18.6 45.8 45.8 0 0 1 15.53-2.76 45.56 45.56 0 0 1 31.73 78.31 45.56 45.56 0 0 1-32.9 77.08 46.4 46.4 0 0 1-5-.28l-20.39 43.35a3.57 3.57 0 0 1-1.36 1.52V1341h90l17.16-29.87h-11.41a7 7 0 0 1-6.81-6.81v-.63l-5.32-50.06a3.57 3.57 0 0 1 7.09-.76l2.54 24h44.69a3.58 3.58 0 0 1 0 7.15h-7l-6.92 12h26.57a7 7 0 0 1 4.75 2.06 7 7 0 0 1 2.06 4.75V1304.32a7 7 0 0 1-6.82 6.81h-17.57l17.16 29.87h47.77v-70.36h-43.19a3.58 3.58 0 0 1 0-7.15h43.19V1205a23 23 0 0 1-32.15-.38 22.22 22.22 0 0 1-3.17-4 24.51 24.51 0 0 1-3.18 4 23 23 0 0 1-32.53 0 24.51 24.51 0 0 1-3.18-4 23.14 23.14 0 0 1-3.17 4 23 23 0 0 1-32.53 0 23 23 0 0 1-6.75-16.26 3.55 3.55 0 0 0 0-1.83 3.55 3.55 0 0 1 .41-1.66c7.89-18.32 23.21-36.58 46.21-49.42 18.42-10.28 41.76-17.07 70.13-17.6v-10.34a3.58 3.58 0 0 1 7.15 0v10.32c27.56.57 50.77 7.77 69.19 18.05 24.31 13.55 40.34 32.57 47.16 49a3.51 3.51 0 0 1 .41 1.65 4.07 4.07 0 0 1-.12.92 3.57 3.57 0 0 1 .12.92 23 23 0 0 1-6.75 16.26 23 23 0 0 1-32.53 0 23.59 23.59 0 0 1-3.18-4 22.67 22.67 0 0 1-3.17 4 23 23 0 0 1-32.53 0 23.93 23.93 0 0 1-3.17-4 24.45 24.45 0 0 1-3.17 4 23 23 0 0 1-32.16.38v58.45h43.19a3.58 3.58 0 0 1 .38 7.15h-43.57V1341h47.78l17.16-29.88H1613a7 7 0 0 1-6.82-6.8V1302.83a7 7 0 0 1 6.82-6.83h26.56l-6.91-12h-7a3.58 3.58 0 0 1-.38-7.15h45.06l2.55-24a3.57 3.57 0 0 1 7.1.76l-5.32 50.06v.63a7 7 0 0 1-2.06 4.75l-.27.24a6.88 6.88 0 0 1-4.58 1.82h-11.33l17.16 29.87h68v-24.72h-30.28a3.58 3.58 0 0 1-3.57-3.59 3.52 3.52 0 0 1 .33-1.49l20.38-43.77H1725a3.79 3.79 0 0 1-1.71-.45 3.56 3.56 0 0 1-1.41-4.83l27.69-50.72a3.71 3.71 0 0 1 1.43-1.41 3.57 3.57 0 0 1 4.84 1.39l28 50.48a3.49 3.49 0 0 1 .61 2 3.57 3.57 0 0 1-3.57 3.57H1776l20.33 43.66a3.58 3.58 0 0 1-1.57 4.81 3.48 3.48 0 0 1-1.61.39h-29.35v24.7h46.67a3.57 3.57 0 1 1 0 7.14zm442-87.86h40.79l-22.1-39.8-21.74 39.8zm11.14 48.86h42.32l-19.42-41.71h-31.7l-19.39 41.71zm3.58 31h7.88v-23.86h-7.88v23.85zm-402.88-138.51l.12-.06c.86-.43 1.67-.88 2.44-1.32.55-.32 1.07-.65 1.58-1h.25l.08-.06h.48l.24-.1h.24a3.56 3.56 0 0 1 3.83 1.42l.06.09c.39.54.84 1.11 1.32 1.7s.81 1 1.19 1.39l.32.35a3.19 3.19 0 0 1 .44.46 38.7 38.7 0 0 0 9.81 7.33c.88.46 1.78.89 2.71 1.28l.22.08a24.29 24.29 0 0 0 2.73 1h.8l.37.12h.06a38.46 38.46 0 0 0 48.87-37 38.08 38.08 0 0 0-3.42-15.83 38.79 38.79 0 0 0-9.72-13.08 3.55 3.55 0 0 1-.34-5c.14-.15.28-.29.43-.43a38.43 38.43 0 0 0-32.14-67.46 39.2 39.2 0 0 0-7.62 2.47 3.55 3.55 0 0 1-4.64-1.72 36.08 36.08 0 0 0-67.15 15.63 3.6 3.6 0 0 1-2.74 3.24 20.89 20.89 0 0 0-.23 40.61 3.57 3.57 0 0 1 2.59 4.33 3.75 3.75 0 0 1-.92 1.65 38.45 38.45 0 0 0 28.29 63.55 37.82 37.82 0 0 0 11.86-1.64 36.81 36.81 0 0 0 5.92-2.34zm14.61 12.89v16l5.85-12.42-.1-.06a43.81 43.81 0 0 1-5.79-3.52zm14.54 7.06c-.71-.19-1.41-.42-2.11-.66l-12.75 27.11a3.56 3.56 0 0 1-6.78-1.51V1208c-.44-.49-.85-1-1.2-1.39v-.07l-.15.08-.13.09-.15.08-.15.09-.22.12v134.09h2.19v-77a3.57 3.57 0 0 1 3.42-3.56l18.26-38.85zm300.14-31.43h-31.58a15.78 15.78 0 0 0 4.54 9.47 16 16 0 0 0 22.47 0 15.8 15.8 0 0 0 4.53-9.47zm-38.92 0h-31.57a15.78 15.78 0 0 0 4.54 9.47 15.88 15.88 0 0 0 27-9.49zm-38.92 0h-31.58a15.82 15.82 0 0 0 4.55 9.47 15.88 15.88 0 0 0 27-9.49zm-38.91 0h-31.58a15.81 15.81 0 0 0 4.54 9.47 15.89 15.89 0 0 0 27-9.49zm-38.92 0h-31.58a15.78 15.78 0 0 0 4.54 9.47 15.89 15.89 0 0 0 27-9.49zm-38.92 0H1449a15.78 15.78 0 0 0 4.54 9.47 15.88 15.88 0 0 0 27-9.49zm81.51-65.12c-28.71 0-52.07 6.56-70.26 16.72-19.51 10.88-33.08 25.88-40.89 41.28h222.32c-7.23-14-21.39-29.41-41.87-40.84-18.24-10.16-41.48-17.16-69.3-17.16zm59.56 216h43.79l-17.16-29.88h-9.48zm19.24-57l6.91 12h20.55l1.29-12.07h-28.75zm11 19.18l.47.82h15.19v-.82zm-7.74.82l-.48-.82h-30.33v.82zm-158.8 7.14h-9.47l-17.16 29.86h43.79zm-4.9-8l-.46.82h30.81v-.82zm-8.68.82l.48-.82h-15.66v.82zm4.59-8l6.91-12h-28.75l1.28 12.07h20.56zM12.76 1870.25a3.58 3.58 0 0 1 0-7.15H42a11.13 11.13 0 0 1-1.08-3.27v-.1l-7.74-48a4.87 4.87 0 0 1-.06-.76 5.63 5.63 0 0 1 4.73-5.53 2.73 2.73 0 0 1 .64-.07h32.7v-13.78a46 46 0 0 1-26.54-10.86 43.3 43.3 0 0 1-14.9-26.9 3.57 3.57 0 0 1 3.07-5.39c12.86 0 24.53 3.75 32.83 10.88a35.63 35.63 0 0 1 9.11 11.87 35.4 35.4 0 0 1 9.11-11.87c8.31-7.13 20-10.88 32.82-10.88a3.38 3.38 0 0 1 1.3.25l.24.1h.07l.21.12h.08a2.84 2.84 0 0 1 .47.37 3.49 3.49 0 0 1 1.15 2.24v.39a3.05 3.05 0 0 1-.06.6 43.88 43.88 0 0 1-15.06 27.81 46.36 46.36 0 0 1-26.81 11v13.78H111c.22 0 .43 0 .65.06l.46.1a5.32 5.32 0 0 1 3 1.82 5.57 5.57 0 0 1 1.35 3.63 4.87 4.87 0 0 1-.06.76l-7.74 48.26a11.71 11.71 0 0 1-1.09 3.36h28.5v-147.36L118.63 1727a3.56 3.56 0 0 1-4.93-1 3.66 3.66 0 0 1-.57-2.09c0-2.15 1-41.65 21.28-80.49a23.91 23.91 0 0 1-3.68.28 26 26 0 0 1-18.37-7.61l-.19-.2a27 27 0 0 1-3.84-5 25.61 25.61 0 0 1-4 5.21 26 26 0 0 1-40.76-5.22 25.61 25.61 0 0 1-4 5.21 25.93 25.93 0 0 1-36.67 0 25.86 25.86 0 0 1-7.61-18.36 3.58 3.58 0 0 1 1.33-2.78l34.68-32.61a3.56 3.56 0 0 1 2.62-1.15h91.7c-2.28-3-2.79-7-2.3-11.73s2.13-10 3.88-15.61c3.36-10.86 7.21-23.29 3.19-33.32-3.47-8.66-4.86-17.23-4-24.38a23.12 23.12 0 0 1 5.74-13.2 18.35 18.35 0 0 1 7.78-4.92c7.53-2.9 16.16-5.49 26.92-5.56 11.48-.08 25.29 2.76 42.53 11.22 34.63 17 40 58.65 40.84 69.39a37.51 37.51 0 0 1 13.19 3.09c.29.11.59.23.91.32 1-11.3 6-46.32 31.64-61.6l.24-.12c6.48-3.75 16.35-4.48 26.58-3.64 14.49 1.19 30 5.46 37 8.45a15 15 0 0 1 5.28 3.51 19.48 19.48 0 0 1 5 10.53c1.06 6.06.18 13.44-2.57 20.85-2.51 6.74-2.93 14-3.32 20.77-.63 10.77-1.18 20.31-8.51 26h55.58a3.59 3.59 0 0 1 2.84 1l34.59 32.53a3.57 3.57 0 0 1 1.68 3 25.86 25.86 0 0 1-7.61 18.36 25.93 25.93 0 0 1-36.68 0l-.2-.2a25.87 25.87 0 0 1-3.84-5 24.76 24.76 0 0 1-2.16 3.12 26.11 26.11 0 0 1-11.06 8 121.71 121.71 0 0 1 4.26 27.29 3.73 3.73 0 0 1-.58 2 3.57 3.57 0 0 1-4.93 1l-39.85-25.82a3.55 3.55 0 0 1-1.85-2.84c-.07-.77-.15-1.54-.25-2.28a24.85 24.85 0 0 1-2.65 1 26 26 0 0 1-30.51-11.53 25.61 25.61 0 0 1-4 5.21 25.86 25.86 0 0 1-18.42 7.62 26.43 26.43 0 0 1-6.85-.93c-.76-.21-1.51-.45-2.25-.73l-62 221.1h58.38l12.85-12.85a2.81 2.81 0 0 1 0-.58v-61.78h-33.52a3.58 3.58 0 0 1-3.58-3.58v-11.44a3.58 3.58 0 0 1 3.58-3.58h74a3.58 3.58 0 0 1 3.58 3.58v11.44a3.58 3.58 0 0 1-3.58 3.58h-33.42v61.78a3.79 3.79 0 0 1-.05.58L330 1863.1h23.1l23.28-40.49H352a7.53 7.53 0 0 1-7.51-7.53v-2.3a7.51 7.51 0 0 1 7.51-7.51h35.9l-10-17.38h-9.48a3.58 3.58 0 0 1 0-7.15h58l3.35-31.52a3.56 3.56 0 1 1 7.09.75L430 1814v1a7.54 7.54 0 0 1-7.52 7.53h-16.43l23.27 40.49h43.37a3.58 3.58 0 0 1 0 7.15H12.76zm393.89-235.13a18.8 18.8 0 0 0 11.35-13.87h-16.92c1 2.08 1.91 4.16 2.76 6.21 1 2.59 2 5.15 2.81 7.64zm-14.42-15.47a2.34 2.34 0 0 1-.27-.49 85.6 85.6 0 0 0-12.27-17 76.31 76.31 0 0 0-17.87-14.16 3.14 3.14 0 0 1-.64-.37l-1.46-.8c-.56-.3-1.1-.57-1.65-.84l-.34-.18c-.61-.31-1.23-.59-1.86-.89a51.59 51.59 0 0 0-14.21-4.27 50.8 50.8 0 0 0-11.69-.36c-.75.08-1.46.14-2.13.24l1.55 1.1a3.34 3.34 0 0 1 .53.37 157.3 157.3 0 0 1 16.29 13.53 109.09 109.09 0 0 1 16.75 20 5.09 5.09 0 0 1 .3.5 70.68 70.68 0 0 1 4.93 9.25 58.74 58.74 0 0 1 3.31 9.56c.33 1.31.62 2.69.86 4.08.12.79.24 1.56.34 2.34l32.61 21.14a123.86 123.86 0 0 0-4.34-21.66v-.23a108.14 108.14 0 0 0-3.64-10.33 99.86 99.86 0 0 0-5-10.5zm5.06-5.54h60.34l-27.45-25.83H375a86.07 86.07 0 0 1 9.89 9 91.59 91.59 0 0 1 12.37 16.79zm-37.16-35l1.41-.16c.83-.12 1.6-.26 2.31-.39 11.91-2.44 12.48-12.2 13.15-23.72.43-7.28.88-15.18 3.73-22.86 2.32-6.25 3.08-12.33 2.24-17.17a12.57 12.57 0 0 0-3.07-6.76 7.7 7.7 0 0 0-2.66-1.77l-.26-.11a10.13 10.13 0 0 0-3.13-.58c-3.46-.13-7.86 1.07-13.27 4-16.77 9.12-29.5 23.33-37.84 34.82.95 4.38 2.94 16.32-1.23 24.1a86.52 86.52 0 0 0 8.84 4.65 58.08 58.08 0 0 1 28.56 5.33l1.27.63h-.05zm-33.68 9.21h-10.58l-7.24 25.83h44.68a107.88 107.88 0 0 0-12-13.45 147.48 147.48 0 0 0-14.84-12.38zm31.66 33h-21.87a18.81 18.81 0 0 0 22 14.91 18.44 18.44 0 0 0 5.61-2 51.45 51.45 0 0 0-2.23-6 68 68 0 0 0-3.55-6.9zm-220.66 85.06a3.36 3.36 0 0 1 .51-.32l5.94-3.85 4.39-2.84a2.7 2.7 0 0 1 .5-.33l28.24-18.3q.3-2.67.76-5.28c.42-2.37 1-4.71 1.57-7a1.44 1.44 0 0 1 .13-.4c3.85-14 11.22-27 20-38.45a4.26 4.26 0 0 1 .59-.74 172.08 172.08 0 0 1 11.27-13.15 4.45 4.45 0 0 1 .7-.74 239.3 239.3 0 0 1 33.95-29.25 3.61 3.61 0 0 1-.15-.92c-.06-1.44-.06-2.83 0-4.18a82.7 82.7 0 0 0-44.66 7.19 2.64 2.64 0 0 1-.38.18 124 124 0 0 0-41.81 31.55 3.68 3.68 0 0 1-.73.84c-.81 1-1.61 1.92-2.39 2.89a3.59 3.59 0 0 1-.68.87 138.42 138.42 0 0 0-9.79 14.1 3.26 3.26 0 0 1-.63 1c-18.41 30.84-23 63.92-24.16 77.9l16.81-10.9zm50.15-40.65H233l9.82-35.09a25.91 25.91 0 0 1-4.16 5.44l-.21.19a25.9 25.9 0 0 1-35.69.59 107.11 107.11 0 0 0-15.2 28.87zm19.54-34.58a18.85 18.85 0 0 0 26.35 0l.15-.16a18.77 18.77 0 0 0 5.18-9.74h-23.14c-2.92 3.14-5.8 6.42-8.54 9.86zm15.58-17h24.76l7.23-25.78a239.85 239.85 0 0 0-32 25.74zm-37.56-25.83h-130l-27.46 25.83h126.65a131.39 131.39 0 0 1 30.81-25.87zm-36.68 33h-36.23a18.8 18.8 0 0 0 5 9.58l.17.16a18.75 18.75 0 0 0 13.32 5.51 19.63 19.63 0 0 0 4.7-.57l.25-.09a18.92 18.92 0 0 0 3.84-1.51 149.53 149.53 0 0 1 8.95-13.08zm37 52c-.14.59-.27 1.17-.38 1.76v.13l-.07.36v.17c-.13.66-.26 1.31-.36 2v.39l-.15 1.08h41.14a3.58 3.58 0 0 1 3.16 1.9l2.31-8.2H185.6l-.07.28v.12h-.05zm68.14-98.59a61.6 61.6 0 0 1 7.66 2h53.62c-1.67-9.73-8.58-11.57-15.76-12-1.89-.12-3.57-.16-5.22-.2-5-.14-9.63-.28-13.36-1.82a28.7 28.7 0 0 0-12-2.56 14.5 14.5 0 0 0-8.08 2.56 15.87 15.87 0 0 0-5.36 7.06 26.76 26.76 0 0 0-1.5 4.96zM239.23 1670a2.72 2.72 0 0 1-.13.49l-9.77 34.87-.26.94a1.72 1.72 0 0 1-.13.48l-43.81 156.32h46.33l63.61-227v-.17l5.32-19a1.51 1.51 0 0 1 .13-.46l9.1-32.49v-.11h-46.26l-.44 1.55a1.91 1.91 0 0 1-.12.47l-9.11 32.51a2.42 2.42 0 0 1-.13.46l-14.33 51.1zm-61.11 191.76l22-78.44h-49.65a3.57 3.57 0 0 1-3.57-3.57v-71l-3.69 2.4v150.62zm128.51-240.44l-3.88 13.84a19.05 19.05 0 0 0 2.2.76 18.8 18.8 0 0 0 23.12-13.15c.13-.48.25-1 .34-1.45zm10.25-68.32c-2 3.15-3.45 5.76-4.41 7.54a16.27 16.27 0 0 1 3.7 2.5 26.17 26.17 0 0 0 .71-10.08zm-11.31 5.35c3.88-7.42 21.63-38.81 51.55-55q2.11-1.12 4.06-2a132.33 132.33 0 0 0-19.08-3.07c-9-.74-17.42-.26-22.45 2.64l-.15.09c-23.12 13.77-27.45 46.45-28.24 56.37l2.82.08c1.89.06 3.81.1 5.5.22a52.75 52.75 0 0 1 6 .7zm-56.7 7.92l-.08-.27a99.85 99.85 0 0 0-5-14.46 34.44 34.44 0 0 0-1 9.1 70.41 70.41 0 0 0 1.29 7.64c2.74-.66 4.33-1.07 4.39-1.08l.05-.16.35-.78zm-9.9-24.92c-9-17.14-25.27-39.2-53-52.29-8.24-3.89-14.82-5.39-19.89-5.06a15.77 15.77 0 0 0-4.35.86l-.63.25h-.1a11.4 11.4 0 0 0-3.8 2.64 16.19 16.19 0 0 0-3.84 9.19c-.75 6 .48 13.32 3.49 20.84 5 12.38.72 26.09-3 38.08-1.65 5.31-3.18 10.26-3.6 14.24-.54 5.16 1.23 8.8 8.78 9.6 20.86 2.2 59.07-5.56 78.07-9.85a72.34 72.34 0 0 1-1.44-8.51c-.62-5.74 2.16-16.25 3.23-20zm-56.83-61.63c2.19.79 4.48 1.74 6.87 2.87 30 14.2 47.38 38.31 56.82 56.67l.14.26a136.87 136.87 0 0 1 8.11 19.23 22.88 22.88 0 0 1 2.29-1.88 20.27 20.27 0 0 1 6.66-3.1c-.65-9.22-5.25-48.2-36.89-63.76-16.13-7.93-28.87-10.57-39.38-10.5-1.58 0-3.13.08-4.62.2zm125.21 383.36h12.54l-6.27-6.27-6.27 6.27zm-27.16-82.36h66.87v-4.3h-66.87zm145.64-159.48a19 19 0 0 0 5 9.58l.18.16a18.82 18.82 0 0 0 31.8-9.75zm-358.38 0a18.82 18.82 0 0 0 37 0zm-44.8 0a18.83 18.83 0 0 0 37 0zm128.55 177a3.58 3.58 0 1 1 0-7.16h11.54a3.58 3.58 0 0 1 0 7.15H151.2zm2.85-22.17h48l19.9-71v-18.81h-40.49L154.05 1704zm-41.66-20.35c-9.44.71-17.81 3.77-23.88 9a29 29 0 0 0-10 19.5 39.29 39.29 0 0 0 22-9.22 36.75 36.75 0 0 0 11.88-19.27zM71 1784.23a29 29 0 0 0-10-19.51c-6-5.17-14.32-8.23-23.67-9a36.14 36.14 0 0 0 11.91 19.51 38.87 38.87 0 0 0 21.76 9zm30.59 74.39l7.46-46.29H40.42l7.46 46.29a5.12 5.12 0 0 0 1.95 3.11 6.9 6.9 0 0 0 4.17 1.37h41.49a6.9 6.9 0 0 0 4.13-1.37 5 5 0 0 0 1.94-3.11zm259.72 4.48h59.79l-23.27-40.49h-13.24l-23.27 40.49zm24.79-75.21l10 17.38h26.47a7.68 7.68 0 0 1 1.27.1l1.86-17.48zm14.09 24.52l1.75 3h20.61a.4.4 0 0 0 .27-.12.36.36 0 0 0 .11-.26v-2.3a.36.36 0 0 0-.11-.26.39.39 0 0 0-.27-.11zm-6.46 3l-1.75-3H352a.34.34 0 0 0-.23.11.44.44 0 0 0-.11.24v2.3a.36.36 0 0 0 .11.26.37.37 0 0 0 .26.12z"/><path class="cls-4" d="M1063.43 1595.18h-17.62V1635a3.57 3.57 0 0 1-3.57 3.57h-18.33v199h18.27a3.57 3.57 0 0 1 3.57 3.57v36.52H1074a3.58 3.58 0 0 1 0 7.15H668.76a3.58 3.58 0 0 1 0-7.15H697v-36.52a3.57 3.57 0 0 1 3.57-3.57h18.28v-199h-18.39a3.57 3.57 0 0 1-3.56-3.57v-39.77h-17.63a3.57 3.57 0 0 1-3.57-3.57v-33.28a3.57 3.57 0 0 1 3.57-3.56h384.16a3.58 3.58 0 0 1 3.58 3.56v33.28a3.59 3.59 0 0 1-3.58 3.52zm-212.68 213.9c0-4.43 1.88-9.68 4.85-15.1a109.14 109.14 0 0 1 13-18.15 3.56 3.56 0 0 1 5-.36 2.22 2.22 0 0 1 .37.38A110.22 110.22 0 0 1 887 1794c3 5.42 4.88 10.67 4.88 15.07 0 7.2-2.28 12-5.38 15.21-5.1 5.27-12.2 5.88-15.14 5.88a22.5 22.5 0 0 1-12.34-3.44c-4.45-3-8.11-8.27-8.12-17.6v-.05zm11.1-11.69c-2.42 4.42-4 8.52-4 11.69v.05c0 6.41 2.26 9.85 5 11.67a15.35 15.35 0 0 0 8.38 2.22c2 0 6.82-.38 10-3.67 1.93-2 3.36-5.2 3.36-10.27 0-3.12-1.56-7.21-4-11.63a95.22 95.22 0 0 0-9.41-13.72 95.33 95.33 0 0 0-9.39 13.66zm43.95-35c.7 3.29 1.51 6.57 2.31 9.84v.18c1.94 7.93 3.84 15.64 4.39 23.21.56 7.9-.33 15.54-4.08 22.9a42.1 42.1 0 0 1-15.56 16.75 42.91 42.91 0 0 1-4.28 2.3h65.21V1770a82.5 82.5 0 1 0-165 0v67.58h64.63a41.6 41.6 0 0 1-19.89-20 40 40 0 0 1-3.66-20.34c.44-6.68 2.21-13.72 4.46-21.9l7.73-28.09a3.57 3.57 0 0 1 6.48-.93l4.62 7.57a3.65 3.65 0 0 0 1.54 1.4 3.57 3.57 0 0 0 2.06.32 3.64 3.64 0 0 0 1.9-.84 3.73 3.73 0 0 0 1.1-1.64v-.13l8.48-28.83a3.57 3.57 0 0 1 6.84 0l11.33 33.55a3.59 3.59 0 0 0 1.17 1.67 3.7 3.7 0 0 0 1.88.78 3.62 3.62 0 0 0 2-.34l.18-.08a3.58 3.58 0 0 0 1.33-1.29l4.13-6.74a3.58 3.58 0 0 1 4.91-1.19 3.49 3.49 0 0 1 1.62 2.3l2.06 9.55zm-65.8 52.18a34.42 34.42 0 0 0 12.69 14.43 33.94 33.94 0 0 0 18.31 5.4 35.2 35.2 0 0 0 31.13-19.09c3.09-6 3.81-12.47 3.33-19.16-.5-7-2.32-14.4-4.18-22v-.15c-.83-3.39-1.66-6.76-2.37-10.07l-.19-.88a10.79 10.79 0 0 1-3.59 3.09l-.35.19a10.56 10.56 0 0 1-5.93 1 10.8 10.8 0 0 1-9-7.17v-.07l-7.75-23-5.3 18-.06.16a10.78 10.78 0 0 1-19.45 2.47v-.08l-.33-.53-5.55 20.14c-2.12 7.76-3.8 14.39-4.2 20.51a33 33 0 0 0 3 16.84zM961 1770v67.58h55.76v-199H726v199h55.75V1770a89.65 89.65 0 1 1 179.3 0zm59.32 74.73H704.1v32.94h334.5v-32.93h-18.24zm18.34-249.54H704.05v36.2h334.61zM682.89 1588h377v-26.13h-377V1588z"/><path class="cls-5" d="M1475.73 1635.17a2.87 2.87 0 0 1 4 4.12l-2 1.92 2 1.92a2.87 2.87 0 1 1-4 4.11l-2.15-2.07-2.15 2.07a2.87 2.87 0 1 1-4-4.11l2-1.92-2-1.92a2.87 2.87 0 0 1 4-4.12l2.15 2.08zm225-163.47a15 15 0 0 1-4.42 10.63l-.17.16a14.84 14.84 0 0 1-6.73 3.8v12.8h16.42a2.86 2.86 0 0 1 2.86 2.86v15.18a2.86 2.86 0 0 1-2.86 2.86H1542.6v31h33.85a2.86 2.86 0 0 1 2.87 2.85v33.88h33.85a2.86 2.86 0 0 1 2.86 2.86v33.86h33.86a2.86 2.86 0 0 1 2.86 2.86v33.86h33.85a2.87 2.87 0 0 1 2.87 2.86v33.86h16.41a2.86 2.86 0 0 1 2.86 2.86v15.18a2.86 2.86 0 0 1-2.86 2.86h-194.79v33.86a2.86 2.86 0 0 1-2.86 2.86h-33.86v33.85a2.86 2.86 0 0 1-2.85 2.87h-33.87v33.85a2.86 2.86 0 0 1-2.86 2.86H1401v33.79a2.86 2.86 0 0 1-2.86 2.86h-33.86v31.91h120.26V1889a8.63 8.63 0 0 1-7.8-8.47v-.45a8.62 8.62 0 0 1 2.53-6 8.57 8.57 0 0 1 6-2.52h83.13a8.64 8.64 0 0 1 8.54 8.52v.45a8.66 8.66 0 0 1-2.53 6 8.68 8.68 0 0 1-5.26 2.48v8.46h30.26v-135.18a2.88 2.88 0 0 1 2.88-2.86h84.42a2.87 2.87 0 0 1 2.86 2.86v135.24H1706a2.86 2.86 0 0 1 2.86 2.86v15.18a2.86 2.86 0 0 1-2.86 2.86h-344.63a2.86 2.86 0 0 1-2.86-2.86v-15.18a3.53 3.53 0 0 1 0-.46 3.38 3.38 0 0 1 0-.45v-36.75a2.86 2.86 0 0 1 2.86-2.86h33.86V1826a2.86 2.86 0 0 1 2.86-2.86H1432v-33.86a2.86 2.86 0 0 1 2.86-2.86h33.86v-33.84a2.86 2.86 0 0 1 2.86-2.86h33.86v-31h-144a2.86 2.86 0 0 1-2.86-2.86v-15.14a2.86 2.86 0 0 1 2.86-2.86h17.08v-5.3a2.86 2.86 0 0 1 2.86-2.86h14.91v-72.1h-15.34a2.85 2.85 0 0 1-2.4-3.24l5.37-35.46a2.86 2.86 0 0 1 2.83-2.54h24.12a2.89 2.89 0 0 1 2.81 2.38l6 35.39a2.74 2.74 0 0 1 .08.64 2.86 2.86 0 0 1-2.86 2.86H1402v72.1h14.93a2.86 2.86 0 0 1 2.86 2.86v5.3h14.48v-42.2a12.77 12.77 0 0 1 10.06-12.43v-13.13a10.5 10.5 0 0 1 10.49-10.48h71.64a10.5 10.5 0 0 1 10.47 10.48v13.17a12.78 12.78 0 0 1 9.86 12.39v42.2h18.41l-3.31-20.5v-.16a3.18 3.18 0 0 1-.06-.62 3.67 3.67 0 0 1 .9-2.41 3.84 3.84 0 0 1 1.84-1.17 2.63 2.63 0 0 1 .62-.13h13v-3.42a21.44 21.44 0 0 1-11.1-4.93 20.29 20.29 0 0 1-6.94-12.78 3.84 3.84 0 0 1 0-.48v-.08a2.78 2.78 0 0 1 1.2-2.24h.11l.17-.11h.2a2.81 2.81 0 0 1 1.17-.26c5.85 0 11.18 1.73 15 5a17.48 17.48 0 0 1 3.08 3.46 16.85 16.85 0 0 1 3.07-3.46c3.83-3.28 9.16-5 15-5a2.87 2.87 0 0 1 2.59 4.08 20 20 0 0 1-6.84 12.18 21.12 21.12 0 0 1-11 4.79v3.43h12.7a4.57 4.57 0 0 1 .52.05h.08a3.71 3.71 0 0 1 2.12 1.13l.13.14a3.74 3.74 0 0 1 .89 2.41 3.18 3.18 0 0 1-.06.62v.16l-3.31 20.5h86.78v-31h-33.86a2.86 2.86 0 0 1-2.86-2.86v-34.1h-33.88a2.86 2.86 0 0 1-2.86-2.86v-33.84h-33.86a2.86 2.86 0 0 1-2.86-2.88v-33.82h-33.85a2.87 2.87 0 0 1-2.86-2.86V1520h-177a2.86 2.86 0 0 1-2.86-2.86V1502a2.86 2.86 0 0 1 2.86-2.86h201.51v-12.84a15.06 15.06 0 0 1-6.9-4 15 15 0 0 1-4.41-10.61V1463a15.08 15.08 0 0 1 15-15.06h3.16a9.69 9.69 0 0 1-.93-4.17 9.94 9.94 0 0 1 9.9-9.9H1606a9.94 9.94 0 0 1 9.91 9.9 9.7 9.7 0 0 1-.94 4.17h20.93a9.91 9.91 0 0 1 9-14.07h28.76a9.9 9.9 0 0 1 9 14.07h3.16a15 15 0 0 1 10.62 4.42 15.08 15.08 0 0 1 4.42 10.63v8.71zm-15 9.34a9.47 9.47 0 0 0 6.41-2.62l.12-.13a9.33 9.33 0 0 0 2.74-6.59v-8.7a9.2 9.2 0 0 0-2.74-6.58 9.25 9.25 0 0 0-6.58-2.74h-120.59a9.37 9.37 0 0 0-9.33 9.33v8.68a9.32 9.32 0 0 0 2.73 6.59 9.42 9.42 0 0 0 6.55 2.76h120.75zm-2 5.72h-116.65v12.33h116.66v-12.33zm-321 27.51H1703v-9.46h-340.29v9.46zm209.83 285.11a12.84 12.84 0 0 1-3.8 9.11 12.86 12.86 0 0 1-9.12 3.8H1516a12.91 12.91 0 0 1-9.12-3.79 12.84 12.84 0 0 1-.08-18.16l.08-.08a12.92 12.92 0 0 1 9.12-3.8h43.61a12.92 12.92 0 0 1 9.12 3.8 12.84 12.84 0 0 1 3.8 9.11zm-12.93 7.2a7.15 7.15 0 0 0 5.09-2.1 7.21 7.21 0 0 0-5.1-12.29h-6.36v14.4zm-12.08-14.4h-19.45v14.4h19.45zm-25.17 0H1516a7.2 7.2 0 1 0 0 14.4h6.36v-14.4zm101.46 41.11a2.86 2.86 0 0 1 0 5.72h-7.69a2.86 2.86 0 0 1 0-5.72zm59.92 64.24v-132.37h-78.7v132.37zm-115.51-14.14a3 3 0 0 0 2-.84 2.88 2.88 0 0 0 .84-2v-.24a2.89 2.89 0 0 0-.85-2 2.85 2.85 0 0 0-2-.85h-82.92a2.88 2.88 0 0 0-2 .84 2.88 2.88 0 0 0-.84 2v.24a2.89 2.89 0 0 0 .85 2 3 3 0 0 0 2 .86h82.92zm-4.91 5.72h-73.11v8.42h73.11zm-199.11 23.62H1703v-9.46h-338.77zm95.41-214.86h61.66v-6.82h-61.66zm-95.41 15.13H1703v-9.45h-338.77zm19.94-15.17H1414v-2.44h-29.8zm.45-86h28.86l-5.1-29.84h-19.24zm186.16 85.17a.83.83 0 0 0 .34.5 1.5 1.5 0 0 0 1 .32h17.94a1.57 1.57 0 0 0 1-.32.74.74 0 0 0 .34-.5l3-18.44h-26.51l3 18.44zm-130.85.86h14v-42.2a7 7 0 0 0-14 0zm10-54.54a12.94 12.94 0 0 1 5.93 3.36 12.7 12.7 0 0 1 3.73 9v12h61.66v-12a12.77 12.77 0 0 1 9.85-12.39v-13.19a4.78 4.78 0 0 0-4.76-4.77h-71.64a4.8 4.8 0 0 0-4.77 4.77v13.21zm9.66 30v12h61.66v-12zm67.38 24.52h14v-42.2a7 7 0 0 0-14 0zM1673.55 1448h.06a4.17 4.17 0 0 0 0-8.34h-28.77a4.17 4.17 0 0 0-3 7.12 4.08 4.08 0 0 0 2.89 1.23h28.82zm-67.63 0h.06a4.17 4.17 0 1 0-.06-8.34h-28.75a4.16 4.16 0 0 0-3 7.12 4.08 4.08 0 0 0 2.89 1.23h28.86zm-28.14 215.55a11 11 0 0 0-3.55-5.84 15.48 15.48 0 0 0-7.59-3.32 14.64 14.64 0 0 0 4.11 5.75 15.36 15.36 0 0 0 7 3.41zm17.52-9.15a15.51 15.51 0 0 0-7.52 3.31 11 11 0 0 0-3.56 5.85 15.47 15.47 0 0 0 6.94-3.3 14.36 14.36 0 0 0 4.19-5.84zm-94.1-15.1a2.87 2.87 0 1 1 4-4.12l2.15 2.07 2.15-2.07a2.87 2.87 0 0 1 4 4.12l-2 1.91 2 1.92a2.87 2.87 0 1 1-4 4.11l-2.15-2.07-2.15 2.07a2.87 2.87 0 1 1-4-4.11l2-1.92z"/></g></svg>