<svg width="29" height="29" viewBox="0 0 29 29" fill="none" xmlns="http://www.w3.org/2000/svg">
<path d="M14.5 29C22.5081 29 29 22.5081 29 14.5C29 6.49187 22.5081 0 14.5 0C6.49187 0 0 6.49187 0 14.5C0 22.5081 6.49187 29 14.5 29Z" fill="#00708A"/>
<path d="M11.1892 10.8257C10.8877 10.5366 10.7184 10.1448 10.7186 9.73627C10.7187 9.32775 10.8883 8.93601 11.19 8.64715C11.4917 8.35829 11.9008 8.19595 12.3275 8.1958C12.7541 8.19566 13.1634 8.35772 13.4653 8.64638L18.4415 13.4096C18.7434 13.6988 18.9129 14.091 18.9129 14.4999C18.9129 14.9087 18.7434 15.3009 18.4415 15.5901L13.4653 20.3533C13.1633 20.6423 12.7538 20.8046 12.3268 20.8045C11.8998 20.8044 11.4903 20.6419 11.1885 20.3527C10.8867 20.0635 10.7172 19.6714 10.7173 19.2626C10.7174 18.8538 10.8871 18.4618 11.1892 18.1728L15.0253 14.4999L11.1892 10.8257Z" fill="white"/>
</svg>
