<svg width="248" height="246" viewBox="0 0 248 246" fill="none" xmlns="http://www.w3.org/2000/svg">
<path d="M36.2016 35.9217L36.2403 35.8833C60.3811 11.9637 92.1819 0 123.986 0C155.791 0 187.592 11.9637 211.729 35.8871L211.767 35.9255L211.806 35.9639C235.928 59.9066 248 91.4552 248 123C248 154.545 235.943 186.093 211.826 210.036L211.787 210.078L211.744 210.117C187.607 234.04 155.803 246 124.002 246C92.2012 246 60.3927 234.04 36.2558 210.117L36.2171 210.078L36.1745 210.036C12.0608 186.093 0 154.545 0 123C0 91.4552 12.0608 59.9028 36.1745 35.9601L36.2016 35.9217ZM83.0705 50.3503C88.6598 47.2693 94.587 44.8345 100.736 43.0938L90.1266 42.5831L83.0705 50.3503ZM146.811 42.9671C153.111 44.7149 159.181 47.1904 164.899 50.3426L157.664 42.3911L146.811 42.9671ZM197.222 82.4134C200.398 88.0859 202.891 94.1091 204.649 100.359L205.23 89.6085L197.222 82.4134ZM204.649 145.641C202.89 151.892 200.394 157.915 197.214 163.587L205.234 156.407L204.649 145.641ZM164.899 195.642C159.179 198.797 153.106 201.275 146.804 203.025L157.641 203.601L164.899 195.642ZM101.193 203.033C94.8776 201.284 88.7924 198.804 83.0628 195.642L90.3162 203.617L101.193 203.033ZM50.4492 163.041C47.5131 157.721 45.1767 152.095 43.4822 146.267L43.0332 156.296L50.4492 163.041ZM43.4318 99.9365C45.128 94.035 47.4816 88.3393 50.4492 82.9547L42.948 89.8081L43.4318 99.9365ZM67.7352 67.2015C54.6342 80.1171 46.456 97.1412 44.5957 115.37C42.7354 133.599 47.3082 151.903 57.5342 167.161C67.7601 182.419 83.0057 193.686 100.671 199.038C118.336 204.391 137.325 203.499 154.401 196.514C171.477 189.529 185.581 176.884 194.308 160.736C203.034 144.588 205.842 125.936 202.254 107.964C198.665 89.9906 188.901 73.8094 174.628 62.1798C160.355 50.5503 142.457 44.1928 123.986 44.1918C113.545 44.165 103.201 46.1838 93.5477 50.1324C83.8946 54.081 75.1227 59.8817 67.7352 67.2015ZM51.711 48.254C54.3374 45.7548 57.0932 43.393 59.967 41.1779L43.815 40.41L51.711 48.254ZM65.6064 37.1196C77.042 29.4908 89.8945 24.1969 103.414 21.5469L115.893 7.83242L47.0586 36.2442L65.6064 37.1196ZM110.292 20.4219C114.116 19.9301 117.964 19.6468 121.819 19.5734V7.76716L110.292 20.4219ZM126.162 19.5619C130.017 19.6429 133.865 19.9339 137.688 20.4334L126.166 7.76332L126.162 19.5619ZM144.562 21.5469C157.881 24.1606 170.555 29.3377 181.867 36.7856L200.535 35.795L132.026 7.76716L144.562 21.5469ZM187.526 40.8016C190.574 43.1206 193.49 45.6047 196.262 48.2424L204.68 39.8955L187.526 40.8016ZM199.339 51.2948C202 54.0447 204.506 56.939 206.844 59.9642L207.746 42.9671L199.339 51.2948ZM210.889 65.5813C218.401 76.7996 223.621 89.3704 226.255 102.582L240.143 115.014L211.887 47.0561L210.889 65.5813ZM227.389 109.405C227.891 113.201 228.181 117.022 228.26 120.85H240.166L227.389 109.405ZM228.245 125.146C228.167 128.973 227.877 132.792 227.378 136.588L240.15 125.146H228.245ZM226.243 143.41C223.611 156.624 218.394 169.197 210.885 180.419L211.884 198.944L240.139 130.986L226.243 143.41ZM206.844 186.028C204.505 189.051 201.999 191.944 199.339 194.694L207.746 203.044L206.844 186.028ZM196.262 197.75C193.489 200.387 190.573 202.871 187.526 205.191L204.684 206.104L196.262 197.75ZM181.859 209.214C170.551 216.665 157.88 221.843 144.562 224.457L132.022 238.24L200.531 210.213L181.859 209.214ZM137.688 225.563C133.864 226.059 130.014 226.348 126.158 226.427V238.24L137.688 225.563ZM121.819 226.427C117.962 226.348 114.113 226.059 110.288 225.563L121.819 238.233V226.427ZM103.41 224.442C90.1081 221.827 77.4506 216.654 66.1522 209.214L47.523 210.213L115.947 238.214L103.41 224.442ZM60.4934 205.218C57.4299 202.89 54.4992 200.396 51.7149 197.746L43.2461 206.143L60.4934 205.218ZM48.6378 194.69C46.1812 192.155 43.8559 189.499 41.6707 186.731L40.9779 202.277L48.6378 194.69ZM37.5873 181.148C29.6525 169.504 24.202 156.373 21.5708 142.562L8.9875 131.097L36.817 198.671L37.5873 181.148ZM20.4793 135.732C20.0415 132.22 19.7831 128.688 19.7052 125.15H8.86751L20.4793 135.732ZM19.7284 120.846C19.8065 117.306 20.0648 113.771 20.5025 110.257L8.89073 120.846H19.7284ZM21.5708 103.427C24.1897 89.715 29.5887 76.6738 37.4402 65.0937L36.6157 47.8163L8.99137 114.891L21.5708 103.427ZM41.5082 59.4958C43.7401 56.6442 46.1212 53.9106 48.6417 51.3063L40.7457 43.4739L41.5082 59.4958ZM121.819 23.8928C116.397 24.008 110.993 24.555 105.659 25.5284L93.8927 38.4596L121.819 39.7726V23.8928ZM98.3245 27.1486C89.5137 29.439 81.0615 32.918 73.2044 37.4882L88.2726 38.1985L98.3245 27.1486ZM66.876 41.5042C62.5942 44.4526 58.5525 47.73 54.7881 51.3063L66.1173 62.5482L84.5104 42.3374L66.876 41.5042ZM51.711 54.3625C48.1059 58.0939 44.8018 62.1005 41.8294 66.3454L42.681 84.1833L63.0557 65.6197L51.711 54.3625ZM37.7769 72.6228C33.026 80.657 29.4451 89.3176 27.1406 98.347L38.5123 87.9805L37.7769 72.6228ZM25.5652 105.642C24.6751 110.67 24.1731 115.758 24.0634 120.861H40.0799L38.7794 93.6015L25.5652 105.642ZM24.0712 125.165C24.1806 130.272 24.6827 135.362 25.573 140.393L38.8645 152.506L40.0877 125.165H24.0712ZM27.1483 147.68C29.4736 156.793 33.101 165.529 37.9201 173.623L38.6014 158.112L27.1483 147.68ZM41.9842 179.893C44.9161 184.055 48.1666 187.986 51.7071 191.653L63.0518 180.399L42.7855 161.932L41.9842 179.893ZM54.7843 194.705C58.6989 198.426 62.9138 201.822 67.3869 204.861L84.731 203.931L66.1135 183.467L54.7843 194.705ZM73.7501 208.834C81.4541 213.252 89.7205 216.625 98.3284 218.863L88.4855 208.043L73.7501 208.834ZM105.659 220.483C110.994 221.459 116.399 222.006 121.823 222.119V206.258L94.0668 207.744L105.659 220.483ZM126.173 222.119C131.598 222.005 137.005 221.458 142.341 220.483L153.953 207.732L126.185 206.254L126.173 222.119ZM149.672 218.863C158.293 216.621 166.571 213.24 174.285 208.811L159.526 208.043L149.672 218.863ZM180.636 204.837C185.095 201.804 189.297 198.416 193.2 194.705L181.852 183.452L163.254 203.897L180.636 204.837ZM196.277 191.653C200.017 187.782 203.432 183.615 206.488 179.194L205.559 161.963L184.929 180.419L196.277 191.653ZM210.498 172.893C214.967 165.238 218.378 157.021 220.639 148.463L209.681 158.234L210.498 172.893ZM222.276 141.191C223.258 135.902 223.809 130.543 223.925 125.165H207.901L209.391 152.71L222.276 141.191ZM223.913 120.865C223.797 115.486 223.246 110.124 222.264 104.832L209.41 93.3135L207.92 120.858L223.913 120.865ZM220.631 97.5599C218.372 89.0066 214.964 80.7935 210.498 73.1412L209.724 87.7809L220.631 97.5599ZM206.492 66.8445C203.434 62.4231 200.018 58.2563 196.277 54.3855L184.929 65.6197L205.54 84.049L206.492 66.8445ZM193.2 51.3293C189.296 47.6212 185.094 44.2339 180.636 41.2009L163.234 42.1032L181.852 62.5482L193.2 51.3293ZM174.265 37.2079C166.548 32.7804 158.268 29.3997 149.645 27.1563L159.507 37.9758L174.265 37.2079ZM142.333 25.5284C136.999 24.5546 131.595 24.0076 126.173 23.8928V39.7573L153.937 38.2829L142.333 25.5284ZM32.5942 199.819L4.69116 132.061C6.54031 157.004 16.3087 180.726 32.5942 199.819ZM4.69116 113.935L32.5942 46.1768C16.3101 65.2715 6.54188 88.992 4.69116 113.935ZM47.8366 31.2721L111.589 4.95669C88.1873 7.30138 66.0068 16.4569 47.8366 31.2721ZM136.527 4.95669L199.444 30.6809C181.436 16.2246 159.573 7.28557 136.527 4.95669ZM217.035 48.1503L242.968 110.553C240.614 87.698 231.603 66.0176 217.035 48.158V48.1503ZM242.968 135.428L217.035 197.83C231.603 179.971 240.614 158.29 242.968 135.436V135.428ZM111.423 241.013L48.5294 215.288C66.5311 229.747 88.3879 238.692 111.43 241.032L111.423 241.013ZM199.424 215.288L136.531 241.013C159.57 238.68 181.426 229.744 199.432 215.296L199.424 215.288Z" fill="#00708A"/>
</svg>
