<svg width="240" height="241" viewBox="0 0 240 241" fill="none" xmlns="http://www.w3.org/2000/svg">
<path d="M126.633 7.85711L134.826 19.5252H150.226L126.633 7.85711ZM189.702 201.957H133.441L167.138 213.132L189.702 201.957ZM106.575 201.957H50.2979L72.8776 213.132L106.575 201.957ZM38.8814 190.493V133.983L27.7527 167.82L38.8814 190.493ZM38.8814 107.021V50.5105L27.7527 73.1801L38.8814 107.021ZM50.2979 39.0466H106.578L72.8814 27.8717L50.2979 39.0466ZM133.425 39.0466H189.702L167.122 27.8717L133.425 39.0466ZM201.119 50.5105V107.021L212.247 73.1801L201.119 50.5105ZM201.119 133.983V190.493L212.247 167.82L201.119 133.983ZM43.1985 197.622H196.801V43.3817H43.1985V197.622ZM137.869 23.868L143.084 31.2936L161.6 25.1589L158.991 23.868H137.869ZM217.508 221.486H201.119V224.392L229.9 233.929L217.508 221.486ZM196.786 221.486H192.346L196.801 222.962L196.786 221.486ZM178.562 221.486H159.954L129.254 236.673H166.259L178.581 221.486H178.562ZM150.207 221.486H134.822L126.633 233.151L150.207 221.486ZM129.538 221.486H122.159V232.014L129.553 221.486H129.538ZM117.826 221.486H110.431L117.826 232.014V221.486ZM105.162 221.486H89.7626L113.352 233.151L105.162 221.486ZM80.0154 221.486H74.8808V236.673H110.742L80.0154 221.486ZM70.5483 221.486H61.3997L70.5483 232.761V221.486ZM47.6385 221.486H43.1832V222.962L47.6385 221.486ZM38.866 221.486H22.4761L10.0849 233.929L38.866 224.392V221.486ZM19.4253 218.404V201.946H16.5319L7.03409 230.846L19.4253 218.404ZM19.4253 197.595V193.148L17.9556 197.622L19.4253 197.595ZM19.4253 179.295V170.12H8.19686L19.4253 179.303V179.295ZM19.4253 165.785V160.637L4.3018 129.81V165.828L19.4253 165.785ZM19.4253 150.822V135.386L7.80543 127.159L19.4253 150.822ZM19.4253 130.064V122.669H8.94131L19.4253 130.064ZM19.4253 118.307V110.909L8.94131 118.334L19.4253 118.307ZM19.4253 105.591V90.1467L7.80543 113.837L19.4253 105.591ZM19.4253 80.3436V75.1916H4.3018V111.206L19.4253 80.3436ZM19.4253 70.8334V61.6738L8.19686 70.8565L19.4253 70.8334ZM19.4253 47.8324V44.3643H18.2741L19.4253 47.8324ZM19.4253 40.0215V22.5656L7.03409 10.1229L16.858 40.0215H19.4253ZM22.4953 19.5021H38.8852V16.5966L10.1041 7.05945L22.4953 19.5021ZM43.2177 19.5021H47.673L43.2177 18.0263V19.5021ZM61.4419 19.5021H80.0499L110.75 4.31197H73.7449L61.4227 19.4982L61.4419 19.5021ZM89.7932 19.5021H105.197L113.39 7.83399L89.7932 19.5021ZM110.466 19.5021H117.861V8.9977L110.466 19.5021ZM122.178 19.5021H129.573L122.178 8.97458V19.5021ZM159.988 19.5021H165.142V4.33509H129.258L159.988 19.5021ZM169.459 19.5021H178.604L169.459 8.23088V19.5021ZM192.365 19.5021H196.821V18.0494L192.365 19.5021ZM201.138 19.5021H217.528L229.919 7.05945L201.138 16.5966V19.5021ZM220.578 22.5656V39.0235H223.472L232.97 10.1229L220.578 22.5656ZM220.578 43.374V47.8478L222.048 43.374H220.578ZM220.578 61.67V70.8488H231.807L220.552 61.6738L220.578 61.67ZM220.578 75.1839V80.359L235.702 111.186V75.1916L220.578 75.1839ZM220.578 90.1428V105.607L232.198 113.834L220.578 90.1428ZM220.578 110.901V118.327H231.062L220.578 110.901ZM220.578 122.662V130.083L231.062 122.662H220.578ZM220.578 135.378V150.842L232.198 127.151L220.578 135.378ZM220.578 160.629V165.805H235.702V129.794L220.578 160.629ZM220.578 170.14V179.322L231.807 170.14H220.578ZM220.578 193.141V197.614H222.048L220.578 193.141ZM220.578 201.95V218.407L232.97 230.85L223.472 201.95H220.578ZM26.8279 217.136H38.9006V205.013L26.8279 217.136ZM43.2177 217.136H52.3663L43.2177 205.861V217.136ZM57.9153 217.136H60.755L67.06 215.047L48.9586 206.096L57.9153 217.136ZM81.0285 217.136H102.135L96.9194 209.71L78.4036 215.845L81.0285 217.136ZM107.423 217.136H117.861V202.778L101.206 208.3L107.423 217.136ZM122.178 217.136H132.616L138.825 208.273L122.178 202.759V217.136ZM137.888 217.136H158.995L161.604 215.845L143.088 209.71L137.873 217.136H137.888ZM179.283 217.136H182.123L191.08 206.096L172.967 215.055L179.283 217.136ZM187.672 217.136H196.821V205.861L187.672 217.136ZM201.138 217.136H213.211L201.138 205.013V217.136ZM216.261 214.053V201.93H204.189L216.261 214.053ZM216.261 197.595V188.409L205.033 197.595H216.261ZM216.261 182.837V179.985L214.181 173.654L205.248 191.877L216.261 182.837ZM216.261 159.628V138.434L208.867 143.671L214.976 162.267L216.261 159.628ZM216.261 133.124V122.669H201.963L207.454 139.386L216.261 133.124ZM216.261 118.307V107.872L207.435 101.638L201.944 118.354L216.261 118.307ZM216.261 102.532V81.3378L214.976 78.7175L208.867 97.3102L216.261 102.532ZM216.261 60.9648V58.1133L205.267 49.1194L214.181 67.296L216.261 60.9648ZM216.261 52.5412V43.3817H205.033L216.261 52.5412ZM216.261 39.0196V26.9238L204.189 39.0466L216.261 39.0196ZM213.191 23.8333H201.119V35.9562L213.191 23.8333ZM196.801 23.8333H187.653L196.801 35.1084V23.8333ZM182.104 23.8333H179.26L172.967 25.9489L191.068 34.8965L182.104 23.8333ZM132.6 23.8333H122.162V38.1911L138.813 32.7039L132.6 23.8333ZM117.845 23.8333H107.407L101.206 32.7039L117.853 38.2181L117.845 23.8333ZM102.135 23.8333H81.0285L78.4189 25.1242L96.9348 31.2589L102.131 23.868L102.135 23.8333ZM60.7435 23.8333H57.8999L48.9433 34.8695L67.0523 25.9489L60.7397 23.868L60.7435 23.8333ZM52.3509 23.8333H43.2024V35.1084L52.3509 23.8333ZM38.8852 23.8333H26.8125L38.8852 35.9562V23.8333ZM23.7617 26.8968V40.0523H36.8091L23.7617 26.8968ZM23.7617 44.3527V52.5412L33.7698 44.3527H23.7617ZM23.7617 58.1133V60.9648L25.8416 67.296L34.7561 49.1194L23.7617 58.1133ZM23.7617 81.3224V102.516L31.1565 97.2794L25.0473 78.6866L23.7617 81.3224ZM23.7617 107.826V118.307H38.0601L32.5687 101.591L23.7425 107.826H23.7617ZM23.7617 122.643V133.124L32.5879 139.359L38.0793 122.643H23.7617ZM23.7617 138.415V159.608L25.0473 162.229L31.1565 143.632L23.7617 138.415ZM23.7617 179.985V182.837L34.7561 191.83L25.8416 173.654L23.7617 179.985ZM23.7617 188.409V197.595H34.9901L23.7617 188.409ZM23.7617 201.93V214.053L35.8344 201.93H23.7617ZM222.01 183.696L226.576 197.595H235.687V172.502L222.01 183.696ZM228 201.93L235.675 225.324V201.93H228ZM224.42 236.638L201.122 228.931V236.638H224.42ZM196.79 227.49L182.944 222.927L171.816 236.665H196.805L196.79 227.49ZM57.0288 222.901L43.187 227.49V236.638H68.2036L57.0288 222.901ZM38.8699 228.92L15.5725 236.626H38.8699V228.92ZM4.30564 225.324L11.9806 201.93H4.30564V225.324ZM13.4158 197.58L17.9824 183.681L4.30564 172.506V197.599L13.4158 197.58ZM17.9824 57.2386L13.7612 44.3373H4.32101V68.4327L17.9824 57.2386ZM12.3337 40.0523L4.31717 15.6603V40.0523H12.3337ZM15.584 4.3428L38.8814 12.0496V4.3428H15.584ZM43.2139 13.4947L57.0557 18.0802L68.1844 4.3428H43.1947L43.2139 13.4947ZM235.698 15.6564L228.023 39.0543H235.698V15.6564ZM226.588 43.401L222.021 57.3002L235.698 68.4751V43.3817L226.588 43.401ZM182.944 18.0879L196.786 13.5023V4.33509H171.816L182.944 18.0879ZM201.103 12.0727L224.401 4.36592H201.103V12.0727ZM119.971 0H240V241H0V0H119.971Z" fill="#00708A"/>
</svg>
