<svg width="240" height="185" viewBox="0 0 240 185" fill="none" xmlns="http://www.w3.org/2000/svg">
<path d="M173.255 137.431L184.265 130.184L176.126 118.799L173.255 137.431ZM75.5026 126.454L98.9265 90.5852C98.8166 90.4748 98.7219 90.3501 98.6448 90.2145L92.8068 79.9825L75.5026 126.454ZM101.061 87.3358L114.866 66.1994L94.9135 76.5886L101.061 87.3358ZM125.165 66.1994L139.107 87.5497L145.317 76.6923L125.165 66.1994ZM141.188 90.7361L164.518 126.46L147.333 80.2652L141.636 90.2271C141.522 90.4211 141.372 90.5917 141.195 90.7298L141.188 90.7361ZM120.012 64.7475L71.6366 138.835H168.403L120.018 64.7445L120.012 64.7475ZM184.465 124.399L179.052 100.035L176.917 113.824L184.465 124.399ZM28.1977 162.755L50.3508 131.718L50.5166 130.973L41.5952 125.103L25.1675 150.262L28.1977 162.755ZM55.5689 124.418L62.5714 114.6L60.5868 101.791L55.5783 124.399L55.5689 124.418ZM65.4857 110.515L86.5963 80.9378L62.8062 93.3192L65.4857 110.515ZM98.8263 63.7671L118.259 36.5405V11.5387L98.8263 63.7671ZM121.781 36.5468L141.21 63.7671L121.781 11.5387V36.5468ZM153.44 80.9126L174.006 109.733L176.602 92.9768L153.44 80.9126ZM189.686 131.702L211.774 162.652L214.806 150.148L198.442 125.084L189.532 130.954L189.698 131.699L189.686 131.702ZM210.315 168.662H197.894L200.651 181.083H207.3L210.315 168.662ZM194.3 168.662H192.085L195.443 173.798L194.3 168.662ZM187.88 168.662H176.386L194.015 178.06L187.88 168.662ZM167.172 168.662H141.952L150.717 181.083H165.992L167.172 168.662ZM134.587 168.662H121.781V179.138L134.587 168.662ZM118.259 168.662H105.453L118.259 179.138V168.662ZM98.0969 168.662H72.8637L74.0689 181.083H89.3448L98.0969 168.662ZM63.6638 168.662H52.1569L46.0183 178.06L63.6638 168.662ZM47.9686 168.662H45.7523L44.6003 173.802L47.9686 168.662ZM42.1588 168.662H29.6375L32.652 181.083H39.3885L42.1588 168.662ZM118.259 42.618L97.9968 70.9949L118.259 60.4455V42.618ZM86.2926 87.4051L66.2588 115.477L69.0762 133.682L86.2926 87.4051ZM63.3445 119.566L55.7629 130.187L66.0366 136.95L63.3445 119.566ZM53.7126 133.059L53.6125 133.201L49.8154 150.29L65.1318 140.576L53.7126 133.059ZM48.3911 140.51L34.4614 160.028L45.6302 152.942L48.3911 140.51ZM32.9963 165.126H42.9257L44.5534 157.794L32.9963 165.126ZM46.5192 165.126H50.2568L62.4649 146.434L48.7355 155.142L46.5192 165.126ZM54.4638 165.126H68.9915L67.1134 145.755L54.4638 165.126ZM77.7751 165.126H95.574L88.5495 159.382L77.7751 165.126ZM104.877 165.126H118.256V146.145L104.877 165.126ZM121.781 165.126H135.156L121.781 146.145V165.126ZM144.463 165.126H162.258L151.484 159.382L144.463 165.126ZM171.042 165.126H185.572L172.923 145.755L171.042 165.126ZM189.777 165.126H193.514L191.298 155.142L177.572 146.437L189.777 165.126ZM197.108 165.126H207.037L195.48 157.797L197.108 165.126ZM205.56 160.028L191.629 140.51L194.391 152.942L205.56 160.028ZM186.425 133.216L186.325 133.075L174.905 140.592L190.222 150.306L186.425 133.216ZM173.234 114.732L153.744 87.4238L170.491 132.44L173.234 114.729V114.732ZM142.037 70.9949L121.781 42.6086V60.4455L142.037 70.9949ZM169.498 144.636L154.438 156.958L167.62 163.988L169.498 144.636ZM138.553 169.955L124.952 181.083H146.394L138.553 169.955ZM115.076 181.083L101.475 169.955L93.6332 181.083H115.076ZM85.6071 156.958L70.5442 144.636L72.4223 163.988L85.6071 156.958ZM73.3302 142.368L88.9815 155.163L112.978 142.368H73.3302ZM91.9303 157.586L100.802 164.846L114.334 145.639L91.9303 157.586ZM139.263 164.843L148.135 157.586L125.728 145.645L139.263 164.843ZM151.093 155.163L166.745 142.368H127.083L151.093 155.163ZM192.197 181.083L170.623 169.578L169.498 181.083H192.197ZM69.4392 169.578L47.8683 181.083H70.5568L69.4392 169.578ZM199.346 184.615H1.77177C1.44394 184.617 1.12213 184.528 0.842503 184.355C0.562875 184.183 0.336515 183.937 0.188868 183.643C0.0412189 183.349 -0.0218663 183.02 0.00670802 182.692C0.0352823 182.365 0.154382 182.051 0.350617 181.788L39.5918 121.712L39.6169 121.671L39.642 121.633L118.5 0.87612C118.656 0.609469 118.878 0.38828 119.145 0.234575C119.412 0.0808709 119.714 0 120.022 0C120.329 0 120.632 0.0808709 120.898 0.234575C121.165 0.38828 121.388 0.609469 121.543 0.87612L200.408 121.643L239.714 181.837C239.888 182.103 239.986 182.412 239.998 182.729C240.011 183.048 239.938 183.363 239.788 183.643C239.637 183.922 239.414 184.155 239.143 184.318C238.871 184.482 238.56 184.568 238.243 184.568H199.328L199.346 184.615ZM51.3335 127.271L57.0902 101.358L43.5235 122.13L51.3335 127.271ZM66.046 87.6501L90.0395 75.1525L82.6491 62.2272L66.0585 87.6501H66.046ZM150.204 75.2529L173.994 87.6438L157.535 62.4378L150.204 75.2529ZM26.2131 169.431L7.84766 181.083H29.0397L26.2131 169.431ZM7.68802 177.011L25.3366 165.817L22.5318 154.271L7.68802 177.011ZM92.1338 71.7145L112.891 15.9131L84.7463 59.0094C84.9017 59.1429 85.0331 59.3023 85.1345 59.4808L92.1338 71.7177V71.7145ZM127.155 15.9162L148.013 71.9878L155.168 59.4808C155.232 59.368 155.309 59.2626 155.397 59.1665L127.155 15.9192V15.9162ZM188.706 127.271L196.517 122.13L182.958 101.358L188.706 127.271ZM232.195 181.083L213.755 169.38L210.915 181.083H232.195ZM214.631 165.772L232.355 177.011L217.446 154.183L214.631 165.772Z" fill="#00708A"/>
</svg>
