<svg width="183" height="300" viewBox="0 0 183 300" fill="none" xmlns="http://www.w3.org/2000/svg">
<path d="M65.1575 61.2109L181.867 123.989C182.21 124.174 182.496 124.447 182.695 124.781C182.894 125.114 182.999 125.495 182.999 125.884C182.999 126.272 182.894 126.653 182.695 126.987C182.496 127.321 182.21 127.594 181.867 127.779L65.1575 190.557L181.867 253.339C182.21 253.523 182.496 253.796 182.695 254.129C182.895 254.463 183 254.844 183 255.232C183 255.62 182.895 256.001 182.695 256.334C182.496 256.668 182.21 256.941 181.867 257.125L102.636 299.743C102.322 299.913 101.971 300.001 101.615 300L43.1543 300C42.6608 300.001 42.1819 299.833 41.7974 299.524C41.4129 299.216 41.1461 298.785 41.0415 298.303C40.9369 297.822 41.0007 297.319 41.2225 296.879C41.4443 296.439 41.8105 296.088 42.26 295.885L117.842 255.228L1.13206 192.45C0.789756 192.265 0.503776 191.992 0.304481 191.658C0.105201 191.325 6.91239e-06 190.943 6.92937e-06 190.555C6.94634e-06 190.167 0.105201 189.785 0.304481 189.452C0.503776 189.118 0.789756 188.845 1.13206 188.66L117.842 125.878L1.13206 63.1C0.789762 62.9154 0.503781 62.6419 0.304486 62.3083C0.105207 61.9747 1.25665e-05 61.5935 1.25834e-05 61.2051C1.26004e-05 60.8167 0.105207 60.4355 0.304487 60.1019C0.503782 59.7684 0.789762 59.4948 1.13206 59.3103L110.899 0.256705C111.213 0.0889899 111.563 0.000860862 111.92 -3.10702e-06L170.395 -5.50962e-07C170.888 0.00100001 171.366 0.170137 171.749 0.479409C172.133 0.78868 172.398 1.21949 172.503 1.70036C172.607 2.18123 172.544 2.68328 172.323 3.12325C172.103 3.56321 171.738 3.91467 171.29 4.1193L65.1575 61.2147L65.1575 61.2109ZM111.467 246.917L90.2887 224.741L73.4015 218.633L77.0592 228.408L111.463 246.917L111.467 246.917ZM83.6145 217.756L66.3013 199.623L71.4288 213.345L83.6145 217.756ZM66.3013 181.491L83.6145 163.358L71.4288 167.772L66.3013 181.491ZM90.2888 156.372L111.467 134.205L77.063 152.713L73.4054 162.492L90.2926 156.361L90.2888 156.372ZM111.467 117.567L90.2888 95.3953L73.4016 89.2642L77.0592 99.0433L111.467 117.567ZM83.6145 88.4059L66.3013 70.2772L71.4288 83.9954L83.6145 88.4059ZM66.7925 50.8187L79.3275 36.3993L71.1064 39.2847L66.7925 50.8187ZM85.023 29.8429L102.597 9.62191L77.063 23.3554L73.0677 34.0388L85.023 29.8429ZM109.801 7.88604L93.221 26.9651L109.843 21.133L109.801 7.88604ZM87.5408 33.5215L69.9666 53.7425L109.882 32.2838L109.859 25.7006L87.5254 33.5407L87.5408 33.5215ZM71.5478 69.5414L92.7259 91.7128L109.613 97.8439L105.959 88.0649L71.5478 69.5414ZM99.4002 98.7022L116.713 116.831L111.582 103.113L99.4002 98.7022ZM116.713 134.967L99.4002 153.096L111.586 148.686L116.713 134.967ZM92.7259 160.086L71.5478 182.257L105.952 163.753L109.605 153.974L92.7259 160.086ZM71.5478 198.887L92.7259 221.063L109.613 227.171L105.959 217.396L71.5478 198.887ZM99.4002 228.048L116.713 246.177L111.586 232.459L99.4002 228.048ZM145.157 13.312L114.169 24.1908L114.169 29.9732L145.138 13.312L145.157 13.312ZM65.833 41.1393L44.7662 48.5311L59.5387 57.9691L65.833 41.1393ZM39.6156 50.3359L14.7915 59.0497L53.2521 59.0497L39.6156 50.3359ZM14.4307 63.3644L39.2165 72.3349L53.2597 63.3644L14.4039 63.3644L14.4307 63.3644ZM44.3096 74.178L66.1286 82.0756L59.5387 64.4488L44.3096 74.178ZM114.902 99.7177L143.269 109.983L144.869 108.964L111.682 91.1112L114.902 99.7177ZM148.358 111.827L153.973 113.861L149.198 111.29L148.358 111.827ZM153.977 137.883L148.358 139.914L149.198 140.451L153.977 137.883ZM143.265 141.758L114.902 152.027L111.682 160.633L144.869 142.781L143.265 141.758ZM66.1209 169.681L44.3019 177.578L59.531 187.307L66.1209 169.681ZM39.2088 179.421L14.4269 188.392L53.2521 188.392L39.2088 179.421ZM14.4269 192.703L39.2088 201.673L53.2521 192.703L14.4269 192.703ZM44.3019 203.516L66.1209 211.41L59.531 193.783L44.3019 203.513L44.3019 203.516ZM114.902 229.068L143.268 239.333L144.869 238.31L111.682 220.461L114.902 229.068ZM148.358 241.176L153.973 243.207L149.198 240.64L148.358 241.176ZM160.298 263.831L146.527 268.092L149.214 269.801L160.298 263.831ZM141.15 269.755L116.376 277.419L111.682 289.976L144.869 272.154L141.15 269.778L141.15 269.755ZM111.187 279.032L97.3085 283.327L102.613 294.861L105.936 293.072L111.187 279.032ZM93.1481 284.607L57.3702 295.685L98.2564 295.685L93.1481 284.607ZM63.6838 289.228L91.3173 280.672L88.9915 275.606L63.6607 289.228L63.6838 289.228ZM95.4816 279.388L113.071 273.943L118.352 259.822L92.8065 273.567L95.4931 279.388L95.4816 279.388ZM118.264 272.337L136.391 266.724L123.453 258.458L118.264 272.337ZM141.764 265.057L166.596 257.37L129.751 257.37L141.764 265.057ZM168.557 253.059L143.775 244.092L129.732 253.059L168.557 253.059ZM138.697 242.265L116.878 234.367L123.468 251.994L138.697 242.265ZM68.0975 216.71L39.7346 206.444L38.1342 207.467L71.3175 225.32L68.0975 216.71ZM34.6416 204.601L29.0228 202.57L33.8011 205.137L34.6416 204.601ZM29.0266 178.544L34.6378 176.513L33.8011 175.976L29.0266 178.544ZM39.7346 174.67L68.1013 164.404L71.3214 155.798L38.1342 173.647L39.7346 174.67ZM116.878 146.751L138.697 138.853L123.468 129.124L116.878 146.751ZM143.79 137.01L168.572 128.039L129.747 128.039L143.79 137.01ZM168.576 123.728L143.79 114.758L129.747 123.728L168.576 123.728ZM138.697 112.915L116.878 105.017L123.468 122.644L138.697 112.915ZM68.0975 87.3636L39.7346 77.1094L38.1342 78.1287L71.3214 95.9816L68.0975 87.3636ZM34.6378 75.2548L29.0266 73.22L33.8011 75.7875L34.6378 75.2548ZM27.407 50.0677L35.0063 47.3854L33.8011 46.619L27.407 50.0677ZM40.1568 45.592L67.7904 35.8973L71.3252 26.4478L38.138 44.3007L40.1568 45.592ZM114.142 19.6308L157.768 4.30322L114.092 4.30322L114.142 19.6308Z" fill="#00708A"/>
</svg>
