<svg id="Layer_1" data-name="Layer 1" xmlns="http://www.w3.org/2000/svg" viewBox="0 0 11.5345 23.836"><defs><style>.cls-1{fill:none;stroke:#b1b1b1;stroke-miterlimit:10;stroke-width:2px;}</style></defs><title>Facebook</title><path class="cls-1" d="M6.619,23.0013H4.2819a.9841.9841,0,0,1-.9529-1.0127V12.0918H2.17a.9859.9859,0,0,1-.9546-1.0145V9.34A.9859.9859,0,0,1,2.17,8.3258H3.329V6.0628c0-3.0736,1.1918-4.8975,4.5924-4.8975h1.874A.9859.9859,0,0,1,10.75,2.18v1.737a.9859.9859,0,0,1-.9546,1.0145H8.9861c-1.3189,0-1.4143.5235-1.4143,1.503V8.3089H9.7189a.9933.9933,0,0,1,.9491,1.123l-.1759,1.737a.978.978,0,0,1-.9491.9059H7.5718v9.9138A.9841.9841,0,0,1,6.619,23.0013Z" transform="translate(-0.2155 -0.1653)"/></svg>