<?xml version="1.0" encoding="utf-8"?>
<!-- Generator: Adobe Illustrator 21.1.0, SVG Export Plug-In . SVG Version: 6.00 Build 0)  -->
<svg version="1.1" id="Layer_1" xmlns="http://www.w3.org/2000/svg" xmlns:xlink="http://www.w3.org/1999/xlink" x="0px" y="0px"
	 viewBox="0 0 566.9 566.9" style="enable-background:new 0 0 566.9 566.9;" xml:space="preserve">
<style type="text/css">
	.st0{fill:#EB6209;}
</style>
<polygon class="st0" points="157.7,337.1 178.2,337.1 178.2,353.9 184.7,353.9 184.7,314.2 178.2,314.2 178.2,330.9 157.7,330.9 
	157.7,314.2 151.3,314.2 151.3,353.9 157.7,353.9 "/>
<path class="st0" d="M189.9,334.1c0,9.9,6.5,20.5,20.7,20.5s20.7-10.6,20.7-20.5c0-9.9-6.5-20.5-20.7-20.5S189.9,324.2,189.9,334.1z
	 M224.9,334.1c0,7.1-4.4,14.3-14.2,14.3s-14.2-7.2-14.2-14.3s4.4-14.3,14.2-14.3S224.9,327,224.9,334.1z"/>
<path class="st0" d="M268.5,342.6c0-5.6-3.3-8.3-6-9.6c2.4-1.5,4.5-4.1,4.5-8.3c0-6.6-5.2-10.5-13.8-10.5h-16.4v39.7h16.9
	C257.1,353.9,268.5,353.1,268.5,342.6z M243.1,320.4h9.6c6.8,0,7.7,2.4,7.7,4.9c0,4.3-4,4.9-6.4,4.9h-10.9V320.4z M243.1,347.7
	v-11.2h10.8c5.6,0,8.1,1.7,8.1,5.6c0,4.7-3.3,5.6-9.3,5.6H243.1z"/>
<path class="st0" d="M292.5,313.6c-14.2,0-20.7,10.6-20.7,20.5c0,9.9,6.5,20.5,20.7,20.5s20.7-10.6,20.7-20.5
	C313.2,324.2,306.7,313.6,292.5,313.6z M292.5,348.3c-9.8,0-14.2-7.2-14.2-14.3s4.4-14.3,14.2-14.3s14.2,7.2,14.2,14.3
	S302.3,348.3,292.5,348.3z"/>
<polygon class="st0" points="345.3,314.2 318.5,314.2 318.5,353.9 325,353.9 325,320.4 345.3,320.4 "/>
<path class="st0" d="M355.8,340.5h7.4c14,0,17-7.2,17-13.2c0-10.9-9.2-13.2-17-13.2h-13.9v39.7h6.4V340.5z M355.8,320.4h7.6
	c7.2,0,10.3,2.1,10.3,6.9c0,4.8-3.2,6.9-10.3,6.9h-7.6V320.4z"/>
<path class="st0" d="M410.8,353.9h6.9l-17.2-39.7h-6.3l-17.3,39.7h7l3.9-9.1h19.1L410.8,353.9z M390.4,338.7l6.9-16.4l7,16.4H390.4z
	"/>
<path class="st0" d="M455.6,347.7v-33.5h-25.1v1c0,14.3-1.9,25.3-5.8,32.5h-5v15.1h6.2v-8.9h28.2v8.9h6.2v-15.1H455.6z M449.1,347.7
	h-17.3c2.7-6.1,4.3-14.8,5.1-27.3h12.2V347.7z"/>
<polygon class="st0" points="157.7,374.4 177.6,374.4 177.6,407.9 184,407.9 184,368.2 151.3,368.2 151.3,407.9 157.7,407.9 "/>
<path class="st0" d="M204.8,368.2l-17.3,39.7h7l3.9-9.1h19.1l3.9,9.1h6.9L211,368.2H204.8z M200.9,392.7l6.9-16.4l7,16.4H200.9z"/>
<path class="st0" d="M263.6,396.6c0-5.6-3.3-8.3-6-9.6c2.4-1.5,4.5-4.1,4.5-8.3c0-6.6-5.2-10.5-13.8-10.5h-16.4v39.7h16.9
	C252.2,407.9,263.6,407.1,263.6,396.6z M238.2,374.4h9.6c6.8,0,7.7,2.4,7.7,4.9c0,4.3-4,4.9-6.4,4.9h-10.9V374.4z M247.8,401.7h-9.5
	v-11.2H249c5.6,0,8.1,1.7,8.1,5.6C257.1,400.8,253.8,401.7,247.8,401.7z"/>
<path class="st0" d="M277.3,370.8c-1.1,14.6-2.4,31.2-8.2,31.2c-1.2,0-1.7-0.1-2.3-0.3l-1.3-0.5v6.3l0.6,0.2
	c1.2,0.4,2.4,0.7,3.7,0.7c10.6-0.1,12.1-16.5,13.7-34h12.6v33.5h6.4v-39.7h-25.1L277.3,370.8z"/>
<polygon class="st0" points="343.6,407.9 343.6,368.2 338,368.2 316.7,396.5 316.7,368.2 310.3,368.2 310.3,407.9 315.9,407.9 
	337.2,379.6 337.2,407.9 "/>
<polygon class="st0" points="378.2,384.9 357.7,384.9 357.7,368.2 351.3,368.2 351.3,407.9 357.7,407.9 357.7,391.1 378.2,391.1 
	378.2,407.9 384.6,407.9 384.6,368.2 378.2,368.2 "/>
<path class="st0" d="M410.6,367.6c-14.2,0-20.7,10.6-20.7,20.5c0,9.9,6.5,20.5,20.7,20.5s20.7-10.6,20.7-20.5
	C431.4,378.2,424.9,367.6,410.6,367.6z M410.6,402.3c-9.8,0-14.2-7.2-14.2-14.3s4.4-14.3,14.2-14.3s14.2,7.2,14.2,14.3
	S420.5,402.3,410.6,402.3z"/>
<g>
	<path class="st0" d="M207.3,202.2c0-17.3,12.3-31.6,28.6-34.8v-50.2h-84.6v169.3h84.6V237C219.6,233.8,207.3,219.4,207.3,202.2z"/>
	<path class="st0" d="M249.6,117.1v50.2c16.3,3.2,28.6,17.6,28.6,34.8c0,17.3-12.3,31.6-28.6,34.8v49.4h84.6V117.1H249.6z"/>
</g>
<g>
	<path class="st0" d="M150.6,450l6.6-10.8l-6-10.2h3.8l5,8.8h3.2V429h3.4v8.8h3.2l4.9-8.8h3.9l-6.1,10.2l6.6,10.8h-3.8l-5.5-9.1
		h-3.1v9.1h-3.4v-9.1H160l-5.5,9.1H150.6z"/>
	<path class="st0" d="M181.2,450v-14.4h3.2v9.4l7.7-9.4h2.8V450h-3.2v-9.4L184,450H181.2z"/>
	<path class="st0" d="M199.1,450.3c-0.6,0-1.3-0.1-2-0.4v-2.5c0.3,0.1,0.6,0.2,0.9,0.2c2.4,0,3.1-4.8,3.4-11.9h11.1V450h-3.2v-11.7
		h-4.9C204,445.3,203,450.3,199.1,450.3z"/>
	<path class="st0" d="M223.2,435.2c4,0,7.8,2.6,7.8,7.6c0,5-3.8,7.6-7.8,7.6c-4,0-7.8-2.6-7.8-7.6
		C215.4,437.8,219.2,435.2,223.2,435.2z M223.2,438.2c-2.7,0-4.6,1.8-4.6,4.6c0,2.8,1.9,4.7,4.6,4.7c2.7,0,4.5-1.8,4.5-4.7
		C227.8,440,225.9,438.2,223.2,438.2z"/>
	<path class="st0" d="M234,450v-14.4h3.2v9.4l7.7-9.4h2.8V450h-3.2v-9.4l-7.7,9.4H234z M240.8,433.6c-1.6,0-3.1-0.3-4.4-1.2v-2.6
		c1.5,1,2.9,1.3,4.4,1.3s2.8-0.3,4.4-1.3v2.6C243.9,433.3,242.4,433.6,240.8,433.6z"/>
	<path class="st0" d="M258.8,450v-14.4h3.2v5.7h2.4l4.1-5.7h3.7l-5.2,7.1l5.8,7.3H269l-4.7-6H262v6H258.8z"/>
	<path class="st0" d="M274.8,450v-14.4h8.2c2.9,0,4.6,1.6,4.6,3.8c0,1.6-0.8,2.7-2,3.3c1.4,0.4,2.5,1.6,2.5,3.3c0,2.2-1.4,4-4.7,4
		H274.8z M278,441.6h4.3c1.1,0,2-0.5,2-1.7c0-1.4-1-1.8-2-1.8H278V441.6z M278,447.6h4.5c1.3,0,2.3-0.5,2.3-1.8
		c0-1.5-1.1-1.9-2.2-1.9H278V447.6z"/>
	<path class="st0" d="M304.5,447.7c0.3,0,0.7-0.1,1-0.2v2.3c-0.6,0.2-1.3,0.4-2,0.4c-1.3,0-2.4-0.5-2.9-1.7
		c-1.4,1.1-3.2,1.9-5.4,1.9c-2.6,0-5-1.4-5-4.4c0-3.7,3.4-4.8,6.4-4.8c1.2,0,2.6,0.2,3.8,0.4v-0.5c0-1.8-1.3-3.1-3.8-3.1
		c-2.1,0-3.9,0.5-5.2,1.1v-2.9c1.1-0.4,3.2-1,5.5-1c4.1,0,6.7,1.9,6.7,6.3v5.2C303.4,447.5,303.9,447.7,304.5,447.7z M293.3,445.8
		c0,1.4,1.3,2.1,2.7,2.1c1.5,0,3-0.6,4.2-1.7v-2.4c-0.9-0.2-2.1-0.4-3.1-0.4C295.3,443.4,293.3,444,293.3,445.8z"/>
	<path class="st0" d="M316.1,435.2c4.3,0,7.1,3.4,7.1,7.6c0,4.1-2.8,7.6-7.1,7.6c-2.5,0-4.2-1.1-5.2-2.3v8.5h-3.2v-21h2.8v2.3
		C311.7,436.5,313.4,435.2,316.1,435.2z M315.5,438c-2.2,0-3.9,1.4-4.6,3v3.5c0.7,1.6,2.4,3,4.6,3c2.6,0,4.5-2,4.5-4.8
		C320,440,318.1,438,315.5,438z"/>
	<path class="st0" d="M329.3,450v-11.6h-5v-2.8h13.1v2.8h-5V450H329.3z"/>
	<path class="st0" d="M353.3,447.7c0.3,0,0.7-0.1,1-0.2v2.3c-0.6,0.2-1.3,0.4-2,0.4c-1.3,0-2.4-0.5-2.9-1.7
		c-1.4,1.1-3.2,1.9-5.4,1.9c-2.6,0-5-1.4-5-4.4c0-3.7,3.4-4.8,6.4-4.8c1.2,0,2.6,0.2,3.8,0.4v-0.5c0-1.8-1.3-3.1-3.8-3.1
		c-2.1,0-3.9,0.5-5.2,1.1v-2.9c1.1-0.4,3.2-1,5.5-1c4.1,0,6.7,1.9,6.7,6.3v5.2C352.2,447.5,352.7,447.7,353.3,447.7z M342.2,445.8
		c0,1.4,1.3,2.1,2.7,2.1c1.5,0,3-0.6,4.2-1.7v-2.4c-0.9-0.2-2.1-0.4-3.1-0.4C344.1,443.4,342.2,444,342.2,445.8z"/>
	<path class="st0" d="M357.7,450.3c-0.6,0-1.3-0.1-2-0.4v-2.5c0.3,0.1,0.6,0.2,0.9,0.2c2.4,0,3.1-4.8,3.4-11.9h11.1V450h-3.2v-11.7
		H363C362.6,445.3,361.5,450.3,357.7,450.3z"/>
</g>
<text transform="matrix(1 0 0 1 150.4395 620.0139)" class="st0" style="font-family:'MullerMedium'; font-size:30px;">Жилой квартал</text>
</svg>
