<?xml version="1.0" encoding="utf-8"?>
<!-- Generator: Adobe Illustrator 19.1.1, SVG Export Plug-In . SVG Version: 6.00 Build 0)  -->
<svg version="1.1" id="Layer_1" xmlns="http://www.w3.org/2000/svg" xmlns:xlink="http://www.w3.org/1999/xlink" x="0px" y="0px"
	 width="543.6px" height="346.3px" viewBox="-25 247.6 543.6 346.3" style="enable-background:new -25 247.6 543.6 346.3;"
	 xml:space="preserve">
<style type="text/css">
	.st0{fill:#4EAD33;}
	.st1{fill:#DB0D15;}
	.st2{fill-rule:evenodd;clip-rule:evenodd;fill:#4EAD33;}
</style>
<g>
	<path class="st0" d="M214.3,480.3v-23.9h-11.1v58.8h21.1c9.5,0,15.5-7.7,15.5-17.2c0-9.7-6.1-17.7-15.6-17.7H214.3L214.3,480.3
		L214.3,480.3z M214.3,506.5v-17.4h5.6c5.6,0,8.4,3.2,8.4,8.8c0,5.5-2.8,8.6-8.4,8.6H214.3L214.3,506.5L214.3,506.5z"/>
	<path class="st0" d="M315.3,515.3h12l3.5-15.3h12.6l2.8,15.3h12.1l-13-58.8h-15L315.3,515.3L315.3,515.3L315.3,515.3z M332.2,491.3
		l5.4-27.4l4.5,27.4H332.2L332.2,491.3L332.2,491.3z"/>
	<polygon class="st0" points="450,456.5 450,515.3 479.5,515.3 479.5,506.3 460.5,506.3 460.5,488.1 477.9,488.1 477.9,479.1 
		460.5,479.1 460.5,465.5 479.5,465.5 479.5,456.5 450,456.5 450,456.5 	"/>
	<polygon class="st0" points="129,456.5 129,515.3 158.5,515.3 158.5,506.3 139.4,506.3 139.4,488.1 156.8,488.1 156.8,479.1 
		139.4,479.1 139.4,465.5 158.5,465.5 158.5,456.5 129,456.5 129,456.5 	"/>
	<polygon class="st0" points="260.5,456.5 260.5,515.3 290,515.3 290,506.3 270.9,506.3 270.9,488.1 288.3,488.1 288.3,479.1 
		270.9,479.1 270.9,465.5 290,465.5 290,456.5 260.5,456.5 260.5,456.5 	"/>
	<polygon class="st0" points="50.6,456.5 50.6,515.3 80.1,515.3 80.1,506.3 61.1,506.3 61.1,488.1 78.4,488.1 78.4,479.1 
		61.1,479.1 61.1,465.5 80.1,465.5 80.1,456.5 50.6,456.5 50.6,456.5 	"/>
	<path class="st0" d="M369.8,456.5v27.7c0,20.9-1.3,22.7-4.4,22.7c-1.2,0-2.6-0.2-3.3-0.4v8.1c1.9,0.6,3.8,0.7,6.2,0.7
		c8.6,0,11.6-8.6,11.6-27.8v-22.1h11v48.9h10.3v-57.7H369.8L369.8,456.5L369.8,456.5z"/>
	<path class="st0" d="M413.8,456.5v27.7c0,20.9-1.3,22.7-4.4,22.7c-1.2,0-2.6-0.2-3.3-0.4v8.1c2,0.6,3.8,0.7,6.2,0.7
		c8.6,0,11.6-8.6,11.6-27.8v-22.1h11v48.9h10.3v-57.7H413.8L413.8,456.5L413.8,456.5z"/>
	<path class="st0" d="M92.8,456.5v27.7c0,20.9-1.3,22.7-4.4,22.7c-1.2,0-2.6-0.2-3.3-0.4v8.1c2,0.6,3.8,0.7,6.2,0.7
		c8.6,0,11.6-8.6,11.6-27.8v-22.1h11v48.9h10.3v-57.7H92.8L92.8,456.5L92.8,456.5z"/>
	<path class="st0" d="M484.4,456.5v57.7h11.1l15-41.9h0.1c-1.1,5.2-1.3,11.3-1.3,20.1v21.8h9.6v-57.7h-11.1l-15,42h-0.1
		c1-4.8,1.3-13.5,1.3-20.4v-21.6H484.4L484.4,456.5L484.4,456.5z"/>
	<polygon class="st0" points="173.9,456.5 163.4,456.5 163.4,515.3 173.9,515.3 173.9,488.1 187.7,488.1 187.7,515.3 198.2,515.3 
		198.2,456.5 187.7,456.5 187.7,479.1 173.9,479.1 173.9,456.5 	"/>
	<path class="st0" d="M10.7,473.4c0-10,6.3-17.5,17-17.5c7.7,0,17.1,3.6,17.1,15.2c0,5.9-3.6,11.1-8.8,12.4
		c5.7,1.4,9.6,6.1,9.6,14.7c0,11.5-6.3,17.2-17.6,17.2c-9.4,0-18.2-4.3-18.2-16.6h10.5c0,4,1.6,7.8,7.1,7.8c5.2,0,7.1-3.6,7.1-9.5
		c0-6.7-3.4-9.2-7.9-9.2h-2.3v-8.2h2.3c4,0,7.1-2.2,7.1-7.3c0-3.8-1.4-8-6-8c-4.3,0-6.5,3.7-6.5,8.8H10.7L10.7,473.4L10.7,473.4z"/>
	<polygon class="st0" points="245,515.3 255.5,515.3 255.5,456.5 245,456.5 245,515.3 	"/>
	<path class="st1" d="M20.7,421.9v7.1l-5.3-7.1h-2.6l4.7,5.9l-4.8,9.3h2.5l3.8-7.6l1.7,2.2v5.4h2.2v-5.4l1.6-2.2l3.8,7.6h2.5
		l-4.8-9.3l4.7-5.9h-2.6l-5.3,7.1v-7.1H20.7L20.7,421.9L20.7,421.9z M39.8,421.9v15.2h2.6l5-11.5c0.1-0.2,0.4-1.4,0.5-1.9h0
		c-0.1,0.5-0.2,1.5-0.2,1.9v11.5h2.2v-15.2h-2.6l-5,11.6c-0.1,0.3-0.3,1.1-0.5,1.8h0c0.1-0.5,0.2-1.3,0.2-1.8v-11.6H39.8L39.8,421.9
		L39.8,421.9z M61.4,421.9v7.7c0,4.9-0.4,5.8-1.6,5.8c-0.4,0-0.7,0-0.9-0.1v1.7c0.5,0.2,0.7,0.2,1.3,0.2c2.7,0,3.3-3.1,3.3-7.5v-6
		h4.7v13.4h2.2v-15.2H61.4L61.4,421.9L61.4,421.9z M85.9,421.5c-3.8,0-5.4,2.9-5.4,7.9c0,6.2,2.2,8.1,5.4,8.1c3.3,0,5.4-1.8,5.4-8
		C91.3,424.4,89.6,421.5,85.9,421.5L85.9,421.5L85.9,421.5z M85.9,423.4c2.3,0,3.2,1.7,3.2,6.3c0,3.6-0.6,6-3.2,6
		c-2.5,0-3.2-2.4-3.2-6C82.7,425.1,83.6,423.4,85.9,423.4L85.9,423.4L85.9,423.4z M101.4,421.9v15.2h2.6l5-11.5
		c0.1-0.2,0.4-1.4,0.5-1.9h0c-0.1,0.5-0.2,1.5-0.2,1.9v11.5h2.2v-15.2h-2.6l-5,11.6c-0.1,0.3-0.3,1.1-0.5,1.8h0
		c0.1-0.5,0.2-1.3,0.2-1.8v-11.6H101.4L101.4,421.9L101.4,421.9z M103.1,417c0.1,2.4,1.6,3.4,3.4,3.4c2,0,3.4-1,3.6-3.4h-1.1
		c-0.3,1.4-1.1,1.9-2.3,1.9c-1.2,0-2.1-0.5-2.4-1.9H103.1L103.1,417L103.1,417z M138.1,421.9h-2.2v15.2h2.2v-5.4l1.6-2.2l3.8,7.6
		h2.5l-4.8-9.3l4.7-5.9h-2.6l-5.3,7.1V421.9L138.1,421.9z M157.3,423.8h2.4c1.6,0,2.3,0.7,2.3,2.2c0,1.7-0.7,2.3-2.4,2.3h-2.3V423.8
		L157.3,423.8z M157.3,430h2.5c1.6,0,2.5,0.9,2.5,2.6c0,1.8-0.5,2.6-2.5,2.6h-2.5V430L157.3,430z M155.1,437.1h5.6
		c2,0,3.8-1.5,3.8-4.1c0-2.1-1.1-3.4-2.7-3.8v-0.1c1.4-0.4,2.4-1.6,2.4-3.6c0-2.2-1.8-3.6-4.1-3.6h-4.9V437.1L155.1,437.1z
		 M180.8,428.8v3.7c0,1.6-0.5,3.1-2.8,3.1c-1.5,0-2-1-2-2.3C176,430.3,178.6,430.2,180.8,428.8L180.8,428.8L180.8,428.8z M176.3,426
		c0-1.8,0.6-2.7,2.2-2.7c1.7,0,2.3,0.6,2.3,2.4c0,0.8,0,1.5-0.6,1.8c-0.2,0.1-1.7,0.8-2.7,1.1c-2.6,1-3.8,2-3.8,4.7
		c0,2.8,1.3,4.2,3.9,4.2c1.5,0,2.8-1.1,3.4-2.4h0.1c0.3,2,1,2.2,2.3,2.2c0.4,0,0.7-0.1,0.9-0.2v-1.6c-0.1,0-0.3,0.1-0.5,0.1
		c-0.6,0-0.8-0.5-0.8-1.2v-9c0-2-1.2-3.9-4.2-3.9c-2.8,0-4.4,1.4-4.4,4.5H176.3L176.3,426L176.3,426z M198.7,423.4
		c2.8,0,3,3.9,3,5.9c0,4.1-0.7,6.4-3,6.4c-2.7,0-2.9-3.3-2.9-6.2C195.8,426.9,196.1,423.4,198.7,423.4L198.7,423.4L198.7,423.4z
		 M195.8,421.9h-2.2v20.5h2.2v-6.9c0.8,1.2,1.7,2,3.3,2c3.8,0,4.8-3.6,4.8-8.3c0-4.2-1.1-7.7-5-7.7c-1.1,0-2.4,0.7-3.1,2.1h0V421.9
		L195.8,421.9z M218.6,437.1v-13.4h4v-1.8h-10.1v1.8h4v13.4H218.6L218.6,437.1L218.6,437.1z M237.8,428.8v3.7c0,1.6-0.5,3.1-2.8,3.1
		c-1.5,0-2-1-2-2.3C233,430.3,235.6,430.2,237.8,428.8L237.8,428.8L237.8,428.8z M233.3,426c0-1.8,0.6-2.7,2.2-2.7
		c1.7,0,2.3,0.6,2.3,2.4c0,0.8,0,1.5-0.6,1.8c-0.2,0.1-1.7,0.8-2.7,1.1c-2.6,1-3.8,2-3.8,4.7c0,2.8,1.2,4.2,3.9,4.2
		c1.5,0,2.8-1.1,3.4-2.4h0.1c0.3,2,1,2.2,2.3,2.2c0.4,0,0.7-0.1,0.9-0.2v-1.6c-0.1,0-0.3,0.1-0.5,0.1c-0.6,0-0.8-0.5-0.8-1.2v-9
		c0-2-1.2-3.9-4.2-3.9c-2.8,0-4.4,1.4-4.4,4.5H233.3L233.3,426L233.3,426z M251.5,421.9v7.7c0,4.9-0.4,5.8-1.6,5.8
		c-0.4,0-0.7,0-0.9-0.1v1.7c0.5,0.2,0.7,0.2,1.3,0.2c2.7,0,3.3-3.1,3.3-7.5v-6h4.7v13.4h2.2v-15.2H251.5L251.5,421.9L251.5,421.9z"
		/>
	<path class="st1" d="M243.6,332.7c-0.3-0.3-0.5-0.7-0.5-1.2v-21.9h-12v45.7c0,0.4-0.2,0.8-0.5,1.2c-0.3,0.3-0.7,0.5-1.2,0.5H224
		c-0.4,0-0.9-0.2-1.2-0.5c-0.3-0.3-0.5-0.7-0.5-1.2v-9.7h-10.8c-0.4,0-0.8-0.2-1.1-0.5c-0.3-0.3-0.5-0.7-0.5-1.2v-49.5H186v41.9h7.6
		c0.4,0,0.9,0.2,1.2,0.5c0.3,0.3,0.5,0.7,0.5,1.2v24.5c0,0.4-0.2,0.8-0.5,1.1c-0.3,0.3-0.7,0.5-1.2,0.5h-9.2c-0.4,0-0.8-0.2-1.2-0.5
		c-0.3-0.3-0.5-0.7-0.5-1.1v-22.9h-4.6v4.8c0,0.4-0.2,0.8-0.5,1.2c-0.3,0.3-0.7,0.5-1.2,0.5h-8.3c-0.4,0-0.8-0.2-1.1-0.5
		c-0.3-0.3-0.5-0.7-0.5-1.2V338c0-0.4,0.2-0.8,0.5-1.2c0.3-0.3,0.7-0.5,1.1-0.5h6.7v-9.2h-29.5v12.2c0,0.4-0.2,0.8-0.5,1.2
		c-0.3,0.3-0.7,0.5-1.2,0.5h-6.7l1.4,33.7l124.5,6.6v-30.1h-8.1c-0.4,0-0.8-0.2-1.2-0.5c-0.3-0.3-0.5-0.7-0.5-1.1V343
		c0-0.4,0.2-0.8,0.5-1.2c0.3-0.3,0.7-0.5,1.2-0.5h8.1v-8.3h-18.2C244.4,333.1,243.9,333,243.6,332.7L243.6,332.7L243.6,332.7z
		 M193.7,317.9c0,0.9-0.7,1.6-1.6,1.6c-0.9,0-1.6-0.7-1.6-1.6v-3.8c0-0.9,0.7-1.6,1.6-1.6c0.9,0,1.6,0.7,1.6,1.6V317.9L193.7,317.9z
		 M193.7,305.3c0,0.9-0.7,1.6-1.6,1.6c-0.9,0-1.6-0.7-1.6-1.6v-3.8c0-0.9,0.7-1.6,1.6-1.6c0.9,0,1.6,0.7,1.6,1.6V305.3L193.7,305.3z
		 M174.9,342.8v-3.2h-5v3.2H174.9L174.9,342.8L174.9,342.8z M256.6,347.9h6.4v-3.2h-6.4V347.9L256.6,347.9z M186,339.6v21.2h6v-21.2
		H186L186,339.6L186,339.6z M134.1,268.9l2.8,68.8h5.2v-12.2c0-0.4,0.2-0.9,0.5-1.2c0.3-0.3,0.7-0.5,1.2-0.5h32.7
		c0.4,0,0.8,0.2,1.2,0.5c0.3,0.3,0.5,0.7,0.5,1.2v10.8h4.6v-43.5c0-0.4,0.2-0.9,0.5-1.2c0.3-0.3,0.7-0.5,1.2-0.5h27.2
		c0.4,0,0.9,0.2,1.2,0.5c0.3,0.3,0.5,0.7,0.5,1.2v49.5H224c0.4,0,0.8,0.2,1.1,0.5c0.3,0.3,0.5,0.7,0.5,1.1v9.7h2.3V308
		c0-0.4,0.2-0.9,0.5-1.2c0.3-0.3,0.7-0.5,1.2-0.5h15.2c0.4,0,0.9,0.2,1.2,0.5c0.3,0.3,0.5,0.7,0.5,1.2v21.9H263v-58.7l41.4,5.1
		l0-28.5L134.1,268.9L134.1,268.9L134.1,268.9z"/>
	<path class="st0" d="M304.4,276.3l-41.4-5.1v58.7h1.6c0.4,0,0.9,0.2,1.2,0.5c0.3,0.3,0.5,0.7,0.5,1.2v9.9h7.3v-38.9
		c0-0.4,0.2-0.8,0.5-1.2c0.3-0.3,0.7-0.5,1.2-0.5h23.7v-8.1c0-0.4,0.2-0.9,0.5-1.2c0.3-0.3,0.7-0.5,1.2-0.5h13.4
		c0.4,0,0.8,0.2,1.1,0.5c0.3,0.3,0.5,0.7,0.5,1.2v37.4l14.3-13.2c0.6-0.6,1.6-0.6,2.2,0l14.7,14.5V302c0-0.4,0.2-0.8,0.5-1.1
		c0.3-0.3,0.7-0.5,1.2-0.5h31.3c0.4,0,0.9,0.2,1.2,0.5c0.3,0.3,0.5,0.7,0.5,1.1v29.3h11.3c0.4,0,0.8,0.2,1.2,0.5
		c0.3,0.3,0.5,0.7,0.5,1.2v8.5h14.8l12-50.7L304.4,276.3L304.4,276.3L304.4,276.3z M391.1,358v-13.3h-5V358H391.1L391.1,358
		L391.1,358z M312.3,337.6l-7.1,6.6h7.1V337.6L312.3,337.6z M350.1,339.3v21.6h6.9V346L350.1,339.3L350.1,339.3L350.1,339.3z
		 M394.4,359.6c0,0.4-0.2,0.8-0.5,1.2c-0.3,0.3-0.7,0.5-1.2,0.5h-8.3c-0.4,0-0.9-0.2-1.2-0.5c-0.3-0.3-0.5-0.7-0.5-1.2V343
		c0-0.4,0.2-0.8,0.5-1.2c0.3-0.3,0.7-0.5,1.2-0.5h6.7v-6.9h-11.3c-0.4,0-0.8-0.2-1.2-0.5c-0.3-0.3-0.5-0.7-0.5-1.1v-29.3h-28.1v31
		l9.6,9.5c0.3,0.3,0.5,0.7,0.5,1.2v17.1c0,0.4-0.2,0.8-0.5,1.1c-0.3,0.3-0.7,0.5-1.1,0.5h-10.1c-0.4,0-0.8-0.2-1.2-0.5
		c-0.3-0.3-0.5-0.7-0.5-1.1v-26.4L331,320.4l-15.4,14.2v11.2c0,0.4-0.2,0.8-0.5,1.2c-0.3,0.3-0.7,0.5-1.1,0.5H301
		c-0.7,0-1.3-0.4-1.5-1c-0.2-0.6-0.1-1.3,0.4-1.8l4.4-4l8-7.4v-38.8h-10.1v8.1c0,0.4-0.2,0.8-0.5,1.2c-0.3,0.3-0.7,0.5-1.2,0.5
		h-23.7V343c0,0.4-0.2,0.8-0.5,1.2c-0.3,0.3-0.7,0.5-1.2,0.5h-9v4.8c0,0.4-0.2,0.8-0.5,1.1c-0.3,0.3-0.7,0.5-1.2,0.5H263v46.7
		l133-0.7l12.4-52.4h-14V359.6L394.4,359.6z M282.4,316c0,0.9-0.7,1.6-1.6,1.6c-0.9,0-1.6-0.7-1.6-1.6v-3.8c0-0.9,0.7-1.6,1.6-1.6
		c0.9,0,1.6,0.7,1.6,1.6V316L282.4,316z M289.5,316c0,0.9-0.7,1.6-1.6,1.6c-0.9,0-1.6-0.7-1.6-1.6v-3.8c0-0.9,0.7-1.6,1.6-1.6
		c0.9,0,1.6,0.7,1.6,1.6V316L289.5,316z M296.6,325.5c0,0.9-0.7,1.6-1.6,1.6c-0.9,0-1.6-0.7-1.6-1.6v-3.8c0-0.9,0.7-1.6,1.6-1.6
		c0.9,0,1.6,0.7,1.6,1.6V325.5L296.6,325.5z M296.6,316c0,0.9-0.7,1.6-1.6,1.6c-0.9,0-1.6-0.7-1.6-1.6v-3.8c0-0.9,0.7-1.6,1.6-1.6
		c0.9,0,1.6,0.7,1.6,1.6V316L296.6,316z"/>
	<path class="st2" d="M69.1,404.9c0,0-0.1-0.7-0.3-2c-0.3-1.3-0.6-3.2-0.9-5.8c-1.2-8.9,0.6-23.4,6.7-35.2
		c5-9.8,16.1-28.7,27.3-30.5c1.3-0.2,2.2-0.2,2.9,0.1c0.7,0.2,1.1,0.8,1.3,1.7c3.6,10.9-3.9,30.7-11.8,46c0.7-3.7,1.3-7.4,1.5-9.9v0
		c0.2-2.9,0.4-5.3,0.3-7.7c-0.1-2.1-0.6-7.7-1.9-9.4c-2.6,4.8-2.7,4.3-2.6,4.6c1.5,3.3,1.3,18.8-5.8,35l1.3,0.1
		c-0.6,1-1.2,1.9-1.7,2.7c-1.2,1.9-2.2,3.5-2.8,4.7l3.2-0.9c0.4-0.4,0.7-0.7,1.1-1.2c14-14.6,37-61.3,19.7-73.5
		c-0.6-0.4-0.9-0.9-1-1.3c0-0.1,0-0.2,0.1-0.3c0.1-0.1,0.2-0.1,0.3-0.2c0.4-0.1,1.3,0.2,2.6,0.7c3.8,1.6,10.2-0.7,12.2,2.6
		c2.7,4.6,8.3,21.8,7.3,39.4c-2.1,37.8-12.9,45-50.9,43.4C72,407.9,70.6,408.4,69.1,404.9L69.1,404.9L69.1,404.9z"/>
	<path class="st2" d="M51.1,391.7c0-7.2-0.5-14.1-1.7-19.9c-1.3-6.3-3.5-11.4-6.7-14.4l0.1,2.9c5.7,6.3,5.6,27.8,5,35.5L51.1,391.7
		L51.1,391.7L51.1,391.7z M53.1,405.9c-19.9-2.3-29.2-1.4-38.2-20.4c-18.6-39.6,6.9-22,20.4-4.8l0.5,0.6c-1.1-0.9-2.3-1.8-3.6-2.6
		c-2.5-1.6-9.4-6.1-14-3.7l2.7,1.3c2.8,0,7.6,2.9,10,4.4c4.9,3.3,9.4,7.2,9.4,8.1l1,0c2.5,3.5,4.3,6.3,4.3,6.3l-0.2-4.6
		c-1.9-2.9-5.2-8.8-13.5-19c-0.7-7.2-0.7-11.5-9-19.5l0.9,3.5c2.6,1.7,5,7.4,5.3,12.6C18,358.6,18,359.1,4.8,352.1
		c-1.2-2.9-2.6-5.1-3.8-6.5c-2.5-3.1,3.4-2.5,8.1-1.2c21.1,0.5,50.9-7.7,52.4,25.3c0.6,13-2.7,28.3-0.5,36.2
		C60.2,407.4,54.9,406.1,53.1,405.9L53.1,405.9L53.1,405.9z"/>
	<path class="st2" d="M14.1,413.6c-17,7.3-28.8,25.3-33.8,22.4c-3-1.7-4.5-6.3-4.5-11.6c0-7.7,3.4-17,10.5-21.3
		c4.5-4.1,19.5,2.1,25.7,6.6c-10.8-2.9-17-1.4-27.8,12.2l2.3-0.2c10-12,16.6-12.2,28.2-8.6C14.5,413.3,14.4,413.5,14.1,413.6
		L14.1,413.6L14.1,413.6z"/>
	<path class="st2" d="M417.2,396.8c0,0,0.5,0,1.4-0.2c0.9-0.2,20.7,2.7,22.3,2.2c8.9-2.5,39.2,0.7,37.9,26.2c0,0.9,0.7,1.7,0.6,2.3
		c0,0.5-0.3,0.8-0.9,1c-7.3,2.5-21.6-3.3-34.4-9.8c5,1.1,10.9,1.3,17.8-0.1l-1.9-1.9c-0.2-0.4-11.4,4.2-28.6-6.5l-0.1,1.7
		c-1.8-1-3.4-2-4.9-2.8l0.6,2.4c14,11.5,53.7,31.1,58.5,17.8c0.2-0.5,0.4-0.7,0.8-0.7c0.1,0,0.1,0,0.2,0.1c0.1,0.1,0.1,0.1,0.2,0.2
		c0.1,0.3,0.2,1,0.1,2c-1.6,19.6-42.7,13.5-51.4,8.3c-10.9-6.6-16.2-26.2-18.6-35.8C415.8,399,415.1,397.9,417.2,396.8L417.2,396.8
		L417.2,396.8z"/>
	<path class="st2" d="M431.2,379.5c7.2,0.4,14.1,0.3,19.9-0.7c6.3-1.1,11.5-3.2,14.6-6.5l-2.9-0.1c-6.4,5.9-28,4.6-35.6,3.5
		L431.2,379.5L431.2,379.5L431.2,379.5z M416.9,380.8c2.7-21.7,1.9-32,21.1-40.8c40-18.1,21.9,8.9,4.4,22.7l-0.6,0.5
		c0.9-1.2,1.8-2.5,2.7-3.8c1.7-2.6,6.2-9.9,4-15.2l-1.4,2.9c0,3.1-3,8.2-4.6,10.7c-3.4,5.2-7.3,10-8.3,9.9l0,1.1
		c-3.6,2.5-6.4,4.3-6.4,4.4l4.6,0c2.9-2,8.9-5.2,19.2-13.8c7.2-0.4,11.5-0.1,19.7-8.8l-3.5,0.8c-1.8,2.7-7.5,5.1-12.7,5.1
		c9.8-11.7,9.3-11.7,16.5-25.8c2.9-1.2,5.2-2.6,6.6-3.8c3.2-2.6,2.5,3.9,1.1,9c-0.9,23.2,6.8,56.4-26.3,56.1
		c-13-0.1-28.3-4.6-36.2-2.6C415.2,388.5,416.6,382.7,416.9,380.8L416.9,380.8L416.9,380.8z"/>
	<path class="st2" d="M403.8,412c0,4.8-0.4,9.3-1.5,13.2c-1.1,4.2-3,7.5-5.7,9.4l0.1-1.9c4.8-4,4.8-18.4,4.3-23.4L403.8,412
		L403.8,412L403.8,412z M405.4,402.6c-16.9,0.9-24.8,0-32.4,12.4c-15.8,25.8,5.9,14.8,17.3,3.8l0.4-0.4c-1,0.6-2,1.1-3,1.6
		c-2.1,1-8,3.8-11.9,2l2.3-0.8c2.4,0.1,6.5-1.7,8.5-2.6c4.2-2,8-4.5,8-5.1l0.9,0c2.1-2.3,3.6-4,3.7-4.1l-0.2,3
		c-1.6,1.8-4.4,5.7-11.5,12.2c-0.6,4.7-0.6,7.6-7.7,12.7l0.7-2.3c2.2-1.1,4.2-4.8,4.5-8.2c-9.5,6.1-9.4,5.7-20.6,10
		c-1,1.9-2.2,3.3-3.2,4.2c-2.1,2,14.9,1.9,17.6,2.1c17,1.4,36.9,1,38-17c0.5-8.6-6.5-18.2-4.6-23.5
		C411.4,401.8,406.9,402.5,405.4,402.6L405.4,402.6L405.4,402.6z"/>
	<path class="st1" d="M512,541.4v-1.5c0-0.6,0.2-1,0.5-1.3c0.3-0.3,0.8-0.4,1.3-0.4c0.6,0,1,0.1,1.3,0.4c0.3,0.3,0.5,0.7,0.5,1.2
		v1.5H512L512,541.4L512,541.4z M519.1,547.4v-1h-3.4v0.9c0,0.5-0.2,0.9-0.5,1.2c-0.3,0.3-0.8,0.4-1.3,0.4c-0.6,0-1-0.1-1.3-0.4
		c-0.3-0.3-0.5-0.7-0.5-1.3v-3.3h7.1v-4.1c0-0.6-0.2-1.2-0.4-1.6c-0.3-0.6-0.6-1.1-1.1-1.5c-0.5-0.4-1-0.7-1.7-0.9
		c-0.6-0.2-1.3-0.3-2.1-0.3c-0.8,0-1.5,0.1-2.1,0.3c-0.6,0.2-1.2,0.5-1.7,0.9c-0.5,0.4-0.8,0.9-1.1,1.5c-0.3,0.6-0.4,1.3-0.4,2.2
		v6.4c0,0.9,0.1,1.6,0.4,2.2c0.3,0.6,0.6,1.1,1.1,1.5c0.5,0.4,1,0.7,1.7,0.9c0.6,0.2,1.3,0.3,2.1,0.3c0.8,0,1.5-0.1,2.1-0.3
		c0.6-0.2,1.2-0.5,1.7-0.9c0.5-0.4,0.8-0.9,1.1-1.5C518.9,548.5,519,548,519.1,547.4L519.1,547.4z M493.6,538.3c0.4,0,0.7,0,1,0.2
		c0.3,0.1,0.5,0.3,0.6,0.6c0.1,0.3,0.2,0.6,0.2,1.1v7.1c0,0.5-0.1,0.8-0.2,1.1c-0.1,0.3-0.4,0.5-0.6,0.6c-0.3,0.1-0.6,0.2-1,0.2
		c-0.4,0-0.7-0.1-1-0.2c-0.3-0.1-0.5-0.3-0.7-0.6c-0.2-0.3-0.2-0.6-0.2-1.1v-7.1c0-0.5,0.1-0.8,0.2-1.1c0.2-0.3,0.4-0.5,0.7-0.6
		C493,538.3,493.3,538.3,493.6,538.3L493.6,538.3L493.6,538.3z M493.6,535.5c-1,0-1.9,0.1-2.6,0.4c-0.7,0.3-1.3,0.6-1.7,1.1
		c-0.4,0.5-0.7,1-0.9,1.6c-0.2,0.6-0.3,1.2-0.3,1.9v6.1c0,0.7,0.1,1.3,0.3,1.9c0.2,0.6,0.5,1.1,0.9,1.6c0.4,0.5,1,0.8,1.7,1.1
		c0.7,0.3,1.5,0.4,2.6,0.4c1,0,1.8-0.1,2.5-0.4c0.7-0.3,1.2-0.6,1.7-1.1c0.4-0.5,0.7-1,0.9-1.6c0.2-0.6,0.3-1.2,0.3-1.9v-6.1
		c0-0.7-0.1-1.3-0.3-1.9c-0.2-0.6-0.5-1.1-0.9-1.6c-0.4-0.5-1-0.8-1.7-1.1C495.5,535.7,494.6,535.5,493.6,535.5L493.6,535.5
		L493.6,535.5z M471.8,535.9h-3.4v15.3h3.4v-6.7h3.3v6.7h3.4v-15.3h-3.4v5.8h-3.3V535.9L471.8,535.9z M454.6,548.5h-3.9
		c0.2-0.4,0.3-0.8,0.5-1.2c0.1-0.4,0.3-0.8,0.4-1.3c0.1-0.5,0.2-1,0.2-1.6c0.1-0.6,0.1-1.4,0.1-2.3v-3.5h2.8V548.5L454.6,548.5z
		 M447.2,548.5h-1v6.4h3.2v-3.7h6.6v3.7h3.2v-6.4H458v-12.6h-9.5v5.1c0,1,0,1.9-0.1,2.7c-0.1,0.8-0.1,1.4-0.2,2
		c-0.1,0.6-0.2,1.1-0.4,1.5C447.6,547.6,447.4,548,447.2,548.5L447.2,548.5L447.2,548.5z M426.7,535.9v15.3h3.4l3.7-9v9h3.4v-15.3
		h-3.3l-3.7,9.1v-9.1H426.7L426.7,535.9L426.7,535.9z M406.8,551.2h5.8c0.5,0,1.1-0.1,1.6-0.2c0.5-0.2,1-0.4,1.4-0.7
		c0.4-0.3,0.8-0.8,1-1.3c0.3-0.6,0.4-1.2,0.4-2c0-0.6-0.1-1.1-0.2-1.6c-0.1-0.4-0.3-0.8-0.6-1.1c-0.2-0.3-0.5-0.5-0.8-0.7
		c-0.3-0.2-0.6-0.3-0.9-0.5c0.3-0.1,0.6-0.3,0.8-0.5c0.3-0.2,0.5-0.4,0.7-0.7c0.2-0.3,0.4-0.6,0.5-1c0.1-0.4,0.2-0.8,0.2-1.3
		c0-0.6-0.1-1.1-0.4-1.6c-0.2-0.5-0.6-0.8-1-1.1c-0.4-0.3-0.9-0.5-1.4-0.7c-0.5-0.1-1-0.2-1.6-0.2h-5.7V551.2L406.8,551.2z
		 M410.2,544.3h1.1c0.4,0,0.7,0.1,1.1,0.2c0.3,0.2,0.6,0.4,0.8,0.7c0.2,0.3,0.3,0.8,0.3,1.3c0,0.6-0.1,1-0.3,1.3
		c-0.2,0.3-0.5,0.5-0.8,0.6c-0.3,0.1-0.7,0.2-1.1,0.2h-1.1V544.3L410.2,544.3z M410.2,538.4h0.9c0.6,0,1.2,0.1,1.5,0.4
		c0.4,0.3,0.5,0.7,0.5,1.4c0,0.6-0.2,1.1-0.5,1.3c-0.4,0.3-0.9,0.4-1.5,0.4h-0.9V538.4L410.2,538.4z M391.3,535.9h-3.4v15.3h3.4
		v-4.4l0.8-1.6l2.1,5.9h3.8l-3.6-9.1l3.6-6.1h-3.6l-3.2,5.7V535.9L391.3,535.9z M367.7,535.9v15.3h3.4l3.7-9v9h3.4v-15.3h-3.3
		l-3.7,9.1v-9.1H367.7L367.7,535.9L367.7,535.9z M348.3,535.9v5.8c0,1.3,0,2.4,0,3.2c0,0.9-0.1,1.5-0.1,2c-0.1,0.5-0.1,0.9-0.2,1.1
		c-0.1,0.3-0.2,0.4-0.4,0.5c-0.2,0.1-0.4,0.1-0.6,0.1c-0.1,0-0.2,0-0.3,0c-0.1,0-0.3,0-0.4-0.1v2.5c0.2,0.1,0.5,0.1,0.7,0.2
		c0.2,0,0.4,0.1,0.6,0.1c0.2,0,0.4,0,0.7,0c0.5,0,1-0.1,1.4-0.3c0.4-0.2,0.8-0.5,1.1-1c0.3-0.5,0.6-1.2,0.7-2c0.2-0.9,0.3-2,0.3-3.3
		v-6.1h2.8v12.6h3.4v-15.3H348.3L348.3,535.9L348.3,535.9z M330.5,542.8v2.5h7.1v-2.5H330.5L330.5,542.8L330.5,542.8z M314.2,541.4
		v-1.5c0-0.6,0.2-1,0.5-1.3c0.3-0.3,0.8-0.4,1.3-0.4c0.6,0,1,0.1,1.3,0.4c0.3,0.3,0.5,0.7,0.5,1.2v1.5H314.2L314.2,541.4
		L314.2,541.4z M321.3,543.9v-3.5c0-0.9-0.1-1.6-0.4-2.2c-0.3-0.6-0.6-1.1-1.1-1.5c-0.5-0.4-1-0.7-1.7-0.9c-0.6-0.2-1.3-0.3-2.1-0.3
		c-0.8,0-1.5,0.1-2.1,0.3c-0.6,0.2-1.2,0.5-1.7,0.9c-0.5,0.4-0.8,0.9-1.1,1.5c-0.3,0.6-0.4,1.3-0.4,2.2v6.4c0,0.9,0.1,1.6,0.4,2.2
		c0.3,0.6,0.6,1.1,1.1,1.5c0.5,0.4,1,0.7,1.7,0.9c0.6,0.2,1.3,0.3,2.1,0.3c0.8,0,1.5-0.1,2.1-0.3c0.6-0.2,1.2-0.5,1.7-0.9
		c0.5-0.4,0.8-0.9,1.1-1.5c0.3-0.6,0.4-1.4,0.4-2.2v-0.4h-3.4v0.9c0,0.5-0.2,0.9-0.5,1.2c-0.3,0.3-0.8,0.4-1.3,0.4
		c-0.6,0-1-0.1-1.3-0.4c-0.3-0.3-0.5-0.7-0.5-1.3v-3.3H321.3L321.3,543.9L321.3,543.9z M295.8,538.3c0.4,0,0.7,0,1,0.2
		c0.3,0.1,0.5,0.3,0.6,0.6c0.2,0.3,0.2,0.6,0.2,1.1v7.1c0,0.5-0.1,0.8-0.2,1.1c-0.1,0.3-0.4,0.5-0.6,0.6c-0.3,0.1-0.6,0.2-1,0.2
		c-0.4,0-0.7-0.1-0.9-0.2c-0.3-0.1-0.5-0.3-0.7-0.6c-0.2-0.3-0.2-0.6-0.2-1.1v-7.1c0-0.5,0.1-0.8,0.2-1.1c0.2-0.3,0.4-0.5,0.7-0.6
		C295.1,538.3,295.5,538.3,295.8,538.3L295.8,538.3L295.8,538.3z M295.8,535.5c-1,0-1.9,0.1-2.6,0.4c-0.7,0.3-1.3,0.6-1.7,1.1
		c-0.4,0.5-0.7,1-0.9,1.6c-0.2,0.6-0.3,1.2-0.3,1.9v6.1c0,0.7,0.1,1.3,0.3,1.9c0.2,0.6,0.5,1.1,0.9,1.6c0.4,0.5,1,0.8,1.7,1.1
		c0.7,0.3,1.5,0.4,2.6,0.4c1,0,1.8-0.1,2.5-0.4c0.7-0.3,1.2-0.6,1.7-1.1c0.4-0.5,0.7-1,0.9-1.6c0.2-0.6,0.3-1.2,0.3-1.9v-6.1
		c0-0.7-0.1-1.3-0.3-1.9c-0.2-0.6-0.5-1.1-0.9-1.6c-0.4-0.5-1-0.8-1.7-1.1C297.7,535.7,296.8,535.5,295.8,535.5L295.8,535.5
		L295.8,535.5z M274,535.9h-3.4v15.3h3.4v-6.7h3.3v6.7h3.4v-15.3h-3.4v5.8H274V535.9L274,535.9z M256.7,548.5h-3.9
		c0.2-0.4,0.3-0.8,0.5-1.2c0.1-0.4,0.3-0.8,0.4-1.3c0.1-0.5,0.2-1,0.2-1.6c0.1-0.6,0.1-1.4,0.1-2.3v-3.5h2.8V548.5L256.7,548.5z
		 M249.4,548.5h-1v6.4h3.2v-3.7h6.6v3.7h3.2v-6.4h-1.3v-12.6h-9.5v5.1c0,1,0,1.9-0.1,2.7c-0.1,0.8-0.1,1.4-0.2,2
		c-0.1,0.6-0.2,1.1-0.4,1.5C249.8,547.6,249.6,548,249.4,548.5L249.4,548.5L249.4,548.5z M228.9,535.9v15.3h3.4l3.7-9v9h3.4v-15.3
		h-3.3l-3.7,9.1v-9.1H228.9L228.9,535.9L228.9,535.9z M208.9,551.2h5.8c0.6,0,1.1-0.1,1.6-0.2c0.5-0.2,1-0.4,1.4-0.7
		c0.4-0.3,0.8-0.8,1-1.3c0.3-0.6,0.4-1.2,0.4-2c0-0.6-0.1-1.1-0.2-1.6c-0.1-0.4-0.3-0.8-0.6-1.1c-0.2-0.3-0.5-0.5-0.8-0.7
		c-0.3-0.2-0.6-0.3-0.9-0.5c0.3-0.1,0.5-0.3,0.8-0.5c0.3-0.2,0.5-0.4,0.7-0.7c0.2-0.3,0.4-0.6,0.5-1c0.1-0.4,0.2-0.8,0.2-1.3
		c0-0.6-0.1-1.1-0.4-1.6c-0.2-0.5-0.6-0.8-1-1.1c-0.4-0.3-0.9-0.5-1.4-0.7c-0.5-0.1-1-0.2-1.6-0.2h-5.7V551.2L208.9,551.2z
		 M212.4,544.3h1.1c0.4,0,0.7,0.1,1.1,0.2c0.3,0.2,0.6,0.4,0.8,0.7c0.2,0.3,0.3,0.8,0.3,1.3c0,0.6-0.1,1-0.3,1.3
		c-0.2,0.3-0.5,0.5-0.8,0.6c-0.3,0.1-0.7,0.2-1.1,0.2h-1.1V544.3L212.4,544.3z M212.4,538.4h1c0.6,0,1.2,0.1,1.5,0.4
		c0.4,0.3,0.5,0.7,0.5,1.4c0,0.6-0.2,1.1-0.5,1.3c-0.4,0.3-0.9,0.4-1.5,0.4h-1V538.4L212.4,538.4z"/>
	<polygon class="st0" points="147.6,453.1 156.2,453.1 156.2,444.4 147.6,444.4 147.6,453.1 	"/>
	<polygon class="st0" points="131.7,453.1 140.3,453.1 140.3,444.4 131.7,444.4 131.7,453.1 	"/>
</g>
</svg>
