<?xml version="1.0" encoding="utf-8"?>
<!-- Generator: Adobe Illustrator 16.0.0, SVG Export Plug-In . SVG Version: 6.00 Build 0)  -->
<!DOCTYPE svg PUBLIC "-//W3C//DTD SVG 1.1//EN" "http://www.w3.org/Graphics/SVG/1.1/DTD/svg11.dtd">
<svg version="1.1" id="Layer_1" xmlns="http://www.w3.org/2000/svg" xmlns:xlink="http://www.w3.org/1999/xlink" x="0px" y="0px"
	 width="14.998px" height="15px" viewBox="298.501 389 14.998 15" enable-background="new 298.501 389 14.998 15"
	 xml:space="preserve">
<path fill="#5A8C3C" d="M299.201,389.852c-0.445,0.441-0.699,1.172-0.699,2.123c-0.008,2.186,1.365,5.39,4.006,8.021
	c2.629,2.639,5.834,4.014,8.021,4.005c0.947,0,1.678-0.252,2.123-0.698c0.197-0.186,0.652-0.786,0.848-1.144l-3.451-3.452
	c-0.684,0.45-1.561,0.687-2.469,0.688c-1.131-0.001-2.324-0.378-3.209-1.262c-0.886-0.887-1.263-2.082-1.263-3.211
	c0.002-0.907,0.237-1.786,0.688-2.467L300.343,389C299.987,389.195,299.386,389.65,299.201,389.852"/>
</svg>
