<?xml version="1.0" encoding="UTF-8"?>
<!DOCTYPE svg PUBLIC "-//W3C//DTD SVG 1.1//EN" "http://www.w3.org/Graphics/SVG/1.1/DTD/svg11.dtd">
<!-- Creator: CorelDRAW 2017 -->
<svg xmlns="http://www.w3.org/2000/svg" xml:space="preserve" width="37.286mm" height="15.766mm" version="1.1" style="shape-rendering:geometricPrecision; text-rendering:geometricPrecision; image-rendering:optimizeQuality; fill-rule:evenodd; clip-rule:evenodd"
viewBox="0 0 3728.6 1576.6"
 xmlns:xlink="http://www.w3.org/1999/xlink">
 <defs>
  <style type="text/css">
   <![CDATA[
    .fil0 {fill:#2B2A29;fill-rule:nonzero}
    .fil1 {fill:#D52427;fill-rule:nonzero}
    .fil2 {fill:#006B87;fill-rule:nonzero}
   ]]>
  </style>
 </defs>
 <g id="Layer_x0020_1">
  <metadata id="CorelCorpID_0Corel-Layer"/>
  <g id="_3191658889088">
   <polygon class="fil0" points="882.23,853.93 882.23,379.54 628.77,759.06 468.26,759.06 218.07,379.54 218.07,853.93 28.32,853.93 28.32,0.03 242.61,0.03 553.42,534.12 878.96,0.03 1070.34,0.03 1071.98,853.93 "/>
   <polygon class="fil0" points="1261.74,0.03 1451.5,0.03 1451.5,569.3 1925.89,0.03 2115.65,0.03 2115.65,853.93 1925.89,853.93 1925.89,284.66 1451.5,853.93 1261.74,853.93 "/>
   <path class="fil1" d="M3728.59 664.18c0,104.8 -84.96,189.75 -189.76,189.75 -104.8,0 -189.76,-84.95 -189.76,-189.75 0,-104.8 84.96,-189.76 189.76,-189.76 104.8,0 189.76,84.96 189.76,189.76z"/>
   <path class="fil2" d="M256.43 1477.42l0 95.22c-6.72,2.34 -14.23,3.93 -22.12,3.93 -7.89,0 -15.81,-1.17 -22.91,-3.93l0 -54.54 -166.33 0 0 54.54c-7.13,2.34 -14.64,3.55 -22.53,3.55 -7.92,0 -15.81,-1.21 -22.53,-3.55l0 -95.22 20.95 0c16.19,-10.68 27.25,-40.72 32,-104.32l10.68 -139.46 161.99 0 0 243.78 30.8 0zm-155.65 -101.94l0 0c-3.17,45.82 -11.06,79.03 -22.15,101.94l96.81 0 0 -206.26 -67.15 0 -7.51 104.32z"/>
   <path class="fil2" d="M504.58 1233.64c2.38,5.93 3.93,12.23 3.93,18.95 0,7.51 -1.17,15.02 -3.93,21.74l-112.62 0 0 79.03 92.84 0c2.38,6.3 3.97,13.02 3.97,19.74 0,7.1 -1.17,14.23 -3.97,20.95l-92.84 0 0 83.37 116.55 0c2.37,6.3 3.96,13.02 3.96,19.74 0,7.13 -1.17,14.23 -3.96,20.94l-167.12 0 0 -284.46 163.19 0z"/>
   <path class="fil2" d="M708.84 1233.64c47.4,0 77.45,32.39 77.45,80.2 0,24.88 -10.68,45.03 -29.25,57.3 23.32,11.85 37.51,33.96 37.51,64.38 0,49.41 -33.17,82.58 -84.13,82.58l-112.99 0 0 -284.46 111.41 0zm-11.47 121.27l0 0c25.7,0 37.55,-17.78 37.55,-41.07 0,-24.9 -11.85,-41.51 -37.55,-41.51l-49.37 0 0 82.58 49.37 0zm2.37 124.47l0 0c28.84,0 42.69,-16.19 42.69,-43.44 0,-29.66 -13.85,-43.89 -42.69,-43.89l-51.74 0 0 87.33 51.74 0z"/>
   <path class="fil2" d="M1046.25 1233.64c2.38,5.93 3.96,12.23 3.96,18.95 0,7.51 -1.2,15.02 -3.96,21.74l-112.62 0 0 79.03 92.88 0c2.34,6.3 3.93,13.02 3.93,19.74 0,7.1 -1.17,14.23 -3.93,20.95l-92.88 0 0 83.37 116.58 0c2.38,6.3 3.93,13.02 3.93,19.74 0,7.13 -1.17,14.23 -3.93,20.94l-167.15 0 0 -284.46 163.19 0z"/>
   <path class="fil2" d="M1118.19 1516.93c-2,-6.34 -3.17,-12.26 -3.17,-18.19 0,-6.3 0.79,-12.23 3.17,-18.95 3.54,0 8.26,0.38 15.4,-0.79 12.23,-2 35.17,-20.57 42.65,-118.92l9.88 -126.44 158.06 0 0 280.92c0,0 -8.3,3.54 -24.9,3.54 -18.57,0 -25.67,-3.54 -25.29,-3.54l0 -242.23 -63.22 0 -6.72 88.51c-10.64,141.45 -56.08,159.23 -82.95,159.23 -10.27,0 -16.99,-1.59 -22.91,-3.14z"/>
   <path class="fil2" d="M1548.06 1229.68c69.53,0 114.18,43.86 114.18,146.18 0,102.35 -43.45,146.21 -114.18,146.21 -70.72,0 -114.2,-43.86 -114.2,-146.21 0,-101.15 44.65,-146.18 114.2,-146.18zm0 41.86l0 0c-36.34,0 -60.84,20.57 -60.84,104.32 0,83.37 24.5,104.31 60.84,104.31 37.14,0 60.85,-20.94 60.85,-104.31 0,-83.75 -23.71,-104.32 -60.85,-104.32z"/>
   <path class="fil2" d="M1952.66 1514.56c0,0 -8.31,3.54 -24.88,3.54 -18.57,0 -25.7,-3.54 -25.7,-3.54l0 -237.48 -99.56 0 0 237.48c0,0 -9.1,3.54 -25.29,3.54 -18.19,0 -25.28,-3.54 -25.28,-3.54l0 -280.92 200.71 0 0 280.92z"/>
   <path class="fil2" d="M2285.73 1233.64c19.36,0 32.8,3.55 32.8,3.55l0 277.37c0,0 -8.69,3.54 -24.91,3.54 -16.19,0 -25.67,-3.54 -25.67,-3.54l0 -86.55c0,-43.44 -1.58,-97.97 2.76,-130.77l-2.38 0c-6.68,24.87 -27.63,65.97 -43.44,99.98l-27.67 58.05c0,0 -5.92,1.99 -14.6,1.99 -8.72,0 -12.65,-1.99 -12.65,-1.99 -9.09,-18.57 -18.57,-37.14 -27.66,-56.09 -16.99,-34.38 -38.31,-77.07 -44.65,-101.94l-2.38 0c5.93,27.66 4.76,79.03 4.76,120.89l0 96.43c0,0 -8.3,3.54 -23.7,3.54 -13.85,0 -22.54,-3.54 -22.54,-3.54l0 -277.37c0,0 12.23,-3.55 30.42,-3.55 15.03,0 30.05,3.55 30.05,3.55l35.93 72.31c13.06,26.84 27.66,56.88 34,77.41l1.97 0c3.54,-11.43 8.3,-25.28 15.81,-41.06 17.78,-35.97 34.76,-72.31 51.36,-108.66 10.65,-2.38 23.29,-3.55 32.39,-3.55z"/>
   <path class="fil2" d="M2583.28 1233.64c2.38,5.93 3.96,12.23 3.96,18.95 0,7.51 -1.2,15.02 -3.96,21.74l-112.62 0 0 79.03 92.88 0c2.34,6.3 3.93,13.02 3.93,19.74 0,7.1 -1.17,14.23 -3.93,20.95l-92.88 0 0 83.37 116.58 0c2.38,6.3 3.93,13.02 3.93,19.74 0,7.13 -1.17,14.23 -3.93,20.94l-167.15 0 0 -284.46 163.19 0z"/>
   <path class="fil2" d="M2830.23 1237.19c0,0 8.71,-3.55 25.28,-3.55 16.61,0 25.29,3.55 25.29,3.55l0 277.37c0,0 -8.3,3.54 -24.87,3.54 -18.57,0 -25.7,-3.54 -25.7,-3.54l0 -120.51 -104.32 0 0 120.51c0,0 -9.06,3.54 -25.29,3.54 -18.15,0 -25.29,-3.54 -25.29,-3.54l0 -277.37c0,0 8.31,-3.55 24.91,-3.55 16.99,0 25.67,3.55 25.67,3.55l0 113.38 104.32 0 0 -113.38z"/>
   <path class="fil2" d="M3155.03 1233.64c0,0 3.93,9.48 3.93,21.33 0,12.64 -3.93,22.11 -3.93,22.11l-69.94 0 0 237.48c0,0 -9.09,3.54 -25.28,3.54 -18.19,0 -25.29,-3.54 -25.29,-3.54l0 -237.48 -71.93 0c0,0 -3.93,-8.3 -3.93,-21.32 0,-12.64 3.93,-22.12 3.93,-22.12l192.44 0z"/>
   <polygon class="fil0" points="3064.44,664.18 3064.44,0.02 2874.68,0.02 2874.68,664.18 2495.17,664.18 2495.17,0.02 2305.41,0.02 2305.41,853.93 2969.92,853.93 2969.92,948.81 3158.96,948.81 3158.96,664.18 "/>
  </g>
 </g>
</svg>
