<?xml version="1.0" encoding="utf-8"?>
<!-- Svg Vector Icons : http://www.onlinewebfonts.com/icon -->
<!DOCTYPE svg PUBLIC "-//W3C//DTD SVG 1.1//EN" "http://www.w3.org/Graphics/SVG/1.1/DTD/svg11.dtd">
<svg version="1.1" xmlns="http://www.w3.org/2000/svg" xmlns:xlink="http://www.w3.org/1999/xlink" x="0px" y="0px" viewBox="0 0 1000 1000" enable-background="new 0 0 1000 1000" xml:space="preserve">
<metadata> Svg Vector Icons : http://www.onlinewebfonts.com/icon </metadata>
<g><path d="M500,509.8L500,509.8c124.6,0,225.7-97.9,225.7-218.6S624.6,72.5,500,72.5s-225.7,97.9-225.7,218.6S375.4,509.8,500,509.8L500,509.8z M356.2,535.3c-87.4-48.4-146.3-139.7-146.3-244.2C209.9,135.9,339.8,10,500,10c160.2,0,290.1,125.9,290.1,281.1c0,104.6-58.9,195.8-146.3,244.2c113.1,35.6,195,104.9,248.9,198.6c28.2,48.9,46.7,101.1,57.4,153.2c6.5,31.4,8.9,56.2,9.2,71c0.4,17.2-13.8,31.5-31.6,31.9c-17.8,0.3-32.5-13.4-32.9-30.6c-0.1-2.5-0.4-7.8-1.1-15.6c-1.3-13.3-3.6-28.3-6.9-44.4c-9.5-46.1-25.8-92.2-50.4-135c-63.8-110.7-171.3-180.7-336.4-192c-165.2,11.3-272.7,81.4-336.4,192c-24.6,42.8-41,88.9-50.4,135c-3.3,16.1-5.5,31.1-6.9,44.4c-0.8,7.8-1.1,13.1-1.1,15.6c-0.4,17.2-15.1,30.9-32.9,30.6c-17.8-0.3-31.9-14.6-31.6-31.9c0.3-14.8,2.8-39.6,9.2-71c10.7-52.1,29.2-104.3,57.4-153.2C161.2,640.2,243.1,571,356.2,535.3z"/></g>
</svg>