<svg id="Capa_1" data-name="Capa 1" xmlns="http://www.w3.org/2000/svg" viewBox="0 0 21.6907 13.1436"><defs><style>.cls-1{fill:none;stroke:#b1b1b1;stroke-miterlimit:10;stroke-width:2px;}</style></defs><title>VK</title><path class="cls-1" d="M20.0308,11.4551a26.6672,26.6672,0,0,0-1.929-1.9406c-.5889-.5744-.6261-.9077-.1526-1.5707.5167-.7236,1.0723-1.4194,1.5937-2.14a7.77,7.77,0,0,0,1.24-2.1506c.1624-.5128.0188-.7393-.5071-.8291A1.6235,1.6235,0,0,0,20,2.8078l-3.12-.0037a.6972.6972,0,0,0-.7326.5024c-.1835.46-.3726.92-.5912,1.3646A11.2145,11.2145,0,0,1,13.73,7.4764c-.1712.1818-.3606.4116-.6467.3169-.3579-.1306-.4634-.72-.4575-.92l-.0031-3.6011c-.0694-.5144-.1835-.7438-.6942-.8438l-3.2409.0006a1.0311,1.0311,0,0,0-.8805.4377c-.1333.1563-.1735.2577.1.31a1.0815,1.0815,0,0,1,.9213.9895,11.06,11.06,0,0,1,.0457,2.5922,2.41,2.41,0,0,1-.1655.7405.4366.4366,0,0,1-.7422.2181,3.01,3.01,0,0,1-.7193-.7905A17.4133,17.4133,0,0,1,5.3443,3.3992a.8243.8243,0,0,0-.7791-.5834c-.936-.0149-1.8723-.0173-2.8083.0008-.5632.0106-.7312.2841-.5018.7946A34.8511,34.8511,0,0,0,4.8907,10.092a9.0526,9.0526,0,0,0,2.7618,2.5855,7.3453,7.3453,0,0,0,4.1041.8832c.6787-.0318.8826-.2083.914-.8848a2.9964,2.9964,0,0,1,.302-1.3388.5992.5992,0,0,1,.9546-.232,2.7074,2.7074,0,0,1,.5163.46c.382.4179.75.8485,1.1468,1.2523a2.2183,2.2183,0,0,0,1.8272.744l2.8675.0006c.462-.03.7016-.5967.4363-1.1123A5.5212,5.5212,0,0,0,20.0308,11.4551Z" transform="translate(-0.1558 -1.4287)"/></svg>