<?xml version="1.0" encoding="utf-8"?>
<!-- Generator: Adobe Illustrator 16.0.0, SVG Export Plug-In . SVG Version: 6.00 Build 0)  -->
<!DOCTYPE svg PUBLIC "-//W3C//DTD SVG 1.1//EN" "http://www.w3.org/Graphics/SVG/1.1/DTD/svg11.dtd">
<svg version="1.1" id="Layer_1" xmlns="http://www.w3.org/2000/svg" xmlns:xlink="http://www.w3.org/1999/xlink" x="0px" y="0px"
	 width="32.001px" height="34px" viewBox="289.5 386.5 32.001 34" enable-background="new 289.5 386.5 32.001 34"
	 xml:space="preserve">
<path fill="#4A896F" d="M318.883,420.5h-19.582c-1.443,0-2.617-1.173-2.617-2.615V412h-5.226c-1.08,0-1.958-0.879-1.958-1.96v-9.813
	c0-1.079,0.878-1.959,1.958-1.959h5.226v-9.149c0-1.444,1.174-2.619,2.617-2.619h12.896c0.178,0,0.348,0.072,0.471,0.2l8.651,9.001
	c0.116,0.122,0.183,0.284,0.183,0.453v21.731C321.5,419.328,320.326,420.5,318.883,420.5z M291.458,399.576
	c-0.359,0-0.652,0.293-0.652,0.651v9.813c0,0.36,0.292,0.652,0.652,0.652h17.635c0.359,0,0.652-0.292,0.652-0.652v-9.813
	c0-0.358-0.293-0.651-0.652-0.651H291.458z M312.357,388.265v7.389h7.102L312.357,388.265z M320.193,396.961h-8.489
	c-0.36,0-0.653-0.293-0.653-0.654v-8.5h-11.75c-0.723,0-1.311,0.588-1.311,1.312v9.149h11.103c1.079,0,1.958,0.88,1.958,1.96v9.812
	c0,1.081-0.879,1.96-1.958,1.96H297.99v5.885c0,0.722,0.588,1.309,1.311,1.309h19.582c0.724,0,1.312-0.586,1.312-1.307
	L320.193,396.961L320.193,396.961z M305.362,404.74h2.342v0.949h-2.342v2.387h-1.133v-5.615h3.846v0.949h-2.713V404.74z
	 M302.488,407.51c-0.196,0.191-0.461,0.341-0.796,0.448c-0.25,0.079-0.584,0.118-1.002,0.118h-2.131v-5.615h2.07
	c0.467,0,0.823,0.035,1.067,0.106c0.329,0.098,0.611,0.27,0.846,0.518c0.235,0.247,0.413,0.551,0.536,0.909
	c0.123,0.359,0.184,0.802,0.184,1.328c0,0.462-0.057,0.859-0.172,1.194C302.949,406.926,302.749,407.257,302.488,407.51z
	 M301.976,404.272c-0.077-0.232-0.184-0.413-0.321-0.545c-0.137-0.131-0.313-0.219-0.524-0.265c-0.158-0.035-0.468-0.054-0.93-0.054
	h-0.509v3.721h0.846c0.316,0,0.544-0.018,0.685-0.054c0.184-0.046,0.336-0.124,0.458-0.233c0.121-0.109,0.22-0.291,0.296-0.543
	c0.077-0.251,0.115-0.594,0.115-1.027C302.092,404.838,302.052,404.505,301.976,404.272z M296.969,405.611
	c-0.193,0.135-0.389,0.223-0.587,0.267c-0.271,0.054-0.662,0.08-1.175,0.08h-0.739v2.118h-1.132v-5.615h1.817
	c0.689,0,1.138,0.027,1.347,0.084c0.321,0.084,0.59,0.269,0.807,0.55c0.217,0.282,0.326,0.646,0.326,1.095
	c0,0.345-0.063,0.634-0.188,0.868C297.32,405.293,297.161,405.478,296.969,405.611z M296.286,403.697
	c-0.12-0.133-0.272-0.215-0.456-0.248c-0.135-0.025-0.407-0.039-0.815-0.039h-0.547v1.594h0.62c0.446,0,0.745-0.029,0.896-0.088
	c0.15-0.059,0.269-0.15,0.354-0.275s0.128-0.271,0.128-0.438C296.465,403.999,296.405,403.83,296.286,403.697z"/>
</svg>
